<?xml version="1.0" encoding="UTF-8"?>
<svg xmlns="http://www.w3.org/2000/svg" xmlns:xlink="http://www.w3.org/1999/xlink" width="792" height="504" viewBox="0 0 792 504">
<defs>
<g>
<g id="glyph-0-0">
<path d="M 0.253906 -1.71875 L 0.253906 -2.425781 L 2.414062 -2.425781 L 2.414062 -1.71875 Z M 0.253906 -1.71875 "/>
</g>
<g id="glyph-0-1">
<path d="M 4.027344 -0.675781 L 4.027344 0 L 0.242188 0 C 0.238281 -0.167969 0.265625 -0.332031 0.324219 -0.488281 C 0.421875 -0.746094 0.574219 -1 0.789062 -1.25 C 1 -1.5 1.304688 -1.789062 1.707031 -2.117188 C 2.328125 -2.628906 2.75 -3.03125 2.96875 -3.328125 C 3.1875 -3.628906 3.296875 -3.910156 3.296875 -4.175781 C 3.296875 -4.453125 3.195312 -4.6875 3 -4.882812 C 2.796875 -5.070312 2.539062 -5.167969 2.21875 -5.167969 C 1.878906 -5.167969 1.609375 -5.066406 1.40625 -4.863281 C 1.203125 -4.660156 1.101562 -4.378906 1.097656 -4.019531 L 0.375 -4.09375 C 0.425781 -4.632812 0.609375 -5.042969 0.933594 -5.328125 C 1.257812 -5.609375 1.691406 -5.75 2.234375 -5.75 C 2.785156 -5.75 3.21875 -5.597656 3.539062 -5.292969 C 3.859375 -4.988281 4.019531 -4.609375 4.019531 -4.160156 C 4.019531 -3.929688 3.972656 -3.707031 3.878906 -3.484375 C 3.785156 -3.261719 3.628906 -3.03125 3.414062 -2.785156 C 3.195312 -2.539062 2.832031 -2.203125 2.328125 -1.777344 C 1.90625 -1.421875 1.636719 -1.183594 1.515625 -1.054688 C 1.394531 -0.929688 1.296875 -0.804688 1.21875 -0.675781 Z M 4.027344 -0.675781 "/>
</g>
<g id="glyph-0-2">
<path d="M 0.726562 0 L 0.726562 -0.800781 L 1.527344 -0.800781 L 1.527344 0 Z M 0.726562 0 "/>
</g>
<g id="glyph-0-3">
<path d="M 0.332031 -1.5 L 1.070312 -1.5625 C 1.125 -1.203125 1.25 -0.933594 1.453125 -0.75 C 1.648438 -0.570312 1.890625 -0.480469 2.171875 -0.480469 C 2.511719 -0.480469 2.796875 -0.609375 3.03125 -0.863281 C 3.265625 -1.117188 3.382812 -1.457031 3.382812 -1.878906 C 3.382812 -2.28125 3.269531 -2.597656 3.046875 -2.828125 C 2.820312 -3.058594 2.523438 -3.175781 2.160156 -3.175781 C 1.933594 -3.175781 1.730469 -3.125 1.546875 -3.023438 C 1.363281 -2.917969 1.222656 -2.785156 1.117188 -2.621094 L 0.457031 -2.707031 L 1.011719 -5.648438 L 3.859375 -5.648438 L 3.859375 -4.976562 L 1.574219 -4.976562 L 1.265625 -3.4375 C 1.609375 -3.675781 1.96875 -3.796875 2.347656 -3.796875 C 2.847656 -3.796875 3.269531 -3.625 3.613281 -3.277344 C 3.957031 -2.929688 4.128906 -2.484375 4.128906 -1.941406 C 4.128906 -1.421875 3.976562 -0.976562 3.675781 -0.597656 C 3.308594 -0.132812 2.808594 0.0976562 2.171875 0.0976562 C 1.652344 0.0976562 1.226562 -0.046875 0.898438 -0.339844 C 0.566406 -0.632812 0.378906 -1.019531 0.332031 -1.5 Z M 0.332031 -1.5 "/>
</g>
<g id="glyph-0-4">
<path d="M 0.332031 -2.824219 C 0.332031 -3.5 0.402344 -4.046875 0.539062 -4.460938 C 0.679688 -4.871094 0.886719 -5.191406 1.164062 -5.414062 C 1.4375 -5.636719 1.78125 -5.75 2.199219 -5.75 C 2.507812 -5.75 2.777344 -5.6875 3.007812 -5.5625 C 3.238281 -5.441406 3.429688 -5.261719 3.582031 -5.03125 C 3.734375 -4.796875 3.851562 -4.511719 3.9375 -4.179688 C 4.023438 -3.84375 4.066406 -3.390625 4.066406 -2.824219 C 4.066406 -2.152344 3.996094 -1.609375 3.859375 -1.195312 C 3.722656 -0.785156 3.515625 -0.464844 3.242188 -0.242188 C 2.964844 -0.015625 2.617188 0.0976562 2.199219 0.0976562 C 1.648438 0.0976562 1.214844 -0.101562 0.898438 -0.496094 C 0.519531 -0.972656 0.332031 -1.75 0.332031 -2.824219 M 1.054688 -2.824219 C 1.054688 -1.882812 1.164062 -1.257812 1.382812 -0.945312 C 1.605469 -0.636719 1.875 -0.480469 2.199219 -0.480469 C 2.523438 -0.480469 2.792969 -0.636719 3.015625 -0.949219 C 3.234375 -1.261719 3.34375 -1.886719 3.34375 -2.824219 C 3.34375 -3.765625 3.234375 -4.394531 3.015625 -4.703125 C 2.792969 -5.011719 2.519531 -5.167969 2.191406 -5.167969 C 1.867188 -5.167969 1.609375 -5.03125 1.417969 -4.757812 C 1.175781 -4.410156 1.054688 -3.765625 1.054688 -2.824219 Z M 1.054688 -2.824219 "/>
</g>
<g id="glyph-0-5">
<path d="M 0.527344 0 L 0.527344 -4.148438 L 1.160156 -4.148438 L 1.160156 -3.558594 C 1.464844 -4.015625 1.90625 -4.242188 2.480469 -4.242188 C 2.730469 -4.242188 2.960938 -4.195312 3.171875 -4.109375 C 3.378906 -4.015625 3.535156 -3.898438 3.640625 -3.753906 C 3.746094 -3.609375 3.816406 -3.433594 3.859375 -3.234375 C 3.886719 -3.105469 3.898438 -2.875 3.898438 -2.550781 L 3.898438 0 L 3.195312 0 L 3.195312 -2.523438 C 3.195312 -2.808594 3.167969 -3.023438 3.113281 -3.164062 C 3.058594 -3.308594 2.960938 -3.421875 2.820312 -3.507812 C 2.683594 -3.589844 2.519531 -3.632812 2.332031 -3.632812 C 2.03125 -3.632812 1.773438 -3.539062 1.554688 -3.347656 C 1.339844 -3.15625 1.230469 -2.796875 1.230469 -2.265625 L 1.230469 0 Z M 0.527344 0 "/>
</g>
<g id="glyph-0-6">
<path d="M 0.265625 -2.074219 C 0.265625 -2.84375 0.480469 -3.410156 0.90625 -3.78125 C 1.261719 -4.089844 1.699219 -4.242188 2.210938 -4.242188 C 2.78125 -4.242188 3.246094 -4.054688 3.609375 -3.679688 C 3.972656 -3.308594 4.152344 -2.792969 4.152344 -2.132812 C 4.152344 -1.597656 4.070312 -1.179688 3.914062 -0.875 C 3.75 -0.566406 3.519531 -0.328125 3.210938 -0.160156 C 2.90625 0.0078125 2.574219 0.09375 2.210938 0.09375 C 1.628906 0.09375 1.160156 -0.09375 0.804688 -0.464844 C 0.445312 -0.835938 0.265625 -1.375 0.265625 -2.074219 M 0.988281 -2.074219 C 0.988281 -1.542969 1.105469 -1.144531 1.335938 -0.882812 C 1.566406 -0.617188 1.859375 -0.484375 2.210938 -0.484375 C 2.558594 -0.484375 2.851562 -0.617188 3.082031 -0.882812 C 3.3125 -1.148438 3.429688 -1.554688 3.429688 -2.097656 C 3.429688 -2.609375 3.3125 -3 3.078125 -3.265625 C 2.847656 -3.527344 2.558594 -3.660156 2.210938 -3.660156 C 1.859375 -3.660156 1.566406 -3.527344 1.335938 -3.265625 C 1.105469 -3.003906 0.988281 -2.605469 0.988281 -2.074219 Z M 0.988281 -2.074219 "/>
</g>
<g id="glyph-0-7">
<path d="M 0.496094 1.597656 L 0.417969 0.9375 C 0.570312 0.980469 0.707031 1 0.820312 1 C 0.976562 1 1.101562 0.972656 1.195312 0.921875 C 1.289062 0.871094 1.367188 0.796875 1.425781 0.703125 C 1.46875 0.632812 1.542969 0.457031 1.640625 0.179688 C 1.652344 0.140625 1.675781 0.0820312 1.703125 0.0078125 L 0.128906 -4.148438 L 0.886719 -4.148438 L 1.75 -1.746094 C 1.863281 -1.441406 1.960938 -1.121094 2.050781 -0.785156 C 2.132812 -1.109375 2.226562 -1.421875 2.339844 -1.730469 L 3.226562 -4.148438 L 3.929688 -4.148438 L 2.351562 0.0703125 C 2.183594 0.527344 2.050781 0.839844 1.957031 1.011719 C 1.832031 1.242188 1.6875 1.414062 1.527344 1.523438 C 1.367188 1.628906 1.171875 1.683594 0.949219 1.683594 C 0.8125 1.683594 0.664062 1.65625 0.496094 1.597656 Z M 0.496094 1.597656 "/>
</g>
<g id="glyph-0-8">
<path d="M 3.367188 -1.335938 L 4.09375 -1.246094 C 3.980469 -0.820312 3.765625 -0.492188 3.457031 -0.257812 C 3.148438 -0.0234375 2.75 0.09375 2.269531 0.09375 C 1.664062 0.09375 1.179688 -0.09375 0.828125 -0.46875 C 0.46875 -0.839844 0.292969 -1.363281 0.292969 -2.039062 C 0.292969 -2.738281 0.472656 -3.277344 0.832031 -3.664062 C 1.191406 -4.050781 1.65625 -4.242188 2.230469 -4.242188 C 2.785156 -4.242188 3.238281 -4.054688 3.589844 -3.675781 C 3.941406 -3.296875 4.117188 -2.765625 4.117188 -2.082031 C 4.117188 -2.039062 4.117188 -1.976562 4.113281 -1.894531 L 1.019531 -1.894531 C 1.046875 -1.4375 1.175781 -1.089844 1.40625 -0.847656 C 1.636719 -0.605469 1.925781 -0.484375 2.273438 -0.484375 C 2.53125 -0.484375 2.75 -0.550781 2.933594 -0.6875 C 3.117188 -0.824219 3.261719 -1.039062 3.367188 -1.335938 M 1.058594 -2.472656 L 3.375 -2.472656 C 3.34375 -2.820312 3.253906 -3.082031 3.109375 -3.257812 C 2.886719 -3.527344 2.59375 -3.664062 2.238281 -3.664062 C 1.914062 -3.664062 1.644531 -3.554688 1.421875 -3.339844 C 1.203125 -3.125 1.082031 -2.835938 1.058594 -2.472656 Z M 1.058594 -2.472656 "/>
</g>
<g id="glyph-0-9">
<path d="M 0.246094 -1.238281 L 0.941406 -1.347656 C 0.980469 -1.070312 1.089844 -0.855469 1.265625 -0.707031 C 1.445312 -0.558594 1.695312 -0.484375 2.015625 -0.484375 C 2.339844 -0.484375 2.578125 -0.550781 2.734375 -0.679688 C 2.890625 -0.8125 2.96875 -0.96875 2.96875 -1.144531 C 2.96875 -1.304688 2.898438 -1.429688 2.761719 -1.519531 C 2.664062 -1.582031 2.425781 -1.660156 2.042969 -1.757812 C 1.527344 -1.886719 1.171875 -2 0.96875 -2.09375 C 0.773438 -2.191406 0.621094 -2.320312 0.515625 -2.492188 C 0.414062 -2.65625 0.363281 -2.84375 0.363281 -3.046875 C 0.363281 -3.230469 0.40625 -3.402344 0.492188 -3.5625 C 0.574219 -3.71875 0.691406 -3.847656 0.835938 -3.953125 C 0.945312 -4.035156 1.09375 -4.101562 1.28125 -4.15625 C 1.472656 -4.214844 1.675781 -4.242188 1.890625 -4.242188 C 2.214844 -4.242188 2.5 -4.195312 2.75 -4.101562 C 2.992188 -4.007812 3.175781 -3.878906 3.292969 -3.71875 C 3.410156 -3.558594 3.492188 -3.347656 3.535156 -3.078125 L 2.847656 -2.984375 C 2.816406 -3.199219 2.726562 -3.363281 2.578125 -3.484375 C 2.425781 -3.605469 2.214844 -3.664062 1.941406 -3.664062 C 1.617188 -3.664062 1.386719 -3.609375 1.25 -3.503906 C 1.113281 -3.398438 1.042969 -3.273438 1.042969 -3.128906 C 1.042969 -3.039062 1.070312 -2.957031 1.128906 -2.882812 C 1.1875 -2.808594 1.277344 -2.746094 1.398438 -2.695312 C 1.46875 -2.667969 1.675781 -2.609375 2.019531 -2.515625 C 2.515625 -2.382812 2.863281 -2.273438 3.0625 -2.1875 C 3.257812 -2.105469 3.410156 -1.980469 3.523438 -1.820312 C 3.636719 -1.660156 3.691406 -1.457031 3.691406 -1.21875 C 3.691406 -0.984375 3.621094 -0.761719 3.484375 -0.554688 C 3.347656 -0.351562 3.152344 -0.1875 2.894531 -0.078125 C 2.636719 0.0351562 2.34375 0.09375 2.019531 0.09375 C 1.480469 0.09375 1.070312 -0.0195312 0.789062 -0.242188 C 0.503906 -0.464844 0.324219 -0.796875 0.246094 -1.238281 Z M 0.246094 -1.238281 "/>
</g>
<g id="glyph-0-10">
<path d="M 2.980469 0 L 2.277344 0 L 2.277344 -4.480469 C 2.109375 -4.320312 1.886719 -4.15625 1.609375 -3.996094 C 1.335938 -3.835938 1.089844 -3.714844 0.871094 -3.632812 L 0.871094 -4.3125 C 1.265625 -4.496094 1.609375 -4.722656 1.902344 -4.984375 C 2.195312 -5.246094 2.40625 -5.503906 2.527344 -5.75 L 2.980469 -5.75 Z M 2.980469 0 "/>
</g>
<g id="glyph-0-11">
<path d="M 0.335938 -1.511719 L 1.039062 -1.605469 C 1.121094 -1.207031 1.257812 -0.917969 1.453125 -0.742188 C 1.644531 -0.570312 1.882812 -0.480469 2.160156 -0.480469 C 2.492188 -0.480469 2.769531 -0.59375 3 -0.824219 C 3.226562 -1.054688 3.339844 -1.335938 3.339844 -1.675781 C 3.339844 -2 3.234375 -2.265625 3.023438 -2.476562 C 2.8125 -2.683594 2.542969 -2.789062 2.21875 -2.789062 C 2.085938 -2.789062 1.921875 -2.761719 1.722656 -2.710938 L 1.800781 -3.328125 C 1.847656 -3.324219 1.886719 -3.320312 1.914062 -3.320312 C 2.214844 -3.320312 2.484375 -3.398438 2.722656 -3.554688 C 2.960938 -3.710938 3.082031 -3.953125 3.082031 -4.277344 C 3.082031 -4.535156 2.996094 -4.75 2.820312 -4.917969 C 2.644531 -5.085938 2.421875 -5.171875 2.144531 -5.171875 C 1.871094 -5.171875 1.644531 -5.085938 1.460938 -4.914062 C 1.277344 -4.742188 1.160156 -4.484375 1.109375 -4.140625 L 0.40625 -4.265625 C 0.492188 -4.738281 0.6875 -5.101562 0.992188 -5.359375 C 1.296875 -5.621094 1.675781 -5.75 2.128906 -5.75 C 2.441406 -5.75 2.730469 -5.683594 2.992188 -5.546875 C 3.253906 -5.414062 3.457031 -5.230469 3.59375 -5 C 3.734375 -4.769531 3.804688 -4.523438 3.804688 -4.261719 C 3.804688 -4.015625 3.738281 -3.789062 3.605469 -3.585938 C 3.472656 -3.382812 3.277344 -3.222656 3.015625 -3.101562 C 3.355469 -3.023438 3.617188 -2.859375 3.804688 -2.617188 C 3.992188 -2.367188 4.085938 -2.0625 4.085938 -1.691406 C 4.085938 -1.191406 3.902344 -0.765625 3.539062 -0.421875 C 3.175781 -0.0742188 2.714844 0.101562 2.15625 0.101562 C 1.652344 0.101562 1.234375 -0.046875 0.90625 -0.347656 C 0.570312 -0.648438 0.382812 -1.035156 0.335938 -1.511719 Z M 0.335938 -1.511719 "/>
</g>
<g id="glyph-0-12">
<path d="M 2.585938 0 L 2.585938 -1.371094 L 0.101562 -1.371094 L 0.101562 -2.015625 L 2.714844 -5.726562 L 3.289062 -5.726562 L 3.289062 -2.015625 L 4.0625 -2.015625 L 4.0625 -1.371094 L 3.289062 -1.371094 L 3.289062 0 L 2.585938 0 M 2.585938 -2.015625 L 2.585938 -4.597656 L 0.792969 -2.015625 Z M 2.585938 -2.015625 "/>
</g>
<g id="glyph-0-13">
<path d="M 3.980469 -4.324219 L 3.28125 -4.269531 C 3.21875 -4.546875 3.128906 -4.746094 3.015625 -4.871094 C 2.824219 -5.070312 2.589844 -5.171875 2.3125 -5.171875 C 2.089844 -5.171875 1.890625 -5.109375 1.722656 -4.984375 C 1.5 -4.824219 1.328125 -4.585938 1.199219 -4.277344 C 1.070312 -3.96875 1.003906 -3.527344 1 -2.953125 C 1.167969 -3.210938 1.375 -3.402344 1.621094 -3.527344 C 1.867188 -3.652344 2.121094 -3.714844 2.390625 -3.714844 C 2.859375 -3.714844 3.257812 -3.542969 3.585938 -3.195312 C 3.917969 -2.851562 4.082031 -2.40625 4.082031 -1.859375 C 4.082031 -1.5 4.003906 -1.164062 3.851562 -0.859375 C 3.695312 -0.546875 3.480469 -0.3125 3.210938 -0.148438 C 2.941406 0.015625 2.632812 0.0976562 2.289062 0.0976562 C 1.703125 0.0976562 1.226562 -0.117188 0.855469 -0.546875 C 0.484375 -0.980469 0.300781 -1.691406 0.300781 -2.679688 C 0.300781 -3.785156 0.503906 -4.589844 0.914062 -5.09375 C 1.269531 -5.53125 1.75 -5.75 2.355469 -5.75 C 2.804688 -5.75 3.175781 -5.625 3.460938 -5.371094 C 3.75 -5.117188 3.921875 -4.769531 3.980469 -4.324219 M 1.109375 -1.855469 C 1.109375 -1.613281 1.160156 -1.382812 1.265625 -1.160156 C 1.367188 -0.9375 1.511719 -0.769531 1.695312 -0.65625 C 1.878906 -0.539062 2.074219 -0.480469 2.277344 -0.480469 C 2.574219 -0.480469 2.828125 -0.601562 3.042969 -0.839844 C 3.257812 -1.078125 3.363281 -1.40625 3.363281 -1.816406 C 3.363281 -2.210938 3.257812 -2.523438 3.046875 -2.75 C 2.835938 -2.980469 2.570312 -3.09375 2.25 -3.09375 C 1.933594 -3.09375 1.664062 -2.980469 1.441406 -2.75 C 1.21875 -2.523438 1.109375 -2.226562 1.109375 -1.855469 Z M 1.109375 -1.855469 "/>
</g>
<g id="glyph-1-0">
<path d="M 0.789062 0 L 0.789062 -7.15625 L 5.96875 -7.15625 L 5.96875 -6.3125 L 1.738281 -6.3125 L 1.738281 -4.121094 L 5.699219 -4.121094 L 5.699219 -3.28125 L 1.738281 -3.28125 L 1.738281 -0.84375 L 6.132812 -0.84375 L 6.132812 0 Z M 0.789062 0 "/>
</g>
<g id="glyph-1-1">
<path d="M 0.0742188 0 L 1.96875 -2.695312 L 0.214844 -5.1875 L 1.3125 -5.1875 L 2.109375 -3.96875 C 2.257812 -3.738281 2.378906 -3.546875 2.46875 -3.390625 C 2.613281 -3.601562 2.746094 -3.792969 2.867188 -3.960938 L 3.742188 -5.1875 L 4.789062 -5.1875 L 3 -2.742188 L 4.925781 0 L 3.847656 0 L 2.78125 -1.609375 L 2.5 -2.046875 L 1.136719 0 Z M 0.0742188 0 "/>
</g>
<g id="glyph-1-2">
<path d="M 0.660156 1.988281 L 0.660156 -5.1875 L 1.460938 -5.1875 L 1.460938 -4.511719 C 1.648438 -4.773438 1.863281 -4.972656 2.101562 -5.105469 C 2.335938 -5.238281 2.625 -5.304688 2.964844 -5.304688 C 3.40625 -5.304688 3.796875 -5.1875 4.136719 -4.960938 C 4.472656 -4.734375 4.730469 -4.410156 4.902344 -3.996094 C 5.074219 -3.582031 5.160156 -3.125 5.160156 -2.632812 C 5.160156 -2.101562 5.066406 -1.625 4.875 -1.199219 C 4.683594 -0.773438 4.410156 -0.449219 4.046875 -0.222656 C 3.683594 0.00390625 3.300781 0.117188 2.898438 0.117188 C 2.609375 0.117188 2.34375 0.0546875 2.113281 -0.0703125 C 1.878906 -0.191406 1.6875 -0.347656 1.539062 -0.539062 L 1.539062 1.988281 L 0.660156 1.988281 M 1.453125 -2.5625 C 1.453125 -1.894531 1.589844 -1.402344 1.859375 -1.085938 C 2.128906 -0.765625 2.457031 -0.605469 2.84375 -0.605469 C 3.234375 -0.605469 3.566406 -0.769531 3.84375 -1.101562 C 4.125 -1.429688 4.261719 -1.945312 4.261719 -2.636719 C 4.261719 -3.296875 4.125 -3.792969 3.855469 -4.121094 C 3.582031 -4.449219 3.257812 -4.613281 2.882812 -4.613281 C 2.507812 -4.613281 2.175781 -4.4375 1.886719 -4.089844 C 1.597656 -3.738281 1.453125 -3.230469 1.453125 -2.5625 Z M 1.453125 -2.5625 "/>
</g>
<g id="glyph-1-3">
<path d="M 4.210938 -1.671875 L 5.117188 -1.558594 C 4.972656 -1.027344 4.707031 -0.613281 4.320312 -0.320312 C 3.933594 -0.03125 3.4375 0.117188 2.835938 0.117188 C 2.078125 0.117188 1.476562 -0.117188 1.03125 -0.582031 C 0.589844 -1.050781 0.367188 -1.707031 0.367188 -2.546875 C 0.367188 -3.421875 0.589844 -4.097656 1.039062 -4.578125 C 1.488281 -5.0625 2.070312 -5.304688 2.789062 -5.304688 C 3.480469 -5.304688 4.046875 -5.066406 4.488281 -4.59375 C 4.925781 -4.121094 5.148438 -3.457031 5.148438 -2.601562 C 5.148438 -2.550781 5.144531 -2.472656 5.140625 -2.367188 L 1.273438 -2.367188 C 1.308594 -1.796875 1.46875 -1.363281 1.757812 -1.058594 C 2.046875 -0.757812 2.410156 -0.605469 2.84375 -0.605469 C 3.164062 -0.605469 3.4375 -0.691406 3.667969 -0.859375 C 3.894531 -1.027344 4.074219 -1.296875 4.210938 -1.671875 M 1.324219 -3.089844 L 4.21875 -3.089844 C 4.179688 -3.527344 4.070312 -3.855469 3.886719 -4.070312 C 3.605469 -4.410156 3.242188 -4.578125 2.796875 -4.578125 C 2.394531 -4.578125 2.054688 -4.445312 1.78125 -4.175781 C 1.503906 -3.90625 1.351562 -3.542969 1.324219 -3.089844 Z M 1.324219 -3.089844 "/>
</g>
<g id="glyph-1-4">
<path d="M 0.648438 0 L 0.648438 -5.1875 L 1.441406 -5.1875 L 1.441406 -4.398438 C 1.640625 -4.765625 1.828125 -5.007812 2 -5.125 C 2.171875 -5.242188 2.359375 -5.304688 2.5625 -5.304688 C 2.859375 -5.304688 3.160156 -5.207031 3.46875 -5.019531 L 3.164062 -4.203125 C 2.949219 -4.332031 2.734375 -4.394531 2.519531 -4.394531 C 2.328125 -4.394531 2.15625 -4.335938 2 -4.222656 C 1.847656 -4.105469 1.738281 -3.945312 1.675781 -3.742188 C 1.578125 -3.429688 1.527344 -3.085938 1.527344 -2.714844 L 1.527344 0 Z M 0.648438 0 "/>
</g>
<g id="glyph-1-5">
<path d="M 0.664062 -6.148438 L 0.664062 -7.15625 L 1.542969 -7.15625 L 1.542969 -6.148438 L 0.664062 -6.148438 M 0.664062 0 L 0.664062 -5.1875 L 1.542969 -5.1875 L 1.542969 0 Z M 0.664062 0 "/>
</g>
<g id="glyph-1-6">
<path d="M 0.660156 0 L 0.660156 -5.1875 L 1.445312 -5.1875 L 1.445312 -4.457031 C 1.609375 -4.710938 1.824219 -4.917969 2.09375 -5.070312 C 2.363281 -5.226562 2.671875 -5.304688 3.015625 -5.304688 C 3.402344 -5.304688 3.714844 -5.222656 3.960938 -5.0625 C 4.207031 -4.902344 4.382812 -4.679688 4.484375 -4.394531 C 4.890625 -5 5.425781 -5.304688 6.085938 -5.304688 C 6.597656 -5.304688 6.992188 -5.160156 7.269531 -4.875 C 7.546875 -4.589844 7.6875 -4.152344 7.6875 -3.558594 L 7.6875 0 L 6.8125 0 L 6.8125 -3.265625 C 6.8125 -3.617188 6.78125 -3.871094 6.726562 -4.027344 C 6.667969 -4.179688 6.566406 -4.304688 6.414062 -4.398438 C 6.265625 -4.492188 6.089844 -4.539062 5.890625 -4.539062 C 5.523438 -4.539062 5.222656 -4.417969 4.980469 -4.175781 C 4.738281 -3.933594 4.617188 -3.546875 4.617188 -3.011719 L 4.617188 0 L 3.742188 0 L 3.742188 -3.367188 C 3.742188 -3.757812 3.667969 -4.050781 3.523438 -4.25 C 3.382812 -4.441406 3.148438 -4.539062 2.820312 -4.539062 C 2.574219 -4.539062 2.347656 -4.476562 2.136719 -4.34375 C 1.925781 -4.214844 1.773438 -4.023438 1.679688 -3.773438 C 1.585938 -3.523438 1.539062 -3.164062 1.539062 -2.691406 L 1.539062 0 Z M 0.660156 0 "/>
</g>
<g id="glyph-1-7">
<path d="M 0.660156 0 L 0.660156 -5.1875 L 1.449219 -5.1875 L 1.449219 -4.449219 C 1.832031 -5.019531 2.382812 -5.304688 3.101562 -5.304688 C 3.414062 -5.304688 3.699219 -5.246094 3.960938 -5.132812 C 4.222656 -5.023438 4.421875 -4.875 4.550781 -4.691406 C 4.679688 -4.511719 4.773438 -4.292969 4.824219 -4.042969 C 4.855469 -3.878906 4.875 -3.59375 4.875 -3.1875 L 4.875 0 L 3.992188 0 L 3.992188 -3.15625 C 3.992188 -3.511719 3.960938 -3.78125 3.890625 -3.957031 C 3.824219 -4.136719 3.703125 -4.277344 3.527344 -4.382812 C 3.355469 -4.488281 3.148438 -4.539062 2.914062 -4.539062 C 2.539062 -4.539062 2.21875 -4.421875 1.945312 -4.183594 C 1.675781 -3.945312 1.539062 -3.496094 1.539062 -2.832031 L 1.539062 0 Z M 0.660156 0 "/>
</g>
<g id="glyph-1-8">
<path d="M 2.578125 -0.785156 L 2.703125 -0.0078125 C 2.457031 0.0429688 2.234375 0.0703125 2.039062 0.0703125 C 1.722656 0.0703125 1.476562 0.0195312 1.296875 -0.0820312 C 1.125 -0.183594 1 -0.316406 0.929688 -0.480469 C 0.855469 -0.644531 0.820312 -0.992188 0.820312 -1.519531 L 0.820312 -4.5 L 0.175781 -4.5 L 0.175781 -5.1875 L 0.820312 -5.1875 L 0.820312 -6.46875 L 1.695312 -6.996094 L 1.695312 -5.1875 L 2.578125 -5.1875 L 2.578125 -4.5 L 1.695312 -4.5 L 1.695312 -1.46875 C 1.695312 -1.21875 1.710938 -1.058594 1.742188 -0.984375 C 1.773438 -0.914062 1.820312 -0.859375 1.890625 -0.816406 C 1.960938 -0.773438 2.0625 -0.75 2.191406 -0.75 C 2.289062 -0.75 2.417969 -0.761719 2.578125 -0.785156 Z M 2.578125 -0.785156 "/>
</g>
<g id="glyph-1-9">
<path d="M 4.042969 -0.640625 C 3.71875 -0.363281 3.402344 -0.167969 3.101562 -0.0546875 C 2.800781 0.0585938 2.480469 0.117188 2.132812 0.117188 C 1.5625 0.117188 1.125 -0.0234375 0.820312 -0.300781 C 0.515625 -0.578125 0.359375 -0.933594 0.359375 -1.367188 C 0.359375 -1.621094 0.417969 -1.851562 0.535156 -2.0625 C 0.648438 -2.273438 0.800781 -2.441406 0.988281 -2.570312 C 1.175781 -2.695312 1.386719 -2.792969 1.621094 -2.855469 C 1.792969 -2.902344 2.054688 -2.945312 2.402344 -2.988281 C 3.113281 -3.074219 3.632812 -3.171875 3.96875 -3.289062 C 3.972656 -3.410156 3.976562 -3.488281 3.976562 -3.519531 C 3.976562 -3.878906 3.890625 -4.128906 3.726562 -4.277344 C 3.5 -4.476562 3.167969 -4.574219 2.726562 -4.574219 C 2.3125 -4.574219 2.007812 -4.503906 1.808594 -4.359375 C 1.613281 -4.214844 1.464844 -3.957031 1.371094 -3.589844 L 0.511719 -3.707031 C 0.589844 -4.074219 0.71875 -4.371094 0.898438 -4.597656 C 1.078125 -4.824219 1.335938 -4.996094 1.675781 -5.121094 C 2.011719 -5.242188 2.40625 -5.304688 2.851562 -5.304688 C 3.292969 -5.304688 3.652344 -5.25 3.929688 -5.148438 C 4.207031 -5.042969 4.410156 -4.910156 4.539062 -4.753906 C 4.671875 -4.59375 4.761719 -4.394531 4.8125 -4.15625 C 4.84375 -4.003906 4.859375 -3.734375 4.859375 -3.34375 L 4.859375 -2.171875 C 4.859375 -1.355469 4.878906 -0.839844 4.914062 -0.621094 C 4.953125 -0.40625 5.027344 -0.199219 5.136719 0 L 4.21875 0 C 4.128906 -0.183594 4.070312 -0.394531 4.042969 -0.640625 M 3.96875 -2.601562 C 3.652344 -2.472656 3.171875 -2.363281 2.535156 -2.269531 C 2.171875 -2.21875 1.917969 -2.160156 1.765625 -2.09375 C 1.617188 -2.03125 1.503906 -1.933594 1.421875 -1.808594 C 1.339844 -1.683594 1.296875 -1.542969 1.296875 -1.390625 C 1.296875 -1.15625 1.386719 -0.960938 1.566406 -0.804688 C 1.742188 -0.648438 2 -0.570312 2.34375 -0.570312 C 2.683594 -0.570312 2.984375 -0.644531 3.246094 -0.792969 C 3.511719 -0.941406 3.703125 -1.144531 3.828125 -1.402344 C 3.921875 -1.601562 3.96875 -1.894531 3.96875 -2.28125 Z M 3.96875 -2.601562 "/>
</g>
<g id="glyph-1-10">
<path d="M 0.640625 0 L 0.640625 -7.15625 L 1.519531 -7.15625 L 1.519531 0 Z M 0.640625 0 "/>
</g>
<g id="glyph-1-11">
</g>
<g id="glyph-1-12">
<path d="M 0.308594 -1.546875 L 1.175781 -1.683594 C 1.226562 -1.335938 1.363281 -1.070312 1.585938 -0.882812 C 1.808594 -0.699219 2.117188 -0.605469 2.519531 -0.605469 C 2.921875 -0.605469 3.222656 -0.6875 3.417969 -0.851562 C 3.613281 -1.015625 3.710938 -1.210938 3.710938 -1.429688 C 3.710938 -1.628906 3.625 -1.785156 3.453125 -1.898438 C 3.332031 -1.976562 3.03125 -2.078125 2.554688 -2.195312 C 1.910156 -2.359375 1.460938 -2.5 1.214844 -2.621094 C 0.964844 -2.738281 0.777344 -2.902344 0.648438 -3.113281 C 0.519531 -3.324219 0.453125 -3.554688 0.453125 -3.808594 C 0.453125 -4.039062 0.507812 -4.253906 0.613281 -4.449219 C 0.71875 -4.648438 0.863281 -4.8125 1.046875 -4.941406 C 1.179688 -5.042969 1.367188 -5.128906 1.605469 -5.199219 C 1.839844 -5.269531 2.09375 -5.304688 2.363281 -5.304688 C 2.769531 -5.304688 3.128906 -5.242188 3.433594 -5.125 C 3.742188 -5.007812 3.96875 -4.851562 4.117188 -4.652344 C 4.261719 -4.449219 4.363281 -4.183594 4.417969 -3.847656 L 3.558594 -3.730469 C 3.519531 -3.996094 3.40625 -4.207031 3.21875 -4.355469 C 3.03125 -4.503906 2.769531 -4.578125 2.425781 -4.578125 C 2.023438 -4.578125 1.734375 -4.511719 1.5625 -4.378906 C 1.390625 -4.246094 1.304688 -4.089844 1.304688 -3.910156 C 1.304688 -3.796875 1.339844 -3.695312 1.410156 -3.601562 C 1.484375 -3.507812 1.59375 -3.429688 1.75 -3.367188 C 1.835938 -3.335938 2.09375 -3.261719 2.523438 -3.144531 C 3.144531 -2.976562 3.578125 -2.84375 3.824219 -2.738281 C 4.070312 -2.632812 4.265625 -2.476562 4.40625 -2.273438 C 4.542969 -2.074219 4.613281 -1.824219 4.613281 -1.523438 C 4.613281 -1.230469 4.527344 -0.953125 4.359375 -0.695312 C 4.1875 -0.4375 3.941406 -0.238281 3.617188 -0.09375 C 3.296875 0.046875 2.929688 0.117188 2.523438 0.117188 C 1.851562 0.117188 1.335938 -0.0234375 0.984375 -0.304688 C 0.628906 -0.582031 0.40625 -0.996094 0.308594 -1.546875 Z M 0.308594 -1.546875 "/>
</g>
<g id="glyph-1-13">
<path d="M 4.042969 -1.898438 L 4.90625 -1.789062 C 4.8125 -1.191406 4.570312 -0.726562 4.183594 -0.386719 C 3.792969 -0.0507812 3.316406 0.117188 2.75 0.117188 C 2.039062 0.117188 1.46875 -0.113281 1.039062 -0.578125 C 0.605469 -1.042969 0.390625 -1.707031 0.390625 -2.574219 C 0.390625 -3.132812 0.484375 -3.625 0.667969 -4.042969 C 0.855469 -4.460938 1.136719 -4.777344 1.515625 -4.988281 C 1.894531 -5.199219 2.308594 -5.304688 2.753906 -5.304688 C 3.316406 -5.304688 3.777344 -5.160156 4.136719 -4.875 C 4.492188 -4.589844 4.722656 -4.1875 4.824219 -3.664062 L 3.96875 -3.53125 C 3.886719 -3.878906 3.746094 -4.140625 3.539062 -4.316406 C 3.332031 -4.492188 3.082031 -4.578125 2.789062 -4.578125 C 2.34375 -4.578125 1.984375 -4.421875 1.710938 -4.105469 C 1.433594 -3.785156 1.292969 -3.285156 1.292969 -2.597656 C 1.292969 -1.902344 1.425781 -1.394531 1.695312 -1.078125 C 1.960938 -0.761719 2.308594 -0.605469 2.738281 -0.605469 C 3.085938 -0.605469 3.371094 -0.710938 3.601562 -0.921875 C 3.835938 -1.132812 3.980469 -1.460938 4.042969 -1.898438 Z M 4.042969 -1.898438 "/>
</g>
<g id="glyph-1-14">
<path d="M 0.660156 0 L 0.660156 -7.15625 L 1.539062 -7.15625 L 1.539062 -4.589844 C 1.949219 -5.066406 2.464844 -5.304688 3.089844 -5.304688 C 3.476562 -5.304688 3.808594 -5.226562 4.09375 -5.074219 C 4.375 -4.925781 4.578125 -4.714844 4.699219 -4.449219 C 4.820312 -4.179688 4.882812 -3.792969 4.882812 -3.285156 L 4.882812 0 L 4.003906 0 L 4.003906 -3.285156 C 4.003906 -3.726562 3.910156 -4.046875 3.71875 -4.246094 C 3.527344 -4.445312 3.257812 -4.546875 2.910156 -4.546875 C 2.648438 -4.546875 2.40625 -4.476562 2.175781 -4.34375 C 1.945312 -4.207031 1.78125 -4.023438 1.683594 -3.792969 C 1.585938 -3.5625 1.539062 -3.242188 1.539062 -2.835938 L 1.539062 0 Z M 0.660156 0 "/>
</g>
<g id="glyph-1-15">
<path d="M 4.023438 0 L 4.023438 -0.65625 C 3.695312 -0.140625 3.210938 0.117188 2.574219 0.117188 C 2.160156 0.117188 1.78125 0.00390625 1.433594 -0.226562 C 1.085938 -0.453125 0.816406 -0.769531 0.628906 -1.179688 C 0.4375 -1.585938 0.34375 -2.058594 0.34375 -2.585938 C 0.34375 -3.105469 0.429688 -3.574219 0.601562 -3.996094 C 0.773438 -4.417969 1.03125 -4.742188 1.375 -4.964844 C 1.722656 -5.191406 2.109375 -5.304688 2.535156 -5.304688 C 2.847656 -5.304688 3.125 -5.238281 3.367188 -5.105469 C 3.613281 -4.972656 3.8125 -4.800781 3.964844 -4.589844 L 3.964844 -7.15625 L 4.839844 -7.15625 L 4.839844 0 L 4.023438 0 M 1.246094 -2.585938 C 1.246094 -1.921875 1.386719 -1.425781 1.664062 -1.097656 C 1.945312 -0.769531 2.273438 -0.605469 2.65625 -0.605469 C 3.039062 -0.605469 3.367188 -0.761719 3.636719 -1.078125 C 3.902344 -1.390625 4.039062 -1.871094 4.039062 -2.515625 C 4.039062 -3.222656 3.902344 -3.746094 3.628906 -4.078125 C 3.355469 -4.410156 3.015625 -4.574219 2.617188 -4.574219 C 2.226562 -4.574219 1.898438 -4.414062 1.636719 -4.097656 C 1.375 -3.777344 1.246094 -3.273438 1.246094 -2.585938 Z M 1.246094 -2.585938 "/>
</g>
<g id="glyph-1-16">
<path d="M 0.5 0.429688 L 1.351562 0.554688 C 1.386719 0.820312 1.488281 1.011719 1.648438 1.132812 C 1.867188 1.296875 2.167969 1.375 2.542969 1.375 C 2.949219 1.375 3.265625 1.296875 3.484375 1.132812 C 3.707031 0.96875 3.859375 0.742188 3.9375 0.449219 C 3.980469 0.269531 4.003906 -0.105469 4 -0.679688 C 3.613281 -0.226562 3.136719 0 2.5625 0 C 1.851562 0 1.296875 -0.257812 0.90625 -0.773438 C 0.515625 -1.285156 0.320312 -1.902344 0.320312 -2.621094 C 0.320312 -3.117188 0.410156 -3.574219 0.589844 -3.992188 C 0.769531 -4.410156 1.03125 -4.734375 1.371094 -4.960938 C 1.710938 -5.1875 2.109375 -5.304688 2.570312 -5.304688 C 3.179688 -5.304688 3.683594 -5.054688 4.082031 -4.5625 L 4.082031 -5.1875 L 4.890625 -5.1875 L 4.890625 -0.703125 C 4.890625 0.105469 4.808594 0.675781 4.644531 1.011719 C 4.480469 1.351562 4.222656 1.617188 3.863281 1.8125 C 3.507812 2.007812 3.070312 2.105469 2.546875 2.105469 C 1.929688 2.105469 1.429688 1.964844 1.050781 1.6875 C 0.667969 1.410156 0.484375 0.988281 0.5 0.429688 M 1.226562 -2.6875 C 1.226562 -2.003906 1.359375 -1.507812 1.632812 -1.195312 C 1.902344 -0.882812 2.238281 -0.726562 2.648438 -0.726562 C 3.050781 -0.726562 3.390625 -0.882812 3.664062 -1.195312 C 3.933594 -1.503906 4.070312 -1.992188 4.070312 -2.65625 C 4.070312 -3.289062 3.929688 -3.769531 3.648438 -4.09375 C 3.367188 -4.414062 3.027344 -4.574219 2.632812 -4.574219 C 2.242188 -4.574219 1.910156 -4.417969 1.636719 -4.097656 C 1.363281 -3.78125 1.226562 -3.3125 1.226562 -2.6875 Z M 1.226562 -2.6875 "/>
</g>
<g id="glyph-1-17">
<path d="M 2.304688 -1.761719 C 2.300781 -1.878906 2.300781 -1.96875 2.300781 -2.027344 C 2.300781 -2.371094 2.347656 -2.667969 2.445312 -2.921875 C 2.519531 -3.109375 2.632812 -3.300781 2.792969 -3.492188 C 2.910156 -3.632812 3.121094 -3.835938 3.425781 -4.105469 C 3.730469 -4.371094 3.925781 -4.585938 4.019531 -4.746094 C 4.109375 -4.90625 4.15625 -5.078125 4.15625 -5.269531 C 4.15625 -5.609375 4.023438 -5.910156 3.753906 -6.167969 C 3.488281 -6.429688 3.160156 -6.558594 2.773438 -6.558594 C 2.398438 -6.558594 2.085938 -6.441406 1.835938 -6.207031 C 1.585938 -5.972656 1.421875 -5.605469 1.34375 -5.109375 L 0.4375 -5.214844 C 0.519531 -5.882812 0.761719 -6.394531 1.164062 -6.75 C 1.566406 -7.101562 2.097656 -7.28125 2.757812 -7.28125 C 3.457031 -7.28125 4.015625 -7.089844 4.433594 -6.710938 C 4.851562 -6.328125 5.058594 -5.867188 5.058594 -5.328125 C 5.058594 -5.015625 4.984375 -4.726562 4.839844 -4.460938 C 4.691406 -4.199219 4.40625 -3.878906 3.980469 -3.5 C 3.691406 -3.246094 3.507812 -3.058594 3.417969 -2.9375 C 3.328125 -2.820312 3.265625 -2.679688 3.222656 -2.523438 C 3.179688 -2.367188 3.15625 -2.113281 3.148438 -1.761719 L 2.304688 -1.761719 M 2.25 0 L 2.25 -1 L 3.25 -1 L 3.25 0 Z M 2.25 0 "/>
</g>
<g id="glyph-1-18">
<path d="M 0.820312 0 L 0.820312 -7.15625 L 5.648438 -7.15625 L 5.648438 -6.3125 L 1.765625 -6.3125 L 1.765625 -4.097656 L 5.125 -4.097656 L 5.125 -3.25 L 1.765625 -3.25 L 1.765625 0 Z M 0.820312 0 "/>
</g>
<g id="glyph-1-19">
<path d="M 0.332031 -2.59375 C 0.332031 -3.554688 0.597656 -4.265625 1.132812 -4.726562 C 1.578125 -5.109375 2.121094 -5.304688 2.765625 -5.304688 C 3.476562 -5.304688 4.058594 -5.070312 4.511719 -4.601562 C 4.964844 -4.136719 5.191406 -3.488281 5.191406 -2.664062 C 5.191406 -2 5.089844 -1.472656 4.890625 -1.089844 C 4.691406 -0.707031 4.398438 -0.410156 4.015625 -0.199219 C 3.632812 0.0117188 3.214844 0.117188 2.765625 0.117188 C 2.039062 0.117188 1.449219 -0.117188 1.003906 -0.582031 C 0.554688 -1.046875 0.332031 -1.71875 0.332031 -2.59375 M 1.234375 -2.59375 C 1.234375 -1.929688 1.378906 -1.429688 1.671875 -1.101562 C 1.960938 -0.769531 2.324219 -0.605469 2.765625 -0.605469 C 3.199219 -0.605469 3.5625 -0.773438 3.851562 -1.101562 C 4.140625 -1.4375 4.289062 -1.941406 4.289062 -2.621094 C 4.289062 -3.261719 4.140625 -3.75 3.851562 -4.078125 C 3.558594 -4.410156 3.195312 -4.574219 2.765625 -4.574219 C 2.324219 -4.574219 1.960938 -4.410156 1.671875 -4.082031 C 1.378906 -3.753906 1.234375 -3.257812 1.234375 -2.59375 Z M 1.234375 -2.59375 "/>
</g>
<g id="glyph-1-20">
<path d="M 1.617188 0 L 0.03125 -5.1875 L 0.9375 -5.1875 L 1.761719 -2.191406 L 2.070312 -1.078125 C 2.082031 -1.132812 2.171875 -1.492188 2.339844 -2.148438 L 3.164062 -5.1875 L 4.066406 -5.1875 L 4.84375 -2.179688 L 5.101562 -1.1875 L 6.289062 -5.1875 L 7.144531 -5.1875 L 5.523438 0 L 4.609375 0 L 3.785156 -3.105469 L 3.585938 -3.988281 L 2.535156 0 Z M 1.617188 0 "/>
</g>
<g id="glyph-1-21">
<path d="M 4.058594 0 L 4.058594 -0.761719 C 3.652344 -0.175781 3.105469 0.117188 2.414062 0.117188 C 2.105469 0.117188 1.820312 0.0585938 1.554688 -0.0585938 C 1.289062 -0.175781 1.09375 -0.324219 0.964844 -0.5 C 0.835938 -0.679688 0.746094 -0.894531 0.695312 -1.152344 C 0.65625 -1.324219 0.640625 -1.597656 0.640625 -1.972656 L 0.640625 -5.1875 L 1.519531 -5.1875 L 1.519531 -2.308594 C 1.519531 -1.851562 1.535156 -1.542969 1.570312 -1.382812 C 1.628906 -1.152344 1.746094 -0.96875 1.921875 -0.835938 C 2.101562 -0.707031 2.324219 -0.640625 2.585938 -0.640625 C 2.851562 -0.640625 3.097656 -0.707031 3.328125 -0.84375 C 3.5625 -0.976562 3.726562 -1.160156 3.820312 -1.394531 C 3.917969 -1.625 3.964844 -1.964844 3.964844 -2.40625 L 3.964844 -5.1875 L 4.84375 -5.1875 L 4.84375 0 Z M 4.058594 0 "/>
</g>
<g id="glyph-1-22">
<path d="M 0.773438 0 L 0.773438 -7.15625 L 3.472656 -7.15625 C 3.945312 -7.15625 4.308594 -7.136719 4.5625 -7.089844 C 4.914062 -7.03125 5.207031 -6.917969 5.445312 -6.753906 C 5.683594 -6.589844 5.875 -6.359375 6.019531 -6.0625 C 6.164062 -5.769531 6.234375 -5.441406 6.234375 -5.085938 C 6.234375 -4.480469 6.042969 -3.964844 5.65625 -3.542969 C 5.265625 -3.121094 4.566406 -2.910156 3.554688 -2.910156 L 1.71875 -2.910156 L 1.71875 0 L 0.773438 0 M 1.71875 -3.753906 L 3.570312 -3.753906 C 4.179688 -3.753906 4.617188 -3.867188 4.875 -4.097656 C 5.128906 -4.324219 5.257812 -4.644531 5.257812 -5.058594 C 5.257812 -5.359375 5.183594 -5.613281 5.03125 -5.828125 C 4.878906 -6.039062 4.679688 -6.179688 4.433594 -6.25 C 4.273438 -6.292969 3.980469 -6.3125 3.550781 -6.3125 L 1.71875 -6.3125 Z M 1.71875 -3.753906 "/>
</g>
<g id="glyph-1-23">
<path d="M 0.449219 -2.300781 L 1.34375 -2.378906 C 1.386719 -2.019531 1.484375 -1.726562 1.636719 -1.496094 C 1.792969 -1.265625 2.03125 -1.082031 2.359375 -0.941406 C 2.683594 -0.796875 3.050781 -0.726562 3.457031 -0.726562 C 3.816406 -0.726562 4.136719 -0.78125 4.414062 -0.890625 C 4.691406 -0.996094 4.898438 -1.144531 5.03125 -1.332031 C 5.167969 -1.519531 5.234375 -1.722656 5.234375 -1.945312 C 5.234375 -2.167969 5.167969 -2.363281 5.039062 -2.53125 C 4.910156 -2.699219 4.695312 -2.839844 4.394531 -2.953125 C 4.203125 -3.027344 3.777344 -3.144531 3.121094 -3.304688 C 2.460938 -3.460938 2 -3.609375 1.738281 -3.75 C 1.398438 -3.929688 1.140625 -4.152344 0.972656 -4.417969 C 0.804688 -4.683594 0.722656 -4.980469 0.722656 -5.308594 C 0.722656 -5.667969 0.824219 -6.007812 1.03125 -6.320312 C 1.234375 -6.636719 1.535156 -6.875 1.929688 -7.035156 C 2.324219 -7.199219 2.761719 -7.28125 3.242188 -7.28125 C 3.773438 -7.28125 4.242188 -7.195312 4.644531 -7.023438 C 5.050781 -6.851562 5.363281 -6.601562 5.582031 -6.269531 C 5.800781 -5.9375 5.917969 -5.5625 5.933594 -5.140625 L 5.023438 -5.074219 C 4.976562 -5.527344 4.808594 -5.867188 4.527344 -6.097656 C 4.246094 -6.328125 3.832031 -6.445312 3.28125 -6.445312 C 2.707031 -6.445312 2.289062 -6.339844 2.027344 -6.128906 C 1.765625 -5.921875 1.636719 -5.667969 1.636719 -5.371094 C 1.636719 -5.113281 1.726562 -4.902344 1.914062 -4.734375 C 2.097656 -4.570312 2.574219 -4.398438 3.34375 -4.226562 C 4.113281 -4.050781 4.640625 -3.898438 4.925781 -3.769531 C 5.34375 -3.578125 5.652344 -3.335938 5.851562 -3.039062 C 6.046875 -2.746094 6.148438 -2.40625 6.148438 -2.023438 C 6.148438 -1.640625 6.039062 -1.28125 5.820312 -0.945312 C 5.601562 -0.609375 5.289062 -0.347656 4.878906 -0.160156 C 4.472656 0.0273438 4.011719 0.121094 3.5 0.121094 C 2.851562 0.121094 2.308594 0.0273438 1.871094 -0.160156 C 1.433594 -0.351562 1.089844 -0.632812 0.84375 -1.011719 C 0.59375 -1.390625 0.460938 -1.820312 0.449219 -2.300781 Z M 0.449219 -2.300781 "/>
</g>
<g id="glyph-1-24">
<path d="M 1.46875 0 L 0.65625 0 L 0.65625 -7.15625 L 1.53125 -7.15625 L 1.53125 -4.605469 C 1.90625 -5.070312 2.378906 -5.304688 2.953125 -5.304688 C 3.273438 -5.304688 3.574219 -5.238281 3.859375 -5.109375 C 4.144531 -4.980469 4.378906 -4.800781 4.5625 -4.566406 C 4.746094 -4.335938 4.890625 -4.054688 4.996094 -3.726562 C 5.097656 -3.398438 5.152344 -3.046875 5.152344 -2.671875 C 5.152344 -1.78125 4.929688 -1.09375 4.492188 -0.609375 C 4.054688 -0.125 3.523438 0.117188 2.910156 0.117188 C 2.296875 0.117188 1.816406 -0.136719 1.46875 -0.648438 L 1.46875 0 M 1.460938 -2.632812 C 1.460938 -2.011719 1.542969 -1.5625 1.714844 -1.285156 C 1.992188 -0.832031 2.363281 -0.605469 2.835938 -0.605469 C 3.222656 -0.605469 3.554688 -0.773438 3.832031 -1.105469 C 4.113281 -1.441406 4.253906 -1.9375 4.253906 -2.597656 C 4.253906 -3.273438 4.117188 -3.773438 3.851562 -4.097656 C 3.582031 -4.417969 3.257812 -4.578125 2.875 -4.578125 C 2.492188 -4.578125 2.160156 -4.414062 1.878906 -4.078125 C 1.601562 -3.746094 1.460938 -3.261719 1.460938 -2.632812 Z M 1.460938 -2.632812 "/>
</g>
<g id="glyph-1-25">
<path d="M 0.867188 0 L 0.867188 -4.5 L 0.09375 -4.5 L 0.09375 -5.1875 L 0.867188 -5.1875 L 0.867188 -5.738281 C 0.867188 -6.085938 0.898438 -6.34375 0.960938 -6.515625 C 1.046875 -6.742188 1.195312 -6.925781 1.410156 -7.066406 C 1.621094 -7.210938 1.921875 -7.28125 2.304688 -7.28125 C 2.550781 -7.28125 2.824219 -7.25 3.125 -7.191406 L 2.992188 -6.425781 C 2.8125 -6.457031 2.636719 -6.476562 2.476562 -6.476562 C 2.207031 -6.476562 2.019531 -6.417969 1.910156 -6.304688 C 1.796875 -6.191406 1.742188 -5.976562 1.742188 -5.664062 L 1.742188 -5.1875 L 2.753906 -5.1875 L 2.753906 -4.5 L 1.742188 -4.5 L 1.742188 0 Z M 0.867188 0 "/>
</g>
<g id="glyph-2-0">
<path d="M 0 -0.648438 L -5.1875 -0.648438 L -5.1875 -1.441406 L -4.398438 -1.441406 C -4.765625 -1.640625 -5.007812 -1.828125 -5.125 -2 C -5.242188 -2.171875 -5.304688 -2.359375 -5.304688 -2.5625 C -5.304688 -2.859375 -5.207031 -3.160156 -5.019531 -3.46875 L -4.203125 -3.164062 C -4.332031 -2.949219 -4.394531 -2.734375 -4.394531 -2.519531 C -4.394531 -2.328125 -4.335938 -2.15625 -4.222656 -2.003906 C -4.105469 -1.847656 -3.945312 -1.738281 -3.742188 -1.675781 C -3.429688 -1.578125 -3.085938 -1.527344 -2.714844 -1.527344 L 0 -1.527344 Z M 0 -0.648438 "/>
</g>
<g id="glyph-2-1">
<path d="M -1.667969 -4.210938 L -1.558594 -5.117188 C -1.027344 -4.972656 -0.613281 -4.707031 -0.320312 -4.320312 C -0.03125 -3.933594 0.117188 -3.4375 0.117188 -2.835938 C 0.117188 -2.078125 -0.117188 -1.476562 -0.582031 -1.03125 C -1.050781 -0.589844 -1.707031 -0.367188 -2.546875 -0.367188 C -3.421875 -0.367188 -4.097656 -0.589844 -4.578125 -1.039062 C -5.0625 -1.488281 -5.304688 -2.070312 -5.304688 -2.789062 C -5.304688 -3.480469 -5.066406 -4.046875 -4.59375 -4.488281 C -4.121094 -4.925781 -3.457031 -5.148438 -2.601562 -5.148438 C -2.550781 -5.148438 -2.472656 -5.144531 -2.367188 -5.140625 L -2.367188 -1.273438 C -1.796875 -1.308594 -1.363281 -1.46875 -1.058594 -1.757812 C -0.757812 -2.046875 -0.605469 -2.410156 -0.605469 -2.84375 C -0.605469 -3.164062 -0.691406 -3.4375 -0.859375 -3.667969 C -1.027344 -3.894531 -1.296875 -4.074219 -1.667969 -4.210938 M -3.089844 -1.324219 L -3.089844 -4.21875 C -3.527344 -4.179688 -3.855469 -4.070312 -4.070312 -3.886719 C -4.410156 -3.605469 -4.578125 -3.242188 -4.578125 -2.796875 C -4.578125 -2.394531 -4.445312 -2.054688 -4.175781 -1.78125 C -3.90625 -1.503906 -3.542969 -1.351562 -3.089844 -1.324219 Z M -3.089844 -1.324219 "/>
</g>
<g id="glyph-2-2">
<path d="M -1.546875 -0.308594 L -1.683594 -1.175781 C -1.335938 -1.226562 -1.070312 -1.363281 -0.882812 -1.585938 C -0.699219 -1.808594 -0.605469 -2.117188 -0.605469 -2.519531 C -0.605469 -2.921875 -0.6875 -3.222656 -0.851562 -3.417969 C -1.015625 -3.613281 -1.210938 -3.710938 -1.429688 -3.710938 C -1.628906 -3.710938 -1.785156 -3.625 -1.898438 -3.453125 C -1.976562 -3.332031 -2.078125 -3.03125 -2.195312 -2.554688 C -2.359375 -1.910156 -2.5 -1.460938 -2.621094 -1.214844 C -2.738281 -0.964844 -2.902344 -0.777344 -3.113281 -0.648438 C -3.324219 -0.519531 -3.554688 -0.453125 -3.808594 -0.453125 C -4.039062 -0.453125 -4.253906 -0.507812 -4.449219 -0.613281 C -4.648438 -0.71875 -4.8125 -0.863281 -4.941406 -1.046875 C -5.042969 -1.183594 -5.128906 -1.367188 -5.199219 -1.605469 C -5.269531 -1.839844 -5.304688 -2.09375 -5.304688 -2.363281 C -5.304688 -2.769531 -5.242188 -3.128906 -5.125 -3.433594 C -5.007812 -3.742188 -4.851562 -3.96875 -4.652344 -4.117188 C -4.449219 -4.261719 -4.183594 -4.363281 -3.847656 -4.417969 L -3.730469 -3.558594 C -3.996094 -3.519531 -4.207031 -3.40625 -4.355469 -3.21875 C -4.503906 -3.03125 -4.578125 -2.769531 -4.578125 -2.425781 C -4.578125 -2.023438 -4.511719 -1.734375 -4.378906 -1.5625 C -4.246094 -1.390625 -4.089844 -1.304688 -3.910156 -1.304688 C -3.796875 -1.304688 -3.695312 -1.339844 -3.601562 -1.410156 C -3.507812 -1.484375 -3.429688 -1.59375 -3.367188 -1.75 C -3.335938 -1.835938 -3.261719 -2.09375 -3.144531 -2.523438 C -2.976562 -3.144531 -2.84375 -3.578125 -2.738281 -3.824219 C -2.632812 -4.070312 -2.476562 -4.265625 -2.273438 -4.40625 C -2.074219 -4.542969 -1.824219 -4.613281 -1.523438 -4.613281 C -1.230469 -4.613281 -0.953125 -4.527344 -0.695312 -4.359375 C -0.4375 -4.1875 -0.238281 -3.941406 -0.09375 -3.617188 C 0.046875 -3.296875 0.117188 -2.929688 0.117188 -2.523438 C 0.117188 -1.851562 -0.0234375 -1.335938 -0.300781 -0.984375 C -0.582031 -0.628906 -0.996094 -0.40625 -1.546875 -0.308594 Z M -1.546875 -0.308594 "/>
</g>
<g id="glyph-2-3">
<path d="M -6.148438 -0.664062 L -7.15625 -0.664062 L -7.15625 -1.542969 L -6.148438 -1.542969 L -6.148438 -0.664062 M 0 -0.664062 L -5.1875 -0.664062 L -5.1875 -1.542969 L 0 -1.542969 Z M 0 -0.664062 "/>
</g>
<g id="glyph-2-4">
<path d="M 0 -4.023438 L -0.652344 -4.023438 C -0.140625 -3.695312 0.117188 -3.210938 0.117188 -2.574219 C 0.117188 -2.160156 0.00390625 -1.78125 -0.222656 -1.433594 C -0.453125 -1.085938 -0.769531 -0.816406 -1.179688 -0.628906 C -1.585938 -0.4375 -2.058594 -0.34375 -2.585938 -0.34375 C -3.105469 -0.34375 -3.574219 -0.429688 -3.996094 -0.601562 C -4.417969 -0.773438 -4.742188 -1.03125 -4.964844 -1.378906 C -5.191406 -1.722656 -5.304688 -2.109375 -5.304688 -2.535156 C -5.304688 -2.847656 -5.238281 -3.125 -5.105469 -3.371094 C -4.972656 -3.613281 -4.800781 -3.8125 -4.589844 -3.964844 L -7.15625 -3.964844 L -7.15625 -4.839844 L 0 -4.839844 L 0 -4.023438 M -2.585938 -1.246094 C -1.921875 -1.246094 -1.425781 -1.386719 -1.097656 -1.664062 C -0.769531 -1.945312 -0.605469 -2.273438 -0.605469 -2.65625 C -0.605469 -3.039062 -0.761719 -3.367188 -1.078125 -3.636719 C -1.390625 -3.902344 -1.871094 -4.039062 -2.515625 -4.039062 C -3.222656 -4.039062 -3.746094 -3.902344 -4.078125 -3.628906 C -4.410156 -3.355469 -4.574219 -3.019531 -4.574219 -2.617188 C -4.574219 -2.226562 -4.414062 -1.898438 -4.097656 -1.636719 C -3.777344 -1.375 -3.273438 -1.246094 -2.585938 -1.246094 Z M -2.585938 -1.246094 "/>
</g>
<g id="glyph-2-5">
<path d="M 0 -4.058594 L -0.761719 -4.058594 C -0.175781 -3.652344 0.117188 -3.105469 0.117188 -2.414062 C 0.117188 -2.105469 0.0585938 -1.820312 -0.0585938 -1.554688 C -0.175781 -1.289062 -0.324219 -1.09375 -0.5 -0.964844 C -0.679688 -0.835938 -0.894531 -0.746094 -1.152344 -0.695312 C -1.324219 -0.65625 -1.597656 -0.640625 -1.972656 -0.640625 L -5.1875 -0.640625 L -5.1875 -1.519531 L -2.308594 -1.519531 C -1.851562 -1.519531 -1.542969 -1.535156 -1.382812 -1.570312 C -1.152344 -1.628906 -0.96875 -1.746094 -0.835938 -1.921875 C -0.707031 -2.101562 -0.640625 -2.324219 -0.640625 -2.585938 C -0.640625 -2.851562 -0.707031 -3.097656 -0.84375 -3.328125 C -0.976562 -3.5625 -1.160156 -3.726562 -1.394531 -3.820312 C -1.625 -3.917969 -1.964844 -3.964844 -2.40625 -3.964844 L -5.1875 -3.964844 L -5.1875 -4.84375 L 0 -4.84375 Z M 0 -4.058594 "/>
</g>
<g id="glyph-2-6">
<path d="M -0.640625 -4.042969 C -0.363281 -3.71875 -0.167969 -3.402344 -0.0546875 -3.101562 C 0.0585938 -2.800781 0.117188 -2.480469 0.117188 -2.132812 C 0.117188 -1.5625 -0.0234375 -1.125 -0.300781 -0.820312 C -0.578125 -0.515625 -0.933594 -0.363281 -1.367188 -0.363281 C -1.621094 -0.363281 -1.851562 -0.417969 -2.0625 -0.535156 C -2.273438 -0.648438 -2.441406 -0.800781 -2.570312 -0.988281 C -2.695312 -1.175781 -2.792969 -1.386719 -2.855469 -1.621094 C -2.902344 -1.792969 -2.945312 -2.054688 -2.988281 -2.402344 C -3.074219 -3.113281 -3.171875 -3.632812 -3.289062 -3.96875 C -3.410156 -3.972656 -3.488281 -3.976562 -3.519531 -3.976562 C -3.878906 -3.976562 -4.128906 -3.890625 -4.277344 -3.726562 C -4.476562 -3.5 -4.574219 -3.167969 -4.574219 -2.726562 C -4.574219 -2.3125 -4.503906 -2.007812 -4.359375 -1.808594 C -4.214844 -1.613281 -3.957031 -1.464844 -3.589844 -1.371094 L -3.707031 -0.511719 C -4.074219 -0.589844 -4.371094 -0.71875 -4.597656 -0.898438 C -4.824219 -1.078125 -4.996094 -1.335938 -5.121094 -1.675781 C -5.242188 -2.011719 -5.304688 -2.40625 -5.304688 -2.851562 C -5.304688 -3.292969 -5.25 -3.652344 -5.148438 -3.929688 C -5.042969 -4.207031 -4.910156 -4.410156 -4.753906 -4.539062 C -4.59375 -4.671875 -4.394531 -4.761719 -4.15625 -4.8125 C -4.003906 -4.84375 -3.734375 -4.859375 -3.34375 -4.859375 L -2.171875 -4.859375 C -1.355469 -4.859375 -0.839844 -4.878906 -0.621094 -4.914062 C -0.40625 -4.953125 -0.199219 -5.027344 0 -5.136719 L 0 -4.21875 C -0.183594 -4.128906 -0.394531 -4.070312 -0.640625 -4.042969 M -2.601562 -3.96875 C -2.472656 -3.652344 -2.363281 -3.171875 -2.269531 -2.535156 C -2.21875 -2.171875 -2.160156 -1.917969 -2.09375 -1.769531 C -2.03125 -1.617188 -1.933594 -1.503906 -1.808594 -1.421875 C -1.683594 -1.339844 -1.542969 -1.296875 -1.390625 -1.296875 C -1.15625 -1.296875 -0.960938 -1.386719 -0.804688 -1.566406 C -0.648438 -1.742188 -0.570312 -2 -0.570312 -2.34375 C -0.570312 -2.683594 -0.644531 -2.984375 -0.792969 -3.246094 C -0.941406 -3.511719 -1.144531 -3.703125 -1.402344 -3.828125 C -1.601562 -3.921875 -1.894531 -3.96875 -2.28125 -3.96875 Z M -2.601562 -3.96875 "/>
</g>
<g id="glyph-2-7">
<path d="M 0 -0.640625 L -7.15625 -0.640625 L -7.15625 -1.519531 L 0 -1.519531 Z M 0 -0.640625 "/>
</g>
</g>
<clipPath id="clip-0">
<path clip-rule="nonzero" d="M 35.929688 190 L 391.015625 190 L 391.015625 191 L 35.929688 191 Z M 35.929688 190 "/>
</clipPath>
<clipPath id="clip-1">
<path clip-rule="nonzero" d="M 35.929688 117 L 391.015625 117 L 391.015625 118 L 35.929688 118 Z M 35.929688 117 "/>
</clipPath>
<clipPath id="clip-2">
<path clip-rule="nonzero" d="M 35.929688 44 L 391.015625 44 L 391.015625 45 L 35.929688 45 Z M 35.929688 44 "/>
</clipPath>
<clipPath id="clip-3">
<path clip-rule="nonzero" d="M 35.929688 153 L 391.015625 153 L 391.015625 155 L 35.929688 155 Z M 35.929688 153 "/>
</clipPath>
<clipPath id="clip-4">
<path clip-rule="nonzero" d="M 35.929688 80 L 391.015625 80 L 391.015625 82 L 35.929688 82 Z M 35.929688 80 "/>
</clipPath>
<clipPath id="clip-5">
<path clip-rule="nonzero" d="M 35.929688 7 L 391.015625 7 L 391.015625 9 L 35.929688 9 Z M 35.929688 7 "/>
</clipPath>
<clipPath id="clip-6">
<path clip-rule="nonzero" d="M 132 4.980469 L 134 4.980469 L 134 221.523438 L 132 221.523438 Z M 132 4.980469 "/>
</clipPath>
<clipPath id="clip-7">
<path clip-rule="nonzero" d="M 293 4.980469 L 295 4.980469 L 295 221.523438 L 293 221.523438 Z M 293 4.980469 "/>
</clipPath>
<clipPath id="clip-8">
<path clip-rule="nonzero" d="M 35.929688 80 L 391.015625 80 L 391.015625 82 L 35.929688 82 Z M 35.929688 80 "/>
</clipPath>
<clipPath id="clip-9">
<path clip-rule="nonzero" d="M 431.929688 190 L 787.015625 190 L 787.015625 191 L 431.929688 191 Z M 431.929688 190 "/>
</clipPath>
<clipPath id="clip-10">
<path clip-rule="nonzero" d="M 431.929688 117 L 787.015625 117 L 787.015625 118 L 431.929688 118 Z M 431.929688 117 "/>
</clipPath>
<clipPath id="clip-11">
<path clip-rule="nonzero" d="M 431.929688 44 L 787.015625 44 L 787.015625 45 L 431.929688 45 Z M 431.929688 44 "/>
</clipPath>
<clipPath id="clip-12">
<path clip-rule="nonzero" d="M 431.929688 153 L 787.015625 153 L 787.015625 155 L 431.929688 155 Z M 431.929688 153 "/>
</clipPath>
<clipPath id="clip-13">
<path clip-rule="nonzero" d="M 431.929688 80 L 787.015625 80 L 787.015625 82 L 431.929688 82 Z M 431.929688 80 "/>
</clipPath>
<clipPath id="clip-14">
<path clip-rule="nonzero" d="M 431.929688 7 L 787.015625 7 L 787.015625 9 L 431.929688 9 Z M 431.929688 7 "/>
</clipPath>
<clipPath id="clip-15">
<path clip-rule="nonzero" d="M 528 4.980469 L 530 4.980469 L 530 221.523438 L 528 221.523438 Z M 528 4.980469 "/>
</clipPath>
<clipPath id="clip-16">
<path clip-rule="nonzero" d="M 689 4.980469 L 691 4.980469 L 691 221.523438 L 689 221.523438 Z M 689 4.980469 "/>
</clipPath>
<clipPath id="clip-17">
<path clip-rule="nonzero" d="M 431.929688 80 L 787.015625 80 L 787.015625 82 L 431.929688 82 Z M 431.929688 80 "/>
</clipPath>
<clipPath id="clip-18">
<path clip-rule="nonzero" d="M 35.929688 442 L 391.015625 442 L 391.015625 443 L 35.929688 443 Z M 35.929688 442 "/>
</clipPath>
<clipPath id="clip-19">
<path clip-rule="nonzero" d="M 35.929688 369 L 391.015625 369 L 391.015625 370 L 35.929688 370 Z M 35.929688 369 "/>
</clipPath>
<clipPath id="clip-20">
<path clip-rule="nonzero" d="M 35.929688 296 L 391.015625 296 L 391.015625 297 L 35.929688 297 Z M 35.929688 296 "/>
</clipPath>
<clipPath id="clip-21">
<path clip-rule="nonzero" d="M 35.929688 405 L 391.015625 405 L 391.015625 407 L 35.929688 407 Z M 35.929688 405 "/>
</clipPath>
<clipPath id="clip-22">
<path clip-rule="nonzero" d="M 35.929688 332 L 391.015625 332 L 391.015625 334 L 35.929688 334 Z M 35.929688 332 "/>
</clipPath>
<clipPath id="clip-23">
<path clip-rule="nonzero" d="M 35.929688 259 L 391.015625 259 L 391.015625 261 L 35.929688 261 Z M 35.929688 259 "/>
</clipPath>
<clipPath id="clip-24">
<path clip-rule="nonzero" d="M 132 256.980469 L 134 256.980469 L 134 473.523438 L 132 473.523438 Z M 132 256.980469 "/>
</clipPath>
<clipPath id="clip-25">
<path clip-rule="nonzero" d="M 293 256.980469 L 295 256.980469 L 295 473.523438 L 293 473.523438 Z M 293 256.980469 "/>
</clipPath>
<clipPath id="clip-26">
<path clip-rule="nonzero" d="M 35.929688 332 L 391.015625 332 L 391.015625 334 L 35.929688 334 Z M 35.929688 332 "/>
</clipPath>
<clipPath id="clip-27">
<path clip-rule="nonzero" d="M 431.929688 442 L 787.015625 442 L 787.015625 443 L 431.929688 443 Z M 431.929688 442 "/>
</clipPath>
<clipPath id="clip-28">
<path clip-rule="nonzero" d="M 431.929688 369 L 787.015625 369 L 787.015625 370 L 431.929688 370 Z M 431.929688 369 "/>
</clipPath>
<clipPath id="clip-29">
<path clip-rule="nonzero" d="M 431.929688 296 L 787.015625 296 L 787.015625 297 L 431.929688 297 Z M 431.929688 296 "/>
</clipPath>
<clipPath id="clip-30">
<path clip-rule="nonzero" d="M 431.929688 405 L 787.015625 405 L 787.015625 407 L 431.929688 407 Z M 431.929688 405 "/>
</clipPath>
<clipPath id="clip-31">
<path clip-rule="nonzero" d="M 431.929688 332 L 787.015625 332 L 787.015625 334 L 431.929688 334 Z M 431.929688 332 "/>
</clipPath>
<clipPath id="clip-32">
<path clip-rule="nonzero" d="M 431.929688 259 L 787.015625 259 L 787.015625 261 L 431.929688 261 Z M 431.929688 259 "/>
</clipPath>
<clipPath id="clip-33">
<path clip-rule="nonzero" d="M 461 256.980469 L 463 256.980469 L 463 473.523438 L 461 473.523438 Z M 461 256.980469 "/>
</clipPath>
<clipPath id="clip-34">
<path clip-rule="nonzero" d="M 510 256.980469 L 512 256.980469 L 512 473.523438 L 510 473.523438 Z M 510 256.980469 "/>
</clipPath>
<clipPath id="clip-35">
<path clip-rule="nonzero" d="M 559 256.980469 L 561 256.980469 L 561 473.523438 L 559 473.523438 Z M 559 256.980469 "/>
</clipPath>
<clipPath id="clip-36">
<path clip-rule="nonzero" d="M 608 256.980469 L 610 256.980469 L 610 473.523438 L 608 473.523438 Z M 608 256.980469 "/>
</clipPath>
<clipPath id="clip-37">
<path clip-rule="nonzero" d="M 658 256.980469 L 660 256.980469 L 660 473.523438 L 658 473.523438 Z M 658 256.980469 "/>
</clipPath>
<clipPath id="clip-38">
<path clip-rule="nonzero" d="M 707 256.980469 L 709 256.980469 L 709 473.523438 L 707 473.523438 Z M 707 256.980469 "/>
</clipPath>
<clipPath id="clip-39">
<path clip-rule="nonzero" d="M 756 256.980469 L 758 256.980469 L 758 473.523438 L 756 473.523438 Z M 756 256.980469 "/>
</clipPath>
<clipPath id="clip-40">
<path clip-rule="nonzero" d="M 431.929688 332 L 787.015625 332 L 787.015625 334 L 431.929688 334 Z M 431.929688 332 "/>
</clipPath>
</defs>
<rect x="-79.2" y="-50.4" width="950.4" height="604.8" fill="rgb(100%, 100%, 100%)" fill-opacity="1"/>
<path fill-rule="nonzero" fill="rgb(100%, 100%, 100%)" fill-opacity="1" d="M 0 252 L 396 252 L 396 0 L 0 0 Z M 0 252 "/>
<g clip-path="url(#clip-0)">
<path fill="none" stroke-width="0.48499" stroke-linecap="butt" stroke-linejoin="round" stroke="rgb(92.156863%, 92.156863%, 92.156863%)" stroke-opacity="1" stroke-miterlimit="10" d="M 35.929688 190.683594 L 391.019531 190.683594 "/>
</g>
<g clip-path="url(#clip-1)">
<path fill="none" stroke-width="0.48499" stroke-linecap="butt" stroke-linejoin="round" stroke="rgb(92.156863%, 92.156863%, 92.156863%)" stroke-opacity="1" stroke-miterlimit="10" d="M 35.929688 117.542969 L 391.019531 117.542969 "/>
</g>
<g clip-path="url(#clip-2)">
<path fill="none" stroke-width="0.48499" stroke-linecap="butt" stroke-linejoin="round" stroke="rgb(92.156863%, 92.156863%, 92.156863%)" stroke-opacity="1" stroke-miterlimit="10" d="M 35.929688 44.398438 L 391.019531 44.398438 "/>
</g>
<g clip-path="url(#clip-3)">
<path fill="none" stroke-width="0.96998" stroke-linecap="butt" stroke-linejoin="round" stroke="rgb(92.156863%, 92.156863%, 92.156863%)" stroke-opacity="1" stroke-miterlimit="10" d="M 35.929688 154.113281 L 391.019531 154.113281 "/>
</g>
<g clip-path="url(#clip-4)">
<path fill="none" stroke-width="0.96998" stroke-linecap="butt" stroke-linejoin="round" stroke="rgb(92.156863%, 92.156863%, 92.156863%)" stroke-opacity="1" stroke-miterlimit="10" d="M 35.929688 80.96875 L 391.019531 80.96875 "/>
</g>
<g clip-path="url(#clip-5)">
<path fill="none" stroke-width="0.96998" stroke-linecap="butt" stroke-linejoin="round" stroke="rgb(92.156863%, 92.156863%, 92.156863%)" stroke-opacity="1" stroke-miterlimit="10" d="M 35.929688 7.828125 L 391.019531 7.828125 "/>
</g>
<g clip-path="url(#clip-6)">
<path fill="none" stroke-width="0.96998" stroke-linecap="butt" stroke-linejoin="round" stroke="rgb(92.156863%, 92.156863%, 92.156863%)" stroke-opacity="1" stroke-miterlimit="10" d="M 132.773438 221.523438 L 132.773438 4.980469 "/>
</g>
<g clip-path="url(#clip-7)">
<path fill="none" stroke-width="0.96998" stroke-linecap="butt" stroke-linejoin="round" stroke="rgb(92.156863%, 92.156863%, 92.156863%)" stroke-opacity="1" stroke-miterlimit="10" d="M 294.175781 221.523438 L 294.175781 4.980469 "/>
</g>
<path fill-rule="nonzero" fill="rgb(20%, 20%, 20%)" fill-opacity="1" stroke-width="0.708661" stroke-linecap="round" stroke-linejoin="round" stroke="rgb(20%, 20%, 20%)" stroke-opacity="1" stroke-miterlimit="10" d="M 134.582031 160.445312 C 134.582031 162.855469 130.964844 162.855469 130.964844 160.445312 C 130.964844 158.03125 134.582031 158.03125 134.582031 160.445312 "/>
<path fill-rule="nonzero" fill="rgb(20%, 20%, 20%)" fill-opacity="1" stroke-width="0.708661" stroke-linecap="round" stroke-linejoin="round" stroke="rgb(20%, 20%, 20%)" stroke-opacity="1" stroke-miterlimit="10" d="M 134.582031 193.53125 C 134.582031 195.945312 130.964844 195.945312 130.964844 193.53125 C 130.964844 191.121094 134.582031 191.121094 134.582031 193.53125 "/>
<path fill-rule="nonzero" fill="rgb(20%, 20%, 20%)" fill-opacity="1" stroke-width="0.708661" stroke-linecap="round" stroke-linejoin="round" stroke="rgb(20%, 20%, 20%)" stroke-opacity="1" stroke-miterlimit="10" d="M 134.582031 165.640625 C 134.582031 168.050781 130.964844 168.050781 130.964844 165.640625 C 130.964844 163.226562 134.582031 163.226562 134.582031 165.640625 "/>
<path fill="none" stroke-width="0.96998" stroke-linecap="butt" stroke-linejoin="round" stroke="rgb(20%, 20%, 20%)" stroke-opacity="1" stroke-miterlimit="10" d="M 132.773438 68.65625 L 132.773438 14.824219 "/>
<path fill="none" stroke-width="0.96998" stroke-linecap="butt" stroke-linejoin="round" stroke="rgb(20%, 20%, 20%)" stroke-opacity="1" stroke-miterlimit="10" d="M 132.773438 104.621094 L 132.773438 150.914062 "/>
<path fill-rule="nonzero" fill="rgb(100%, 100%, 100%)" fill-opacity="1" stroke-width="0.96998" stroke-linecap="butt" stroke-linejoin="miter" stroke="rgb(20%, 20%, 20%)" stroke-opacity="1" stroke-miterlimit="10" d="M 72.246094 68.65625 L 72.246094 104.621094 L 193.300781 104.621094 L 193.300781 68.65625 Z M 72.246094 68.65625 "/>
<path fill="none" stroke-width="1.939961" stroke-linecap="butt" stroke-linejoin="miter" stroke="rgb(20%, 20%, 20%)" stroke-opacity="1" stroke-miterlimit="10" d="M 72.246094 84.046875 L 193.300781 84.046875 "/>
<path fill-rule="nonzero" fill="rgb(20%, 20%, 20%)" fill-opacity="1" stroke-width="0.708661" stroke-linecap="round" stroke-linejoin="round" stroke="rgb(20%, 20%, 20%)" stroke-opacity="1" stroke-miterlimit="10" d="M 295.984375 195.101562 C 295.984375 197.515625 292.367188 197.515625 292.367188 195.101562 C 292.367188 192.691406 295.984375 192.691406 295.984375 195.101562 "/>
<path fill-rule="nonzero" fill="rgb(20%, 20%, 20%)" fill-opacity="1" stroke-width="0.708661" stroke-linecap="round" stroke-linejoin="round" stroke="rgb(20%, 20%, 20%)" stroke-opacity="1" stroke-miterlimit="10" d="M 295.984375 175.910156 C 295.984375 178.324219 292.367188 178.324219 292.367188 175.910156 C 292.367188 173.5 295.984375 173.5 295.984375 175.910156 "/>
<path fill-rule="nonzero" fill="rgb(20%, 20%, 20%)" fill-opacity="1" stroke-width="0.708661" stroke-linecap="round" stroke-linejoin="round" stroke="rgb(20%, 20%, 20%)" stroke-opacity="1" stroke-miterlimit="10" d="M 295.984375 211.679688 C 295.984375 214.09375 292.367188 214.09375 292.367188 211.679688 C 292.367188 209.269531 295.984375 209.269531 295.984375 211.679688 "/>
<path fill="none" stroke-width="0.96998" stroke-linecap="butt" stroke-linejoin="round" stroke="rgb(20%, 20%, 20%)" stroke-opacity="1" stroke-miterlimit="10" d="M 294.175781 65.324219 L 294.175781 26.300781 "/>
<path fill="none" stroke-width="0.96998" stroke-linecap="butt" stroke-linejoin="round" stroke="rgb(20%, 20%, 20%)" stroke-opacity="1" stroke-miterlimit="10" d="M 294.175781 108.523438 L 294.175781 171.082031 "/>
<path fill-rule="nonzero" fill="rgb(100%, 100%, 100%)" fill-opacity="1" stroke-width="0.96998" stroke-linecap="butt" stroke-linejoin="miter" stroke="rgb(20%, 20%, 20%)" stroke-opacity="1" stroke-miterlimit="10" d="M 233.652344 65.324219 L 233.652344 108.523438 L 354.703125 108.523438 L 354.703125 65.324219 Z M 233.652344 65.324219 "/>
<path fill="none" stroke-width="1.939961" stroke-linecap="butt" stroke-linejoin="miter" stroke="rgb(20%, 20%, 20%)" stroke-opacity="1" stroke-miterlimit="10" d="M 233.652344 79.210938 L 354.703125 79.210938 "/>
<g clip-path="url(#clip-8)">
<path fill="none" stroke-width="0.96998" stroke-linecap="butt" stroke-linejoin="round" stroke="rgb(100%, 0%, 0%)" stroke-opacity="1" stroke-miterlimit="10" d="M 35.929688 80.96875 L 391.019531 80.96875 "/>
</g>
<g fill="rgb(30.196078%, 30.196078%, 30.196078%)" fill-opacity="1">
<use xlink:href="#glyph-0-0" x="17.664062" y="157.476562"/>
<use xlink:href="#glyph-0-1" x="20.328125" y="157.476562"/>
<use xlink:href="#glyph-0-2" x="24.777344" y="157.476562"/>
<use xlink:href="#glyph-0-3" x="27" y="157.476562"/>
</g>
<g fill="rgb(30.196078%, 30.196078%, 30.196078%)" fill-opacity="1">
<use xlink:href="#glyph-0-4" x="20.328125" y="84.332031"/>
<use xlink:href="#glyph-0-2" x="24.777344" y="84.332031"/>
<use xlink:href="#glyph-0-4" x="27" y="84.332031"/>
</g>
<g fill="rgb(30.196078%, 30.196078%, 30.196078%)" fill-opacity="1">
<use xlink:href="#glyph-0-1" x="20.328125" y="11.191406"/>
<use xlink:href="#glyph-0-2" x="24.777344" y="11.191406"/>
<use xlink:href="#glyph-0-3" x="27" y="11.191406"/>
</g>
<g fill="rgb(30.196078%, 30.196078%, 30.196078%)" fill-opacity="1">
<use xlink:href="#glyph-0-5" x="128.324219" y="232.734375"/>
<use xlink:href="#glyph-0-6" x="132.773438" y="232.734375"/>
</g>
<g fill="rgb(30.196078%, 30.196078%, 30.196078%)" fill-opacity="1">
<use xlink:href="#glyph-0-7" x="287.949219" y="232.734375"/>
<use xlink:href="#glyph-0-8" x="291.949219" y="232.734375"/>
<use xlink:href="#glyph-0-9" x="296.398438" y="232.734375"/>
</g>
<g fill="rgb(0%, 0%, 0%)" fill-opacity="1">
<use xlink:href="#glyph-1-0" x="144.550781" y="244.835938"/>
<use xlink:href="#glyph-1-1" x="151.220703" y="244.835938"/>
<use xlink:href="#glyph-1-2" x="156.220703" y="244.835938"/>
<use xlink:href="#glyph-1-3" x="161.782227" y="244.835938"/>
<use xlink:href="#glyph-1-4" x="167.34375" y="244.835938"/>
<use xlink:href="#glyph-1-5" x="170.673828" y="244.835938"/>
<use xlink:href="#glyph-1-6" x="172.895508" y="244.835938"/>
<use xlink:href="#glyph-1-3" x="181.225586" y="244.835938"/>
<use xlink:href="#glyph-1-7" x="186.787109" y="244.835938"/>
<use xlink:href="#glyph-1-8" x="192.348633" y="244.835938"/>
<use xlink:href="#glyph-1-9" x="195.126953" y="244.835938"/>
<use xlink:href="#glyph-1-10" x="200.688477" y="244.835938"/>
<use xlink:href="#glyph-1-11" x="202.910156" y="244.835938"/>
<use xlink:href="#glyph-1-4" x="205.688477" y="244.835938"/>
<use xlink:href="#glyph-1-3" x="209.018555" y="244.835938"/>
<use xlink:href="#glyph-1-12" x="214.580078" y="244.835938"/>
<use xlink:href="#glyph-1-3" x="219.580078" y="244.835938"/>
<use xlink:href="#glyph-1-9" x="225.141602" y="244.835938"/>
<use xlink:href="#glyph-1-4" x="230.703125" y="244.835938"/>
<use xlink:href="#glyph-1-13" x="234.033203" y="244.835938"/>
<use xlink:href="#glyph-1-14" x="239.033203" y="244.835938"/>
<use xlink:href="#glyph-1-11" x="244.594727" y="244.835938"/>
<use xlink:href="#glyph-1-15" x="247.373047" y="244.835938"/>
<use xlink:href="#glyph-1-3" x="252.93457" y="244.835938"/>
<use xlink:href="#glyph-1-12" x="258.496094" y="244.835938"/>
<use xlink:href="#glyph-1-5" x="263.496094" y="244.835938"/>
<use xlink:href="#glyph-1-16" x="265.717773" y="244.835938"/>
<use xlink:href="#glyph-1-7" x="271.279297" y="244.835938"/>
<use xlink:href="#glyph-1-17" x="276.84082" y="244.835938"/>
</g>
<g fill="rgb(0%, 0%, 0%)" fill-opacity="1">
<use xlink:href="#glyph-2-0" x="13.140625" y="130.761719"/>
<use xlink:href="#glyph-2-1" x="13.140625" y="127.431641"/>
<use xlink:href="#glyph-2-2" x="13.140625" y="121.870117"/>
<use xlink:href="#glyph-2-3" x="13.140625" y="116.870117"/>
<use xlink:href="#glyph-2-4" x="13.140625" y="114.648438"/>
<use xlink:href="#glyph-2-5" x="13.140625" y="109.086914"/>
<use xlink:href="#glyph-2-6" x="13.140625" y="103.525391"/>
<use xlink:href="#glyph-2-7" x="13.140625" y="97.963867"/>
</g>
<path fill-rule="nonzero" fill="rgb(100%, 100%, 100%)" fill-opacity="1" d="M 396 252 L 792 252 L 792 0 L 396 0 Z M 396 252 "/>
<g clip-path="url(#clip-9)">
<path fill="none" stroke-width="0.48499" stroke-linecap="butt" stroke-linejoin="round" stroke="rgb(92.156863%, 92.156863%, 92.156863%)" stroke-opacity="1" stroke-miterlimit="10" d="M 431.929688 190.683594 L 787.019531 190.683594 "/>
</g>
<g clip-path="url(#clip-10)">
<path fill="none" stroke-width="0.48499" stroke-linecap="butt" stroke-linejoin="round" stroke="rgb(92.156863%, 92.156863%, 92.156863%)" stroke-opacity="1" stroke-miterlimit="10" d="M 431.929688 117.542969 L 787.019531 117.542969 "/>
</g>
<g clip-path="url(#clip-11)">
<path fill="none" stroke-width="0.48499" stroke-linecap="butt" stroke-linejoin="round" stroke="rgb(92.156863%, 92.156863%, 92.156863%)" stroke-opacity="1" stroke-miterlimit="10" d="M 431.929688 44.398438 L 787.019531 44.398438 "/>
</g>
<g clip-path="url(#clip-12)">
<path fill="none" stroke-width="0.96998" stroke-linecap="butt" stroke-linejoin="round" stroke="rgb(92.156863%, 92.156863%, 92.156863%)" stroke-opacity="1" stroke-miterlimit="10" d="M 431.929688 154.113281 L 787.019531 154.113281 "/>
</g>
<g clip-path="url(#clip-13)">
<path fill="none" stroke-width="0.96998" stroke-linecap="butt" stroke-linejoin="round" stroke="rgb(92.156863%, 92.156863%, 92.156863%)" stroke-opacity="1" stroke-miterlimit="10" d="M 431.929688 80.96875 L 787.019531 80.96875 "/>
</g>
<g clip-path="url(#clip-14)">
<path fill="none" stroke-width="0.96998" stroke-linecap="butt" stroke-linejoin="round" stroke="rgb(92.156863%, 92.156863%, 92.156863%)" stroke-opacity="1" stroke-miterlimit="10" d="M 431.929688 7.828125 L 787.019531 7.828125 "/>
</g>
<g clip-path="url(#clip-15)">
<path fill="none" stroke-width="0.96998" stroke-linecap="butt" stroke-linejoin="round" stroke="rgb(92.156863%, 92.156863%, 92.156863%)" stroke-opacity="1" stroke-miterlimit="10" d="M 528.773438 221.523438 L 528.773438 4.980469 "/>
</g>
<g clip-path="url(#clip-16)">
<path fill="none" stroke-width="0.96998" stroke-linecap="butt" stroke-linejoin="round" stroke="rgb(92.156863%, 92.156863%, 92.156863%)" stroke-opacity="1" stroke-miterlimit="10" d="M 690.175781 221.523438 L 690.175781 4.980469 "/>
</g>
<path fill-rule="nonzero" fill="rgb(20%, 20%, 20%)" fill-opacity="1" stroke-width="0.708661" stroke-linecap="round" stroke-linejoin="round" stroke="rgb(20%, 20%, 20%)" stroke-opacity="1" stroke-miterlimit="10" d="M 530.582031 195.101562 C 530.582031 197.515625 526.964844 197.515625 526.964844 195.101562 C 526.964844 192.691406 530.582031 192.691406 530.582031 195.101562 "/>
<path fill-rule="nonzero" fill="rgb(20%, 20%, 20%)" fill-opacity="1" stroke-width="0.708661" stroke-linecap="round" stroke-linejoin="round" stroke="rgb(20%, 20%, 20%)" stroke-opacity="1" stroke-miterlimit="10" d="M 530.582031 193.53125 C 530.582031 195.945312 526.964844 195.945312 526.964844 193.53125 C 526.964844 191.121094 530.582031 191.121094 530.582031 193.53125 "/>
<path fill="none" stroke-width="0.96998" stroke-linecap="butt" stroke-linejoin="round" stroke="rgb(20%, 20%, 20%)" stroke-opacity="1" stroke-miterlimit="10" d="M 528.773438 63.941406 L 528.773438 14.824219 "/>
<path fill="none" stroke-width="0.96998" stroke-linecap="butt" stroke-linejoin="round" stroke="rgb(20%, 20%, 20%)" stroke-opacity="1" stroke-miterlimit="10" d="M 528.773438 108.039062 L 528.773438 171.082031 "/>
<path fill-rule="nonzero" fill="rgb(100%, 100%, 100%)" fill-opacity="1" stroke-width="0.96998" stroke-linecap="butt" stroke-linejoin="miter" stroke="rgb(20%, 20%, 20%)" stroke-opacity="1" stroke-miterlimit="10" d="M 468.246094 63.941406 L 468.246094 108.039062 L 589.300781 108.039062 L 589.300781 63.941406 Z M 468.246094 63.941406 "/>
<path fill="none" stroke-width="1.939961" stroke-linecap="butt" stroke-linejoin="miter" stroke="rgb(20%, 20%, 20%)" stroke-opacity="1" stroke-miterlimit="10" d="M 468.246094 81.335938 L 589.300781 81.335938 "/>
<path fill-rule="nonzero" fill="rgb(20%, 20%, 20%)" fill-opacity="1" stroke-width="0.708661" stroke-linecap="round" stroke-linejoin="round" stroke="rgb(20%, 20%, 20%)" stroke-opacity="1" stroke-miterlimit="10" d="M 691.984375 165.640625 C 691.984375 168.050781 688.367188 168.050781 688.367188 165.640625 C 688.367188 163.226562 691.984375 163.226562 691.984375 165.640625 "/>
<path fill-rule="nonzero" fill="rgb(20%, 20%, 20%)" fill-opacity="1" stroke-width="0.708661" stroke-linecap="round" stroke-linejoin="round" stroke="rgb(20%, 20%, 20%)" stroke-opacity="1" stroke-miterlimit="10" d="M 691.984375 175.910156 C 691.984375 178.324219 688.367188 178.324219 688.367188 175.910156 C 688.367188 173.5 691.984375 173.5 691.984375 175.910156 "/>
<path fill-rule="nonzero" fill="rgb(20%, 20%, 20%)" fill-opacity="1" stroke-width="0.708661" stroke-linecap="round" stroke-linejoin="round" stroke="rgb(20%, 20%, 20%)" stroke-opacity="1" stroke-miterlimit="10" d="M 691.984375 211.679688 C 691.984375 214.09375 688.367188 214.09375 688.367188 211.679688 C 688.367188 209.269531 691.984375 209.269531 691.984375 211.679688 "/>
<path fill="none" stroke-width="0.96998" stroke-linecap="butt" stroke-linejoin="round" stroke="rgb(20%, 20%, 20%)" stroke-opacity="1" stroke-miterlimit="10" d="M 690.175781 70.257812 L 690.175781 24.683594 "/>
<path fill="none" stroke-width="0.96998" stroke-linecap="butt" stroke-linejoin="round" stroke="rgb(20%, 20%, 20%)" stroke-opacity="1" stroke-miterlimit="10" d="M 690.175781 102.609375 L 690.175781 146.792969 "/>
<path fill-rule="nonzero" fill="rgb(100%, 100%, 100%)" fill-opacity="1" stroke-width="0.96998" stroke-linecap="butt" stroke-linejoin="miter" stroke="rgb(20%, 20%, 20%)" stroke-opacity="1" stroke-miterlimit="10" d="M 629.652344 70.257812 L 629.652344 102.609375 L 750.703125 102.609375 L 750.703125 70.257812 Z M 629.652344 70.257812 "/>
<path fill="none" stroke-width="1.939961" stroke-linecap="butt" stroke-linejoin="miter" stroke="rgb(20%, 20%, 20%)" stroke-opacity="1" stroke-miterlimit="10" d="M 629.652344 83.742188 L 750.703125 83.742188 "/>
<g clip-path="url(#clip-17)">
<path fill="none" stroke-width="0.96998" stroke-linecap="butt" stroke-linejoin="round" stroke="rgb(100%, 0%, 0%)" stroke-opacity="1" stroke-miterlimit="10" d="M 431.929688 80.96875 L 787.019531 80.96875 "/>
</g>
<g fill="rgb(30.196078%, 30.196078%, 30.196078%)" fill-opacity="1">
<use xlink:href="#glyph-0-0" x="413.664062" y="157.476562"/>
<use xlink:href="#glyph-0-1" x="416.328125" y="157.476562"/>
<use xlink:href="#glyph-0-2" x="420.777344" y="157.476562"/>
<use xlink:href="#glyph-0-3" x="423" y="157.476562"/>
</g>
<g fill="rgb(30.196078%, 30.196078%, 30.196078%)" fill-opacity="1">
<use xlink:href="#glyph-0-4" x="416.328125" y="84.332031"/>
<use xlink:href="#glyph-0-2" x="420.777344" y="84.332031"/>
<use xlink:href="#glyph-0-4" x="423" y="84.332031"/>
</g>
<g fill="rgb(30.196078%, 30.196078%, 30.196078%)" fill-opacity="1">
<use xlink:href="#glyph-0-1" x="416.328125" y="11.191406"/>
<use xlink:href="#glyph-0-2" x="420.777344" y="11.191406"/>
<use xlink:href="#glyph-0-3" x="423" y="11.191406"/>
</g>
<g fill="rgb(30.196078%, 30.196078%, 30.196078%)" fill-opacity="1">
<use xlink:href="#glyph-0-5" x="524.324219" y="232.734375"/>
<use xlink:href="#glyph-0-6" x="528.773438" y="232.734375"/>
</g>
<g fill="rgb(30.196078%, 30.196078%, 30.196078%)" fill-opacity="1">
<use xlink:href="#glyph-0-7" x="683.949219" y="232.734375"/>
<use xlink:href="#glyph-0-8" x="687.949219" y="232.734375"/>
<use xlink:href="#glyph-0-9" x="692.398438" y="232.734375"/>
</g>
<g fill="rgb(0%, 0%, 0%)" fill-opacity="1">
<use xlink:href="#glyph-1-18" x="541.65625" y="244.835938"/>
<use xlink:href="#glyph-1-19" x="547.764648" y="244.835938"/>
<use xlink:href="#glyph-1-10" x="553.326172" y="244.835938"/>
<use xlink:href="#glyph-1-10" x="555.547852" y="244.835938"/>
<use xlink:href="#glyph-1-19" x="557.769531" y="244.835938"/>
<use xlink:href="#glyph-1-20" x="563.331055" y="244.835938"/>
<use xlink:href="#glyph-1-3" x="570.552734" y="244.835938"/>
<use xlink:href="#glyph-1-15" x="576.114258" y="244.835938"/>
<use xlink:href="#glyph-1-11" x="581.675781" y="244.835938"/>
<use xlink:href="#glyph-1-4" x="584.454102" y="244.835938"/>
<use xlink:href="#glyph-1-3" x="587.78418" y="244.835938"/>
<use xlink:href="#glyph-1-2" x="593.345703" y="244.835938"/>
<use xlink:href="#glyph-1-19" x="598.907227" y="244.835938"/>
<use xlink:href="#glyph-1-4" x="604.46875" y="244.835938"/>
<use xlink:href="#glyph-1-8" x="607.798828" y="244.835938"/>
<use xlink:href="#glyph-1-5" x="610.577148" y="244.835938"/>
<use xlink:href="#glyph-1-7" x="612.798828" y="244.835938"/>
<use xlink:href="#glyph-1-16" x="618.360352" y="244.835938"/>
<use xlink:href="#glyph-1-11" x="623.921875" y="244.835938"/>
<use xlink:href="#glyph-1-16" x="626.700195" y="244.835938"/>
<use xlink:href="#glyph-1-21" x="632.261719" y="244.835938"/>
<use xlink:href="#glyph-1-5" x="637.823242" y="244.835938"/>
<use xlink:href="#glyph-1-15" x="640.044922" y="244.835938"/>
<use xlink:href="#glyph-1-3" x="645.606445" y="244.835938"/>
<use xlink:href="#glyph-1-10" x="651.167969" y="244.835938"/>
<use xlink:href="#glyph-1-5" x="653.389648" y="244.835938"/>
<use xlink:href="#glyph-1-7" x="655.611328" y="244.835938"/>
<use xlink:href="#glyph-1-3" x="661.172852" y="244.835938"/>
<use xlink:href="#glyph-1-12" x="666.734375" y="244.835938"/>
<use xlink:href="#glyph-1-17" x="671.734375" y="244.835938"/>
</g>
<g fill="rgb(0%, 0%, 0%)" fill-opacity="1">
<use xlink:href="#glyph-2-0" x="409.140625" y="130.761719"/>
<use xlink:href="#glyph-2-1" x="409.140625" y="127.431641"/>
<use xlink:href="#glyph-2-2" x="409.140625" y="121.870117"/>
<use xlink:href="#glyph-2-3" x="409.140625" y="116.870117"/>
<use xlink:href="#glyph-2-4" x="409.140625" y="114.648438"/>
<use xlink:href="#glyph-2-5" x="409.140625" y="109.086914"/>
<use xlink:href="#glyph-2-6" x="409.140625" y="103.525391"/>
<use xlink:href="#glyph-2-7" x="409.140625" y="97.963867"/>
</g>
<path fill-rule="nonzero" fill="rgb(100%, 100%, 100%)" fill-opacity="1" d="M 0 504 L 396 504 L 396 252 L 0 252 Z M 0 504 "/>
<g clip-path="url(#clip-18)">
<path fill="none" stroke-width="0.48499" stroke-linecap="butt" stroke-linejoin="round" stroke="rgb(92.156863%, 92.156863%, 92.156863%)" stroke-opacity="1" stroke-miterlimit="10" d="M 35.929688 442.683594 L 391.019531 442.683594 "/>
</g>
<g clip-path="url(#clip-19)">
<path fill="none" stroke-width="0.48499" stroke-linecap="butt" stroke-linejoin="round" stroke="rgb(92.156863%, 92.156863%, 92.156863%)" stroke-opacity="1" stroke-miterlimit="10" d="M 35.929688 369.542969 L 391.019531 369.542969 "/>
</g>
<g clip-path="url(#clip-20)">
<path fill="none" stroke-width="0.48499" stroke-linecap="butt" stroke-linejoin="round" stroke="rgb(92.156863%, 92.156863%, 92.156863%)" stroke-opacity="1" stroke-miterlimit="10" d="M 35.929688 296.398438 L 391.019531 296.398438 "/>
</g>
<g clip-path="url(#clip-21)">
<path fill="none" stroke-width="0.96998" stroke-linecap="butt" stroke-linejoin="round" stroke="rgb(92.156863%, 92.156863%, 92.156863%)" stroke-opacity="1" stroke-miterlimit="10" d="M 35.929688 406.113281 L 391.019531 406.113281 "/>
</g>
<g clip-path="url(#clip-22)">
<path fill="none" stroke-width="0.96998" stroke-linecap="butt" stroke-linejoin="round" stroke="rgb(92.156863%, 92.156863%, 92.156863%)" stroke-opacity="1" stroke-miterlimit="10" d="M 35.929688 332.96875 L 391.019531 332.96875 "/>
</g>
<g clip-path="url(#clip-23)">
<path fill="none" stroke-width="0.96998" stroke-linecap="butt" stroke-linejoin="round" stroke="rgb(92.156863%, 92.156863%, 92.156863%)" stroke-opacity="1" stroke-miterlimit="10" d="M 35.929688 259.828125 L 391.019531 259.828125 "/>
</g>
<g clip-path="url(#clip-24)">
<path fill="none" stroke-width="0.96998" stroke-linecap="butt" stroke-linejoin="round" stroke="rgb(92.156863%, 92.156863%, 92.156863%)" stroke-opacity="1" stroke-miterlimit="10" d="M 132.773438 473.523438 L 132.773438 256.980469 "/>
</g>
<g clip-path="url(#clip-25)">
<path fill="none" stroke-width="0.96998" stroke-linecap="butt" stroke-linejoin="round" stroke="rgb(92.156863%, 92.156863%, 92.156863%)" stroke-opacity="1" stroke-miterlimit="10" d="M 294.175781 473.523438 L 294.175781 256.980469 "/>
</g>
<path fill-rule="nonzero" fill="rgb(20%, 20%, 20%)" fill-opacity="1" stroke-width="0.708661" stroke-linecap="round" stroke-linejoin="round" stroke="rgb(20%, 20%, 20%)" stroke-opacity="1" stroke-miterlimit="10" d="M 134.582031 447.101562 C 134.582031 449.515625 130.964844 449.515625 130.964844 447.101562 C 130.964844 444.691406 134.582031 444.691406 134.582031 447.101562 "/>
<path fill-rule="nonzero" fill="rgb(20%, 20%, 20%)" fill-opacity="1" stroke-width="0.708661" stroke-linecap="round" stroke-linejoin="round" stroke="rgb(20%, 20%, 20%)" stroke-opacity="1" stroke-miterlimit="10" d="M 134.582031 423.082031 C 134.582031 425.492188 130.964844 425.492188 130.964844 423.082031 C 130.964844 420.667969 134.582031 420.667969 134.582031 423.082031 "/>
<path fill-rule="nonzero" fill="rgb(20%, 20%, 20%)" fill-opacity="1" stroke-width="0.708661" stroke-linecap="round" stroke-linejoin="round" stroke="rgb(20%, 20%, 20%)" stroke-opacity="1" stroke-miterlimit="10" d="M 134.582031 445.53125 C 134.582031 447.945312 130.964844 447.945312 130.964844 445.53125 C 130.964844 443.121094 134.582031 443.121094 134.582031 445.53125 "/>
<path fill-rule="nonzero" fill="rgb(20%, 20%, 20%)" fill-opacity="1" stroke-width="0.708661" stroke-linecap="round" stroke-linejoin="round" stroke="rgb(20%, 20%, 20%)" stroke-opacity="1" stroke-miterlimit="10" d="M 134.582031 417.640625 C 134.582031 420.050781 130.964844 420.050781 130.964844 417.640625 C 130.964844 415.226562 134.582031 415.226562 134.582031 417.640625 "/>
<path fill-rule="nonzero" fill="rgb(20%, 20%, 20%)" fill-opacity="1" stroke-width="0.708661" stroke-linecap="round" stroke-linejoin="round" stroke="rgb(20%, 20%, 20%)" stroke-opacity="1" stroke-miterlimit="10" d="M 134.582031 427.910156 C 134.582031 430.324219 130.964844 430.324219 130.964844 427.910156 C 130.964844 425.5 134.582031 425.5 134.582031 427.910156 "/>
<path fill-rule="nonzero" fill="rgb(20%, 20%, 20%)" fill-opacity="1" stroke-width="0.708661" stroke-linecap="round" stroke-linejoin="round" stroke="rgb(20%, 20%, 20%)" stroke-opacity="1" stroke-miterlimit="10" d="M 134.582031 463.679688 C 134.582031 466.09375 130.964844 466.09375 130.964844 463.679688 C 130.964844 461.269531 134.582031 461.269531 134.582031 463.679688 "/>
<path fill="none" stroke-width="0.96998" stroke-linecap="butt" stroke-linejoin="round" stroke="rgb(20%, 20%, 20%)" stroke-opacity="1" stroke-miterlimit="10" d="M 132.773438 318.867188 L 132.773438 266.824219 "/>
<path fill="none" stroke-width="0.96998" stroke-linecap="butt" stroke-linejoin="round" stroke="rgb(20%, 20%, 20%)" stroke-opacity="1" stroke-miterlimit="10" d="M 132.773438 357.015625 L 132.773438 412.445312 "/>
<path fill-rule="nonzero" fill="rgb(100%, 100%, 100%)" fill-opacity="1" stroke-width="0.96998" stroke-linecap="butt" stroke-linejoin="miter" stroke="rgb(20%, 20%, 20%)" stroke-opacity="1" stroke-miterlimit="10" d="M 72.246094 318.867188 L 72.246094 357.015625 L 193.300781 357.015625 L 193.300781 318.867188 Z M 72.246094 318.867188 "/>
<path fill="none" stroke-width="1.939961" stroke-linecap="butt" stroke-linejoin="miter" stroke="rgb(20%, 20%, 20%)" stroke-opacity="1" stroke-miterlimit="10" d="M 72.246094 335.242188 L 193.300781 335.242188 "/>
<path fill="none" stroke-width="0.96998" stroke-linecap="butt" stroke-linejoin="round" stroke="rgb(20%, 20%, 20%)" stroke-opacity="1" stroke-miterlimit="10" d="M 294.175781 328.402344 L 294.175781 302.449219 "/>
<path fill="none" stroke-width="0.96998" stroke-linecap="butt" stroke-linejoin="round" stroke="rgb(20%, 20%, 20%)" stroke-opacity="1" stroke-miterlimit="10" d="M 294.175781 351.839844 L 294.175781 373.449219 "/>
<path fill-rule="nonzero" fill="rgb(100%, 100%, 100%)" fill-opacity="1" stroke-width="0.96998" stroke-linecap="butt" stroke-linejoin="miter" stroke="rgb(20%, 20%, 20%)" stroke-opacity="1" stroke-miterlimit="10" d="M 233.652344 328.402344 L 233.652344 351.839844 L 354.703125 351.839844 L 354.703125 328.402344 Z M 233.652344 328.402344 "/>
<path fill="none" stroke-width="1.939961" stroke-linecap="butt" stroke-linejoin="miter" stroke="rgb(20%, 20%, 20%)" stroke-opacity="1" stroke-miterlimit="10" d="M 233.652344 336.222656 L 354.703125 336.222656 "/>
<g clip-path="url(#clip-26)">
<path fill="none" stroke-width="0.96998" stroke-linecap="butt" stroke-linejoin="round" stroke="rgb(100%, 0%, 0%)" stroke-opacity="1" stroke-miterlimit="10" d="M 35.929688 332.96875 L 391.019531 332.96875 "/>
</g>
<g fill="rgb(30.196078%, 30.196078%, 30.196078%)" fill-opacity="1">
<use xlink:href="#glyph-0-0" x="17.664062" y="409.476562"/>
<use xlink:href="#glyph-0-1" x="20.328125" y="409.476562"/>
<use xlink:href="#glyph-0-2" x="24.777344" y="409.476562"/>
<use xlink:href="#glyph-0-3" x="27" y="409.476562"/>
</g>
<g fill="rgb(30.196078%, 30.196078%, 30.196078%)" fill-opacity="1">
<use xlink:href="#glyph-0-4" x="20.328125" y="336.332031"/>
<use xlink:href="#glyph-0-2" x="24.777344" y="336.332031"/>
<use xlink:href="#glyph-0-4" x="27" y="336.332031"/>
</g>
<g fill="rgb(30.196078%, 30.196078%, 30.196078%)" fill-opacity="1">
<use xlink:href="#glyph-0-1" x="20.328125" y="263.191406"/>
<use xlink:href="#glyph-0-2" x="24.777344" y="263.191406"/>
<use xlink:href="#glyph-0-3" x="27" y="263.191406"/>
</g>
<g fill="rgb(30.196078%, 30.196078%, 30.196078%)" fill-opacity="1">
<use xlink:href="#glyph-0-5" x="128.324219" y="484.734375"/>
<use xlink:href="#glyph-0-6" x="132.773438" y="484.734375"/>
</g>
<g fill="rgb(30.196078%, 30.196078%, 30.196078%)" fill-opacity="1">
<use xlink:href="#glyph-0-7" x="287.949219" y="484.734375"/>
<use xlink:href="#glyph-0-8" x="291.949219" y="484.734375"/>
<use xlink:href="#glyph-0-9" x="296.398438" y="484.734375"/>
</g>
<g fill="rgb(0%, 0%, 0%)" fill-opacity="1">
<use xlink:href="#glyph-1-22" x="168.730469" y="496.835938"/>
<use xlink:href="#glyph-1-4" x="175.400391" y="496.835938"/>
<use xlink:href="#glyph-1-19" x="178.730469" y="496.835938"/>
<use xlink:href="#glyph-1-8" x="184.291992" y="496.835938"/>
<use xlink:href="#glyph-1-19" x="187.070312" y="496.835938"/>
<use xlink:href="#glyph-1-13" x="192.631836" y="496.835938"/>
<use xlink:href="#glyph-1-19" x="197.631836" y="496.835938"/>
<use xlink:href="#glyph-1-10" x="203.193359" y="496.835938"/>
<use xlink:href="#glyph-1-11" x="205.415039" y="496.835938"/>
<use xlink:href="#glyph-1-4" x="208.193359" y="496.835938"/>
<use xlink:href="#glyph-1-3" x="211.523438" y="496.835938"/>
<use xlink:href="#glyph-1-16" x="217.084961" y="496.835938"/>
<use xlink:href="#glyph-1-5" x="222.646484" y="496.835938"/>
<use xlink:href="#glyph-1-12" x="224.868164" y="496.835938"/>
<use xlink:href="#glyph-1-8" x="229.868164" y="496.835938"/>
<use xlink:href="#glyph-1-3" x="232.646484" y="496.835938"/>
<use xlink:href="#glyph-1-4" x="238.208008" y="496.835938"/>
<use xlink:href="#glyph-1-3" x="241.538086" y="496.835938"/>
<use xlink:href="#glyph-1-15" x="247.099609" y="496.835938"/>
<use xlink:href="#glyph-1-17" x="252.661133" y="496.835938"/>
</g>
<g fill="rgb(0%, 0%, 0%)" fill-opacity="1">
<use xlink:href="#glyph-2-0" x="13.140625" y="382.761719"/>
<use xlink:href="#glyph-2-1" x="13.140625" y="379.431641"/>
<use xlink:href="#glyph-2-2" x="13.140625" y="373.870117"/>
<use xlink:href="#glyph-2-3" x="13.140625" y="368.870117"/>
<use xlink:href="#glyph-2-4" x="13.140625" y="366.648438"/>
<use xlink:href="#glyph-2-5" x="13.140625" y="361.086914"/>
<use xlink:href="#glyph-2-6" x="13.140625" y="355.525391"/>
<use xlink:href="#glyph-2-7" x="13.140625" y="349.963867"/>
</g>
<path fill-rule="nonzero" fill="rgb(100%, 100%, 100%)" fill-opacity="1" d="M 396 504 L 792 504 L 792 252 L 396 252 Z M 396 504 "/>
<g clip-path="url(#clip-27)">
<path fill="none" stroke-width="0.48499" stroke-linecap="butt" stroke-linejoin="round" stroke="rgb(92.156863%, 92.156863%, 92.156863%)" stroke-opacity="1" stroke-miterlimit="10" d="M 431.929688 442.683594 L 787.019531 442.683594 "/>
</g>
<g clip-path="url(#clip-28)">
<path fill="none" stroke-width="0.48499" stroke-linecap="butt" stroke-linejoin="round" stroke="rgb(92.156863%, 92.156863%, 92.156863%)" stroke-opacity="1" stroke-miterlimit="10" d="M 431.929688 369.542969 L 787.019531 369.542969 "/>
</g>
<g clip-path="url(#clip-29)">
<path fill="none" stroke-width="0.48499" stroke-linecap="butt" stroke-linejoin="round" stroke="rgb(92.156863%, 92.156863%, 92.156863%)" stroke-opacity="1" stroke-miterlimit="10" d="M 431.929688 296.398438 L 787.019531 296.398438 "/>
</g>
<g clip-path="url(#clip-30)">
<path fill="none" stroke-width="0.96998" stroke-linecap="butt" stroke-linejoin="round" stroke="rgb(92.156863%, 92.156863%, 92.156863%)" stroke-opacity="1" stroke-miterlimit="10" d="M 431.929688 406.113281 L 787.019531 406.113281 "/>
</g>
<g clip-path="url(#clip-31)">
<path fill="none" stroke-width="0.96998" stroke-linecap="butt" stroke-linejoin="round" stroke="rgb(92.156863%, 92.156863%, 92.156863%)" stroke-opacity="1" stroke-miterlimit="10" d="M 431.929688 332.96875 L 787.019531 332.96875 "/>
</g>
<g clip-path="url(#clip-32)">
<path fill="none" stroke-width="0.96998" stroke-linecap="butt" stroke-linejoin="round" stroke="rgb(92.156863%, 92.156863%, 92.156863%)" stroke-opacity="1" stroke-miterlimit="10" d="M 431.929688 259.828125 L 787.019531 259.828125 "/>
</g>
<g clip-path="url(#clip-33)">
<path fill="none" stroke-width="0.96998" stroke-linecap="butt" stroke-linejoin="round" stroke="rgb(92.156863%, 92.156863%, 92.156863%)" stroke-opacity="1" stroke-miterlimit="10" d="M 461.523438 473.523438 L 461.523438 256.980469 "/>
</g>
<g clip-path="url(#clip-34)">
<path fill="none" stroke-width="0.96998" stroke-linecap="butt" stroke-linejoin="round" stroke="rgb(92.156863%, 92.156863%, 92.156863%)" stroke-opacity="1" stroke-miterlimit="10" d="M 510.839844 473.523438 L 510.839844 256.980469 "/>
</g>
<g clip-path="url(#clip-35)">
<path fill="none" stroke-width="0.96998" stroke-linecap="butt" stroke-linejoin="round" stroke="rgb(92.156863%, 92.156863%, 92.156863%)" stroke-opacity="1" stroke-miterlimit="10" d="M 560.15625 473.523438 L 560.15625 256.980469 "/>
</g>
<g clip-path="url(#clip-36)">
<path fill="none" stroke-width="0.96998" stroke-linecap="butt" stroke-linejoin="round" stroke="rgb(92.156863%, 92.156863%, 92.156863%)" stroke-opacity="1" stroke-miterlimit="10" d="M 609.476562 473.523438 L 609.476562 256.980469 "/>
</g>
<g clip-path="url(#clip-37)">
<path fill="none" stroke-width="0.96998" stroke-linecap="butt" stroke-linejoin="round" stroke="rgb(92.156863%, 92.156863%, 92.156863%)" stroke-opacity="1" stroke-miterlimit="10" d="M 658.792969 473.523438 L 658.792969 256.980469 "/>
</g>
<g clip-path="url(#clip-38)">
<path fill="none" stroke-width="0.96998" stroke-linecap="butt" stroke-linejoin="round" stroke="rgb(92.156863%, 92.156863%, 92.156863%)" stroke-opacity="1" stroke-miterlimit="10" d="M 708.109375 473.523438 L 708.109375 256.980469 "/>
</g>
<g clip-path="url(#clip-39)">
<path fill="none" stroke-width="0.96998" stroke-linecap="butt" stroke-linejoin="round" stroke="rgb(92.156863%, 92.156863%, 92.156863%)" stroke-opacity="1" stroke-miterlimit="10" d="M 757.429688 473.523438 L 757.429688 256.980469 "/>
</g>
<path fill-rule="nonzero" fill="rgb(20%, 20%, 20%)" fill-opacity="1" stroke-width="0.708661" stroke-linecap="round" stroke-linejoin="round" stroke="rgb(20%, 20%, 20%)" stroke-opacity="1" stroke-miterlimit="10" d="M 463.332031 409.742188 C 463.332031 412.152344 459.710938 412.152344 459.710938 409.742188 C 459.710938 407.328125 463.332031 407.328125 463.332031 409.742188 "/>
<path fill-rule="nonzero" fill="rgb(20%, 20%, 20%)" fill-opacity="1" stroke-width="0.708661" stroke-linecap="round" stroke-linejoin="round" stroke="rgb(20%, 20%, 20%)" stroke-opacity="1" stroke-miterlimit="10" d="M 463.332031 417.640625 C 463.332031 420.050781 459.710938 420.050781 459.710938 417.640625 C 459.710938 415.226562 463.332031 415.226562 463.332031 417.640625 "/>
<path fill-rule="nonzero" fill="rgb(20%, 20%, 20%)" fill-opacity="1" stroke-width="0.708661" stroke-linecap="round" stroke-linejoin="round" stroke="rgb(20%, 20%, 20%)" stroke-opacity="1" stroke-miterlimit="10" d="M 463.332031 276.683594 C 463.332031 279.09375 459.710938 279.09375 459.710938 276.683594 C 459.710938 274.269531 463.332031 274.269531 463.332031 276.683594 "/>
<path fill-rule="nonzero" fill="rgb(20%, 20%, 20%)" fill-opacity="1" stroke-width="0.708661" stroke-linecap="round" stroke-linejoin="round" stroke="rgb(20%, 20%, 20%)" stroke-opacity="1" stroke-miterlimit="10" d="M 463.332031 402.914062 C 463.332031 405.324219 459.710938 405.324219 459.710938 402.914062 C 459.710938 400.5 463.332031 400.5 463.332031 402.914062 "/>
<path fill-rule="nonzero" fill="rgb(20%, 20%, 20%)" fill-opacity="1" stroke-width="0.708661" stroke-linecap="round" stroke-linejoin="round" stroke="rgb(20%, 20%, 20%)" stroke-opacity="1" stroke-miterlimit="10" d="M 463.332031 427.910156 C 463.332031 430.324219 459.710938 430.324219 459.710938 427.910156 C 459.710938 425.5 463.332031 425.5 463.332031 427.910156 "/>
<path fill-rule="nonzero" fill="rgb(20%, 20%, 20%)" fill-opacity="1" stroke-width="0.708661" stroke-linecap="round" stroke-linejoin="round" stroke="rgb(20%, 20%, 20%)" stroke-opacity="1" stroke-miterlimit="10" d="M 463.332031 463.679688 C 463.332031 466.09375 459.710938 466.09375 459.710938 463.679688 C 459.710938 461.269531 463.332031 461.269531 463.332031 463.679688 "/>
<path fill="none" stroke-width="0.96998" stroke-linecap="butt" stroke-linejoin="round" stroke="rgb(20%, 20%, 20%)" stroke-opacity="1" stroke-miterlimit="10" d="M 461.523438 326.148438 L 461.523438 289.300781 "/>
<path fill="none" stroke-width="0.96998" stroke-linecap="butt" stroke-linejoin="round" stroke="rgb(20%, 20%, 20%)" stroke-opacity="1" stroke-miterlimit="10" d="M 461.523438 356.621094 L 461.523438 398.792969 "/>
<path fill-rule="nonzero" fill="rgb(100%, 100%, 100%)" fill-opacity="1" stroke-width="0.96998" stroke-linecap="butt" stroke-linejoin="miter" stroke="rgb(20%, 20%, 20%)" stroke-opacity="1" stroke-miterlimit="10" d="M 443.027344 326.148438 L 443.027344 356.621094 L 480.015625 356.621094 L 480.015625 326.148438 Z M 443.027344 326.148438 "/>
<path fill="none" stroke-width="1.939961" stroke-linecap="butt" stroke-linejoin="miter" stroke="rgb(20%, 20%, 20%)" stroke-opacity="1" stroke-miterlimit="10" d="M 443.027344 336.703125 L 480.015625 336.703125 "/>
<path fill-rule="nonzero" fill="rgb(20%, 20%, 20%)" fill-opacity="1" stroke-width="0.708661" stroke-linecap="round" stroke-linejoin="round" stroke="rgb(20%, 20%, 20%)" stroke-opacity="1" stroke-miterlimit="10" d="M 512.648438 447.101562 C 512.648438 449.515625 509.03125 449.515625 509.03125 447.101562 C 509.03125 444.691406 512.648438 444.691406 512.648438 447.101562 "/>
<path fill="none" stroke-width="0.96998" stroke-linecap="butt" stroke-linejoin="round" stroke="rgb(20%, 20%, 20%)" stroke-opacity="1" stroke-miterlimit="10" d="M 510.839844 313.523438 L 510.839844 266.824219 "/>
<path fill="none" stroke-width="0.96998" stroke-linecap="butt" stroke-linejoin="round" stroke="rgb(20%, 20%, 20%)" stroke-opacity="1" stroke-miterlimit="10" d="M 510.839844 351.710938 L 510.839844 402.40625 "/>
<path fill-rule="nonzero" fill="rgb(100%, 100%, 100%)" fill-opacity="1" stroke-width="0.96998" stroke-linecap="butt" stroke-linejoin="miter" stroke="rgb(20%, 20%, 20%)" stroke-opacity="1" stroke-miterlimit="10" d="M 492.34375 313.523438 L 492.34375 351.710938 L 529.332031 351.710938 L 529.332031 313.523438 Z M 492.34375 313.523438 "/>
<path fill="none" stroke-width="1.939961" stroke-linecap="butt" stroke-linejoin="miter" stroke="rgb(20%, 20%, 20%)" stroke-opacity="1" stroke-miterlimit="10" d="M 492.34375 330.242188 L 529.332031 330.242188 "/>
<path fill="none" stroke-width="0.96998" stroke-linecap="butt" stroke-linejoin="round" stroke="rgb(20%, 20%, 20%)" stroke-opacity="1" stroke-miterlimit="10" d="M 560.15625 321.3125 L 560.15625 286.433594 "/>
<path fill="none" stroke-width="0.96998" stroke-linecap="butt" stroke-linejoin="round" stroke="rgb(20%, 20%, 20%)" stroke-opacity="1" stroke-miterlimit="10" d="M 560.15625 365.324219 L 560.15625 412.445312 "/>
<path fill-rule="nonzero" fill="rgb(100%, 100%, 100%)" fill-opacity="1" stroke-width="0.96998" stroke-linecap="butt" stroke-linejoin="miter" stroke="rgb(20%, 20%, 20%)" stroke-opacity="1" stroke-miterlimit="10" d="M 541.664062 321.3125 L 541.664062 365.324219 L 578.652344 365.324219 L 578.652344 321.3125 Z M 541.664062 321.3125 "/>
<path fill="none" stroke-width="1.939961" stroke-linecap="butt" stroke-linejoin="miter" stroke="rgb(20%, 20%, 20%)" stroke-opacity="1" stroke-miterlimit="10" d="M 541.664062 348.847656 L 578.652344 348.847656 "/>
<path fill="none" stroke-width="0.96998" stroke-linecap="butt" stroke-linejoin="round" stroke="rgb(20%, 20%, 20%)" stroke-opacity="1" stroke-miterlimit="10" d="M 609.476562 334.648438 L 609.476562 289.332031 "/>
<path fill="none" stroke-width="0.96998" stroke-linecap="butt" stroke-linejoin="round" stroke="rgb(20%, 20%, 20%)" stroke-opacity="1" stroke-miterlimit="10" d="M 609.476562 380.660156 L 609.476562 445.53125 "/>
<path fill-rule="nonzero" fill="rgb(100%, 100%, 100%)" fill-opacity="1" stroke-width="0.96998" stroke-linecap="butt" stroke-linejoin="miter" stroke="rgb(20%, 20%, 20%)" stroke-opacity="1" stroke-miterlimit="10" d="M 590.980469 334.648438 L 590.980469 380.660156 L 627.96875 380.660156 L 627.96875 334.648438 Z M 590.980469 334.648438 "/>
<path fill="none" stroke-width="1.939961" stroke-linecap="butt" stroke-linejoin="miter" stroke="rgb(20%, 20%, 20%)" stroke-opacity="1" stroke-miterlimit="10" d="M 590.980469 366.757812 L 627.96875 366.757812 "/>
<path fill="none" stroke-width="0.96998" stroke-linecap="butt" stroke-linejoin="round" stroke="rgb(20%, 20%, 20%)" stroke-opacity="1" stroke-miterlimit="10" d="M 658.792969 302.171875 L 658.792969 278.300781 "/>
<path fill="none" stroke-width="0.96998" stroke-linecap="butt" stroke-linejoin="round" stroke="rgb(20%, 20%, 20%)" stroke-opacity="1" stroke-miterlimit="10" d="M 658.792969 332.152344 L 658.792969 358 "/>
<path fill-rule="nonzero" fill="rgb(100%, 100%, 100%)" fill-opacity="1" stroke-width="0.96998" stroke-linecap="butt" stroke-linejoin="miter" stroke="rgb(20%, 20%, 20%)" stroke-opacity="1" stroke-miterlimit="10" d="M 640.296875 302.171875 L 640.296875 332.152344 L 677.285156 332.152344 L 677.285156 302.171875 Z M 640.296875 302.171875 "/>
<path fill="none" stroke-width="1.939961" stroke-linecap="butt" stroke-linejoin="miter" stroke="rgb(20%, 20%, 20%)" stroke-opacity="1" stroke-miterlimit="10" d="M 640.296875 319.839844 L 677.285156 319.839844 "/>
<path fill="none" stroke-width="0.96998" stroke-linecap="butt" stroke-linejoin="round" stroke="rgb(20%, 20%, 20%)" stroke-opacity="1" stroke-miterlimit="10" d="M 708.109375 314.460938 L 708.109375 287.074219 "/>
<path fill="none" stroke-width="0.96998" stroke-linecap="butt" stroke-linejoin="round" stroke="rgb(20%, 20%, 20%)" stroke-opacity="1" stroke-miterlimit="10" d="M 708.109375 351.644531 L 708.109375 396.203125 "/>
<path fill-rule="nonzero" fill="rgb(100%, 100%, 100%)" fill-opacity="1" stroke-width="0.96998" stroke-linecap="butt" stroke-linejoin="miter" stroke="rgb(20%, 20%, 20%)" stroke-opacity="1" stroke-miterlimit="10" d="M 689.617188 314.460938 L 689.617188 351.644531 L 726.605469 351.644531 L 726.605469 314.460938 Z M 689.617188 314.460938 "/>
<path fill="none" stroke-width="1.939961" stroke-linecap="butt" stroke-linejoin="miter" stroke="rgb(20%, 20%, 20%)" stroke-opacity="1" stroke-miterlimit="10" d="M 689.617188 332.53125 L 726.605469 332.53125 "/>
<path fill-rule="nonzero" fill="rgb(20%, 20%, 20%)" fill-opacity="1" stroke-width="0.708661" stroke-linecap="round" stroke-linejoin="round" stroke="rgb(20%, 20%, 20%)" stroke-opacity="1" stroke-miterlimit="10" d="M 759.238281 395.796875 C 759.238281 398.210938 755.617188 398.210938 755.617188 395.796875 C 755.617188 393.382812 759.238281 393.382812 759.238281 395.796875 "/>
<path fill="none" stroke-width="0.96998" stroke-linecap="butt" stroke-linejoin="round" stroke="rgb(20%, 20%, 20%)" stroke-opacity="1" stroke-miterlimit="10" d="M 757.429688 320.71875 L 757.429688 297.597656 "/>
<path fill="none" stroke-width="0.96998" stroke-linecap="butt" stroke-linejoin="round" stroke="rgb(20%, 20%, 20%)" stroke-opacity="1" stroke-miterlimit="10" d="M 757.429688 347.988281 L 757.429688 378.644531 "/>
<path fill-rule="nonzero" fill="rgb(100%, 100%, 100%)" fill-opacity="1" stroke-width="0.96998" stroke-linecap="butt" stroke-linejoin="miter" stroke="rgb(20%, 20%, 20%)" stroke-opacity="1" stroke-miterlimit="10" d="M 738.933594 320.71875 L 738.933594 347.988281 L 775.921875 347.988281 L 775.921875 320.71875 Z M 738.933594 320.71875 "/>
<path fill="none" stroke-width="1.939961" stroke-linecap="butt" stroke-linejoin="miter" stroke="rgb(20%, 20%, 20%)" stroke-opacity="1" stroke-miterlimit="10" d="M 738.933594 338.484375 L 775.921875 338.484375 "/>
<g clip-path="url(#clip-40)">
<path fill="none" stroke-width="0.96998" stroke-linecap="butt" stroke-linejoin="round" stroke="rgb(100%, 0%, 0%)" stroke-opacity="1" stroke-miterlimit="10" d="M 431.929688 332.96875 L 787.019531 332.96875 "/>
</g>
<g fill="rgb(30.196078%, 30.196078%, 30.196078%)" fill-opacity="1">
<use xlink:href="#glyph-0-0" x="413.664062" y="409.476562"/>
<use xlink:href="#glyph-0-1" x="416.328125" y="409.476562"/>
<use xlink:href="#glyph-0-2" x="420.777344" y="409.476562"/>
<use xlink:href="#glyph-0-3" x="423" y="409.476562"/>
</g>
<g fill="rgb(30.196078%, 30.196078%, 30.196078%)" fill-opacity="1">
<use xlink:href="#glyph-0-4" x="416.328125" y="336.332031"/>
<use xlink:href="#glyph-0-2" x="420.777344" y="336.332031"/>
<use xlink:href="#glyph-0-4" x="423" y="336.332031"/>
</g>
<g fill="rgb(30.196078%, 30.196078%, 30.196078%)" fill-opacity="1">
<use xlink:href="#glyph-0-1" x="416.328125" y="263.191406"/>
<use xlink:href="#glyph-0-2" x="420.777344" y="263.191406"/>
<use xlink:href="#glyph-0-3" x="423" y="263.191406"/>
</g>
<g fill="rgb(30.196078%, 30.196078%, 30.196078%)" fill-opacity="1">
<use xlink:href="#glyph-0-4" x="459.296875" y="484.734375"/>
</g>
<g fill="rgb(30.196078%, 30.196078%, 30.196078%)" fill-opacity="1">
<use xlink:href="#glyph-0-10" x="508.613281" y="484.734375"/>
</g>
<g fill="rgb(30.196078%, 30.196078%, 30.196078%)" fill-opacity="1">
<use xlink:href="#glyph-0-1" x="557.929688" y="484.734375"/>
</g>
<g fill="rgb(30.196078%, 30.196078%, 30.196078%)" fill-opacity="1">
<use xlink:href="#glyph-0-11" x="607.25" y="484.734375"/>
</g>
<g fill="rgb(30.196078%, 30.196078%, 30.196078%)" fill-opacity="1">
<use xlink:href="#glyph-0-12" x="656.566406" y="484.734375"/>
</g>
<g fill="rgb(30.196078%, 30.196078%, 30.196078%)" fill-opacity="1">
<use xlink:href="#glyph-0-3" x="705.882812" y="484.734375"/>
</g>
<g fill="rgb(30.196078%, 30.196078%, 30.196078%)" fill-opacity="1">
<use xlink:href="#glyph-0-13" x="755.203125" y="484.734375"/>
</g>
<g fill="rgb(0%, 0%, 0%)" fill-opacity="1">
<use xlink:href="#glyph-1-23" x="591.40625" y="496.835938"/>
<use xlink:href="#glyph-1-21" x="598.076172" y="496.835938"/>
<use xlink:href="#glyph-1-24" x="603.637695" y="496.835938"/>
<use xlink:href="#glyph-1-25" x="609.199219" y="496.835938"/>
<use xlink:href="#glyph-1-5" x="611.977539" y="496.835938"/>
<use xlink:href="#glyph-1-3" x="614.199219" y="496.835938"/>
<use xlink:href="#glyph-1-10" x="619.760742" y="496.835938"/>
<use xlink:href="#glyph-1-15" x="621.982422" y="496.835938"/>
</g>
<g fill="rgb(0%, 0%, 0%)" fill-opacity="1">
<use xlink:href="#glyph-2-0" x="409.140625" y="382.761719"/>
<use xlink:href="#glyph-2-1" x="409.140625" y="379.431641"/>
<use xlink:href="#glyph-2-2" x="409.140625" y="373.870117"/>
<use xlink:href="#glyph-2-3" x="409.140625" y="368.870117"/>
<use xlink:href="#glyph-2-4" x="409.140625" y="366.648438"/>
<use xlink:href="#glyph-2-5" x="409.140625" y="361.086914"/>
<use xlink:href="#glyph-2-6" x="409.140625" y="355.525391"/>
<use xlink:href="#glyph-2-7" x="409.140625" y="349.963867"/>
</g>
</svg>
