<?xml version="1.0" encoding="UTF-8"?>
<svg xmlns="http://www.w3.org/2000/svg" xmlns:xlink="http://www.w3.org/1999/xlink" width="720" height="288" viewBox="0 0 720 288">
<defs>
<g>
<g id="glyph-0-0">
<path d="M 0.367188 -3.105469 C 0.367188 -3.851562 0.441406 -4.449219 0.59375 -4.90625 C 0.75 -5.359375 0.976562 -5.710938 1.277344 -5.957031 C 1.582031 -6.203125 1.960938 -6.324219 2.417969 -6.324219 C 2.757812 -6.324219 3.054688 -6.257812 3.308594 -6.121094 C 3.5625 -5.984375 3.773438 -5.789062 3.941406 -5.53125 C 4.105469 -5.277344 4.238281 -4.964844 4.332031 -4.59375 C 4.425781 -4.226562 4.472656 -3.730469 4.472656 -3.105469 C 4.472656 -2.367188 4.398438 -1.769531 4.246094 -1.316406 C 4.09375 -0.863281 3.867188 -0.511719 3.5625 -0.265625 C 3.261719 -0.015625 2.878906 0.109375 2.417969 0.109375 C 1.8125 0.109375 1.335938 -0.109375 0.988281 -0.546875 C 0.574219 -1.070312 0.367188 -1.921875 0.367188 -3.105469 M 1.160156 -3.105469 C 1.160156 -2.074219 1.28125 -1.382812 1.523438 -1.042969 C 1.765625 -0.699219 2.0625 -0.527344 2.417969 -0.527344 C 2.773438 -0.527344 3.074219 -0.699219 3.316406 -1.042969 C 3.558594 -1.386719 3.679688 -2.074219 3.679688 -3.105469 C 3.679688 -4.144531 3.558594 -4.832031 3.316406 -5.171875 C 3.074219 -5.515625 2.773438 -5.683594 2.410156 -5.683594 C 2.054688 -5.683594 1.773438 -5.535156 1.558594 -5.234375 C 1.292969 -4.851562 1.160156 -4.140625 1.160156 -3.105469 Z M 1.160156 -3.105469 "/>
</g>
<g id="glyph-0-1">
<path d="M 0.511719 -4.785156 C 0.511719 -5.238281 0.625 -5.617188 0.851562 -5.933594 C 1.078125 -6.25 1.40625 -6.40625 1.835938 -6.40625 C 2.230469 -6.40625 2.558594 -6.265625 2.816406 -5.984375 C 3.074219 -5.703125 3.207031 -5.285156 3.207031 -4.738281 C 3.207031 -4.207031 3.074219 -3.796875 2.8125 -3.507812 C 2.550781 -3.21875 2.226562 -3.078125 1.84375 -3.078125 C 1.460938 -3.078125 1.144531 -3.21875 0.890625 -3.503906 C 0.636719 -3.785156 0.511719 -4.214844 0.511719 -4.785156 M 1.855469 -5.875 C 1.664062 -5.875 1.503906 -5.789062 1.378906 -5.625 C 1.25 -5.457031 1.1875 -5.152344 1.1875 -4.710938 C 1.1875 -4.304688 1.25 -4.019531 1.378906 -3.855469 C 1.507812 -3.691406 1.667969 -3.609375 1.855469 -3.609375 C 2.050781 -3.609375 2.210938 -3.691406 2.339844 -3.859375 C 2.46875 -4.023438 2.53125 -4.328125 2.53125 -4.769531 C 2.53125 -5.175781 2.464844 -5.460938 2.335938 -5.625 C 2.207031 -5.792969 2.046875 -5.875 1.855469 -5.875 M 1.859375 0.230469 L 5.304688 -6.40625 L 5.933594 -6.40625 L 2.5 0.230469 L 1.859375 0.230469 M 4.585938 -1.476562 C 4.585938 -1.929688 4.699219 -2.3125 4.925781 -2.628906 C 5.152344 -2.941406 5.480469 -3.097656 5.914062 -3.097656 C 6.308594 -3.097656 6.636719 -2.957031 6.894531 -2.675781 C 7.152344 -2.394531 7.28125 -1.976562 7.285156 -1.429688 C 7.28125 -0.898438 7.152344 -0.488281 6.890625 -0.199219 C 6.628906 0.0898438 6.304688 0.230469 5.917969 0.230469 C 5.535156 0.230469 5.21875 0.0898438 4.964844 -0.195312 C 4.710938 -0.480469 4.585938 -0.90625 4.585938 -1.476562 M 5.933594 -2.566406 C 5.738281 -2.566406 5.578125 -2.480469 5.449219 -2.316406 C 5.324219 -2.148438 5.257812 -1.84375 5.257812 -1.402344 C 5.257812 -1 5.324219 -0.714844 5.453125 -0.550781 C 5.582031 -0.382812 5.742188 -0.300781 5.929688 -0.300781 C 6.128906 -0.300781 6.289062 -0.382812 6.417969 -0.550781 C 6.542969 -0.714844 6.609375 -1.019531 6.609375 -1.460938 C 6.609375 -1.867188 6.542969 -2.152344 6.414062 -2.316406 C 6.285156 -2.484375 6.125 -2.566406 5.933594 -2.566406 Z M 5.933594 -2.566406 "/>
</g>
<g id="glyph-0-2">
<path d="M 0.367188 -1.648438 L 1.175781 -1.71875 C 1.238281 -1.324219 1.378906 -1.027344 1.597656 -0.828125 C 1.816406 -0.628906 2.078125 -0.527344 2.390625 -0.527344 C 2.761719 -0.527344 3.078125 -0.667969 3.335938 -0.949219 C 3.59375 -1.230469 3.722656 -1.601562 3.722656 -2.066406 C 3.722656 -2.507812 3.597656 -2.855469 3.347656 -3.109375 C 3.101562 -3.367188 2.777344 -3.492188 2.375 -3.492188 C 2.125 -3.492188 1.902344 -3.4375 1.703125 -3.324219 C 1.5 -3.210938 1.34375 -3.0625 1.230469 -2.882812 L 0.503906 -2.976562 L 1.113281 -6.214844 L 4.246094 -6.214844 L 4.246094 -5.472656 L 1.730469 -5.472656 L 1.390625 -3.78125 C 1.769531 -4.042969 2.167969 -4.175781 2.582031 -4.175781 C 3.132812 -4.175781 3.597656 -3.984375 3.976562 -3.605469 C 4.351562 -3.222656 4.542969 -2.734375 4.542969 -2.136719 C 4.542969 -1.566406 4.375 -1.074219 4.042969 -0.65625 C 3.640625 -0.148438 3.089844 0.109375 2.390625 0.109375 C 1.816406 0.109375 1.347656 -0.0546875 0.984375 -0.375 C 0.625 -0.695312 0.417969 -1.121094 0.367188 -1.648438 Z M 0.367188 -1.648438 "/>
</g>
<g id="glyph-0-3">
<path d="M 3.277344 0 L 2.503906 0 L 2.503906 -4.929688 C 2.320312 -4.75 2.074219 -4.574219 1.773438 -4.394531 C 1.46875 -4.21875 1.199219 -4.085938 0.957031 -3.996094 L 0.957031 -4.742188 C 1.390625 -4.945312 1.769531 -5.195312 2.09375 -5.484375 C 2.417969 -5.773438 2.644531 -6.054688 2.78125 -6.324219 L 3.277344 -6.324219 Z M 3.277344 0 "/>
</g>
<g id="glyph-0-4">
<path d="M 4.429688 -0.742188 L 4.429688 0 L 0.265625 0 C 0.261719 -0.1875 0.289062 -0.367188 0.355469 -0.539062 C 0.460938 -0.820312 0.632812 -1.101562 0.867188 -1.375 C 1.097656 -1.648438 1.4375 -1.96875 1.878906 -2.328125 C 2.5625 -2.890625 3.023438 -3.335938 3.265625 -3.664062 C 3.507812 -3.992188 3.625 -4.300781 3.625 -4.59375 C 3.625 -4.898438 3.515625 -5.160156 3.296875 -5.367188 C 3.078125 -5.578125 2.792969 -5.683594 2.441406 -5.683594 C 2.066406 -5.683594 1.769531 -5.574219 1.546875 -5.351562 C 1.324219 -5.125 1.210938 -4.816406 1.207031 -4.421875 L 0.414062 -4.503906 C 0.46875 -5.097656 0.671875 -5.546875 1.027344 -5.859375 C 1.382812 -6.167969 1.859375 -6.324219 2.457031 -6.324219 C 3.0625 -6.324219 3.539062 -6.15625 3.894531 -5.824219 C 4.246094 -5.488281 4.421875 -5.070312 4.421875 -4.578125 C 4.421875 -4.324219 4.371094 -4.078125 4.265625 -3.832031 C 4.164062 -3.589844 3.992188 -3.332031 3.753906 -3.0625 C 3.515625 -2.792969 3.117188 -2.425781 2.5625 -1.957031 C 2.097656 -1.566406 1.800781 -1.300781 1.667969 -1.164062 C 1.535156 -1.023438 1.425781 -0.882812 1.339844 -0.742188 Z M 4.429688 -0.742188 "/>
</g>
<g id="glyph-0-5">
<path d="M 2.84375 0 L 2.84375 -1.507812 L 0.113281 -1.507812 L 0.113281 -2.21875 L 2.988281 -6.300781 L 3.617188 -6.300781 L 3.617188 -2.21875 L 4.46875 -2.21875 L 4.46875 -1.507812 L 3.617188 -1.507812 L 3.617188 0 L 2.84375 0 M 2.84375 -2.21875 L 2.84375 -5.058594 L 0.871094 -2.21875 Z M 2.84375 -2.21875 "/>
</g>
<g id="glyph-0-6">
<path d="M 4.378906 -4.757812 L 3.609375 -4.695312 C 3.539062 -5 3.441406 -5.21875 3.316406 -5.359375 C 3.109375 -5.578125 2.851562 -5.6875 2.542969 -5.6875 C 2.296875 -5.6875 2.082031 -5.621094 1.894531 -5.484375 C 1.652344 -5.304688 1.460938 -5.046875 1.320312 -4.703125 C 1.179688 -4.363281 1.105469 -3.878906 1.101562 -3.25 C 1.285156 -3.53125 1.515625 -3.742188 1.785156 -3.878906 C 2.050781 -4.015625 2.335938 -4.085938 2.628906 -4.085938 C 3.144531 -4.085938 3.585938 -3.898438 3.945312 -3.515625 C 4.308594 -3.136719 4.492188 -2.648438 4.492188 -2.046875 C 4.492188 -1.648438 4.40625 -1.28125 4.234375 -0.941406 C 4.0625 -0.605469 3.828125 -0.34375 3.53125 -0.164062 C 3.234375 0.015625 2.894531 0.109375 2.519531 0.109375 C 1.875 0.109375 1.347656 -0.128906 0.941406 -0.605469 C 0.535156 -1.078125 0.332031 -1.859375 0.332031 -2.949219 C 0.332031 -4.164062 0.554688 -5.050781 1.003906 -5.601562 C 1.398438 -6.085938 1.925781 -6.324219 2.589844 -6.324219 C 3.085938 -6.324219 3.492188 -6.1875 3.808594 -5.910156 C 4.125 -5.628906 4.316406 -5.246094 4.378906 -4.757812 M 1.21875 -2.039062 C 1.21875 -1.773438 1.277344 -1.519531 1.390625 -1.277344 C 1.503906 -1.03125 1.660156 -0.847656 1.863281 -0.71875 C 2.066406 -0.59375 2.28125 -0.527344 2.503906 -0.527344 C 2.832031 -0.527344 3.113281 -0.660156 3.347656 -0.925781 C 3.582031 -1.1875 3.699219 -1.546875 3.699219 -2 C 3.699219 -2.433594 3.582031 -2.777344 3.351562 -3.027344 C 3.121094 -3.277344 2.828125 -3.402344 2.476562 -3.402344 C 2.125 -3.402344 1.828125 -3.277344 1.585938 -3.027344 C 1.34375 -2.777344 1.21875 -2.449219 1.21875 -2.039062 Z M 1.21875 -2.039062 "/>
</g>
<g id="glyph-0-7">
<path d="M 1.554688 -3.417969 C 1.234375 -3.535156 0.996094 -3.699219 0.84375 -3.917969 C 0.6875 -4.136719 0.609375 -4.398438 0.609375 -4.699219 C 0.609375 -5.160156 0.773438 -5.542969 1.105469 -5.855469 C 1.433594 -6.167969 1.871094 -6.324219 2.417969 -6.324219 C 2.96875 -6.324219 3.410156 -6.164062 3.746094 -5.847656 C 4.082031 -5.527344 4.25 -5.136719 4.25 -4.679688 C 4.25 -4.386719 4.171875 -4.132812 4.019531 -3.917969 C 3.867188 -3.699219 3.632812 -3.535156 3.320312 -3.417969 C 3.707031 -3.289062 4.003906 -3.085938 4.203125 -2.804688 C 4.40625 -2.523438 4.507812 -2.191406 4.507812 -1.800781 C 4.507812 -1.261719 4.316406 -0.808594 3.9375 -0.441406 C 3.554688 -0.0742188 3.054688 0.109375 2.433594 0.109375 C 1.808594 0.109375 1.308594 -0.078125 0.929688 -0.445312 C 0.546875 -0.8125 0.355469 -1.273438 0.355469 -1.820312 C 0.355469 -2.230469 0.460938 -2.574219 0.667969 -2.851562 C 0.875 -3.128906 1.171875 -3.316406 1.554688 -3.417969 M 1.402344 -4.726562 C 1.402344 -4.429688 1.496094 -4.183594 1.6875 -3.996094 C 1.878906 -3.808594 2.128906 -3.710938 2.4375 -3.710938 C 2.734375 -3.710938 2.976562 -3.804688 3.167969 -3.992188 C 3.359375 -4.179688 3.453125 -4.410156 3.453125 -4.683594 C 3.453125 -4.96875 3.355469 -5.207031 3.160156 -5.398438 C 2.964844 -5.59375 2.71875 -5.6875 2.429688 -5.6875 C 2.132812 -5.6875 1.886719 -5.59375 1.691406 -5.40625 C 1.5 -5.214844 1.402344 -4.988281 1.402344 -4.726562 M 1.152344 -1.816406 C 1.152344 -1.597656 1.203125 -1.382812 1.308594 -1.175781 C 1.414062 -0.972656 1.570312 -0.8125 1.773438 -0.699219 C 1.980469 -0.585938 2.203125 -0.527344 2.441406 -0.527344 C 2.808594 -0.527344 3.117188 -0.648438 3.355469 -0.886719 C 3.597656 -1.121094 3.71875 -1.425781 3.71875 -1.792969 C 3.71875 -2.164062 3.59375 -2.472656 3.34375 -2.714844 C 3.097656 -2.960938 2.789062 -3.082031 2.414062 -3.082031 C 2.050781 -3.082031 1.75 -2.960938 1.511719 -2.71875 C 1.269531 -2.480469 1.152344 -2.179688 1.152344 -1.816406 Z M 1.152344 -1.816406 "/>
</g>
<g id="glyph-0-8">
<path d="M 0.371094 -1.664062 L 1.144531 -1.765625 C 1.230469 -1.328125 1.382812 -1.011719 1.597656 -0.820312 C 1.808594 -0.625 2.070312 -0.527344 2.375 -0.527344 C 2.738281 -0.527344 3.046875 -0.65625 3.296875 -0.90625 C 3.546875 -1.160156 3.671875 -1.472656 3.675781 -1.84375 C 3.671875 -2.199219 3.558594 -2.492188 3.324219 -2.722656 C 3.09375 -2.953125 2.796875 -3.066406 2.441406 -3.066406 C 2.292969 -3.066406 2.113281 -3.039062 1.894531 -2.980469 L 1.980469 -3.660156 C 2.03125 -3.65625 2.074219 -3.652344 2.105469 -3.652344 C 2.433594 -3.652344 2.730469 -3.738281 2.996094 -3.910156 C 3.257812 -4.082031 3.390625 -4.347656 3.390625 -4.703125 C 3.390625 -4.988281 3.292969 -5.222656 3.101562 -5.410156 C 2.910156 -5.597656 2.664062 -5.6875 2.359375 -5.6875 C 2.058594 -5.6875 1.808594 -5.59375 1.605469 -5.40625 C 1.40625 -5.214844 1.277344 -4.933594 1.21875 -4.554688 L 0.445312 -4.691406 C 0.542969 -5.210938 0.757812 -5.613281 1.089844 -5.898438 C 1.425781 -6.183594 1.84375 -6.324219 2.34375 -6.324219 C 2.6875 -6.324219 3.003906 -6.25 3.292969 -6.105469 C 3.582031 -5.957031 3.800781 -5.753906 3.957031 -5.5 C 4.109375 -5.246094 4.183594 -4.972656 4.183594 -4.6875 C 4.183594 -4.414062 4.113281 -4.167969 3.964844 -3.945312 C 3.820312 -3.722656 3.605469 -3.542969 3.316406 -3.410156 C 3.691406 -3.324219 3.980469 -3.148438 4.183594 -2.875 C 4.390625 -2.605469 4.496094 -2.265625 4.496094 -1.859375 C 4.496094 -1.3125 4.292969 -0.84375 3.894531 -0.460938 C 3.492188 -0.078125 2.984375 0.113281 2.371094 0.113281 C 1.820312 0.113281 1.359375 -0.0546875 0.996094 -0.382812 C 0.628906 -0.710938 0.421875 -1.140625 0.371094 -1.664062 Z M 0.371094 -1.664062 "/>
</g>
<g id="glyph-1-0">
<path d="M 0.816406 0 L 0.816406 -7.875 L 2.382812 -7.875 L 4.25 -2.296875 C 4.421875 -1.78125 4.546875 -1.390625 4.625 -1.132812 C 4.714844 -1.417969 4.855469 -1.839844 5.042969 -2.394531 L 6.929688 -7.875 L 8.332031 -7.875 L 8.332031 0 L 7.328125 0 L 7.328125 -6.589844 L 5.039062 0 L 4.097656 0 L 1.820312 -6.703125 L 1.820312 0 Z M 0.816406 0 "/>
</g>
<g id="glyph-1-1">
<path d="M 4.628906 -1.835938 L 5.628906 -1.714844 C 5.472656 -1.128906 5.179688 -0.675781 4.753906 -0.355469 C 4.328125 -0.03125 3.78125 0.128906 3.121094 0.128906 C 2.285156 0.128906 1.625 -0.128906 1.136719 -0.640625 C 0.648438 -1.15625 0.402344 -1.875 0.402344 -2.804688 C 0.402344 -3.761719 0.648438 -4.507812 1.144531 -5.039062 C 1.636719 -5.566406 2.277344 -5.832031 3.066406 -5.832031 C 3.828125 -5.832031 4.453125 -5.574219 4.9375 -5.054688 C 5.417969 -4.535156 5.660156 -3.804688 5.660156 -2.863281 C 5.660156 -2.804688 5.660156 -2.71875 5.65625 -2.605469 L 1.402344 -2.605469 C 1.4375 -1.976562 1.613281 -1.5 1.933594 -1.164062 C 2.253906 -0.832031 2.648438 -0.664062 3.125 -0.664062 C 3.480469 -0.664062 3.78125 -0.757812 4.035156 -0.945312 C 4.285156 -1.132812 4.484375 -1.429688 4.628906 -1.835938 M 1.457031 -3.398438 L 4.640625 -3.398438 C 4.597656 -3.878906 4.476562 -4.238281 4.273438 -4.480469 C 3.96875 -4.851562 3.566406 -5.039062 3.078125 -5.039062 C 2.632812 -5.039062 2.261719 -4.890625 1.957031 -4.59375 C 1.65625 -4.296875 1.488281 -3.898438 1.457031 -3.398438 Z M 1.457031 -3.398438 "/>
</g>
<g id="glyph-1-2">
<path d="M 4.425781 0 L 4.425781 -0.71875 C 4.0625 -0.152344 3.53125 0.128906 2.832031 0.128906 C 2.375 0.128906 1.957031 0.00390625 1.578125 -0.246094 C 1.195312 -0.496094 0.898438 -0.847656 0.691406 -1.296875 C 0.480469 -1.746094 0.375 -2.261719 0.375 -2.847656 C 0.375 -3.414062 0.472656 -3.933594 0.660156 -4.394531 C 0.851562 -4.859375 1.136719 -5.214844 1.515625 -5.460938 C 1.894531 -5.710938 2.320312 -5.832031 2.789062 -5.832031 C 3.132812 -5.832031 3.4375 -5.761719 3.707031 -5.617188 C 3.976562 -5.46875 4.191406 -5.28125 4.359375 -5.046875 L 4.359375 -7.875 L 5.324219 -7.875 L 5.324219 0 L 4.425781 0 M 1.371094 -2.847656 C 1.371094 -2.117188 1.523438 -1.570312 1.832031 -1.207031 C 2.140625 -0.847656 2.503906 -0.664062 2.921875 -0.664062 C 3.34375 -0.664062 3.703125 -0.839844 4 -1.183594 C 4.292969 -1.53125 4.441406 -2.058594 4.441406 -2.765625 C 4.441406 -3.546875 4.292969 -4.121094 3.992188 -4.484375 C 3.691406 -4.851562 3.320312 -5.03125 2.878906 -5.03125 C 2.449219 -5.03125 2.089844 -4.855469 1.800781 -4.507812 C 1.515625 -4.15625 1.371094 -3.601562 1.371094 -2.847656 Z M 1.371094 -2.847656 "/>
</g>
<g id="glyph-1-3">
<path d="M 0.730469 -6.761719 L 0.730469 -7.875 L 1.695312 -7.875 L 1.695312 -6.761719 L 0.730469 -6.761719 M 0.730469 0 L 0.730469 -5.703125 L 1.695312 -5.703125 L 1.695312 0 Z M 0.730469 0 "/>
</g>
<g id="glyph-1-4">
<path d="M 4.445312 -0.703125 C 4.089844 -0.398438 3.746094 -0.183594 3.414062 -0.0585938 C 3.082031 0.0664062 2.726562 0.128906 2.347656 0.128906 C 1.71875 0.128906 1.238281 -0.0234375 0.902344 -0.332031 C 0.566406 -0.636719 0.398438 -1.027344 0.398438 -1.503906 C 0.398438 -1.78125 0.460938 -2.039062 0.589844 -2.269531 C 0.714844 -2.5 0.882812 -2.6875 1.085938 -2.824219 C 1.292969 -2.964844 1.523438 -3.070312 1.78125 -3.140625 C 1.972656 -3.191406 2.257812 -3.242188 2.640625 -3.289062 C 3.421875 -3.378906 3.996094 -3.492188 4.367188 -3.621094 C 4.371094 -3.753906 4.371094 -3.835938 4.371094 -3.871094 C 4.371094 -4.265625 4.28125 -4.542969 4.097656 -4.703125 C 3.851562 -4.921875 3.484375 -5.03125 2.996094 -5.03125 C 2.542969 -5.03125 2.207031 -4.953125 1.988281 -4.792969 C 1.773438 -4.632812 1.613281 -4.351562 1.507812 -3.949219 L 0.5625 -4.078125 C 0.648438 -4.480469 0.792969 -4.808594 0.988281 -5.058594 C 1.183594 -5.304688 1.46875 -5.496094 1.84375 -5.632812 C 2.214844 -5.765625 2.644531 -5.832031 3.136719 -5.832031 C 3.625 -5.832031 4.019531 -5.777344 4.324219 -5.660156 C 4.628906 -5.546875 4.851562 -5.402344 4.996094 -5.230469 C 5.136719 -5.054688 5.238281 -4.835938 5.296875 -4.570312 C 5.328125 -4.40625 5.34375 -4.109375 5.34375 -3.679688 L 5.34375 -2.390625 C 5.34375 -1.492188 5.363281 -0.921875 5.40625 -0.683594 C 5.445312 -0.445312 5.527344 -0.21875 5.648438 0 L 4.640625 0 C 4.539062 -0.199219 4.476562 -0.433594 4.445312 -0.703125 M 4.367188 -2.863281 C 4.015625 -2.71875 3.488281 -2.597656 2.789062 -2.496094 C 2.390625 -2.441406 2.109375 -2.375 1.945312 -2.304688 C 1.78125 -2.234375 1.652344 -2.128906 1.5625 -1.988281 C 1.472656 -1.851562 1.429688 -1.699219 1.429688 -1.53125 C 1.429688 -1.273438 1.527344 -1.058594 1.722656 -0.886719 C 1.917969 -0.714844 2.203125 -0.628906 2.578125 -0.628906 C 2.949219 -0.628906 3.28125 -0.710938 3.570312 -0.871094 C 3.863281 -1.035156 4.074219 -1.257812 4.210938 -1.542969 C 4.316406 -1.761719 4.367188 -2.082031 4.367188 -2.507812 Z M 4.367188 -2.863281 "/>
</g>
<g id="glyph-1-5">
<path d="M 0.726562 0 L 0.726562 -5.703125 L 1.59375 -5.703125 L 1.59375 -4.894531 C 2.015625 -5.519531 2.621094 -5.832031 3.410156 -5.832031 C 3.753906 -5.832031 4.070312 -5.769531 4.359375 -5.648438 C 4.648438 -5.523438 4.863281 -5.363281 5.007812 -5.160156 C 5.148438 -4.960938 5.25 -4.722656 5.304688 -4.445312 C 5.34375 -4.269531 5.359375 -3.953125 5.359375 -3.507812 L 5.359375 0 L 4.394531 0 L 4.394531 -3.46875 C 4.394531 -3.863281 4.355469 -4.15625 4.28125 -4.351562 C 4.207031 -4.546875 4.070312 -4.703125 3.878906 -4.820312 C 3.6875 -4.9375 3.464844 -4.996094 3.207031 -4.996094 C 2.792969 -4.996094 2.4375 -4.863281 2.140625 -4.601562 C 1.839844 -4.339844 1.691406 -3.84375 1.691406 -3.117188 L 1.691406 0 Z M 0.726562 0 "/>
</g>
<g id="glyph-1-6">
</g>
<g id="glyph-1-7">
<path d="M 0.339844 -1.703125 L 1.292969 -1.851562 C 1.347656 -1.46875 1.496094 -1.175781 1.742188 -0.972656 C 1.988281 -0.769531 2.332031 -0.664062 2.773438 -0.664062 C 3.214844 -0.664062 3.546875 -0.757812 3.757812 -0.9375 C 3.976562 -1.117188 4.082031 -1.332031 4.082031 -1.574219 C 4.082031 -1.792969 3.988281 -1.964844 3.796875 -2.089844 C 3.664062 -2.175781 3.335938 -2.285156 2.808594 -2.417969 C 2.101562 -2.597656 1.609375 -2.75 1.335938 -2.882812 C 1.0625 -3.011719 0.851562 -3.191406 0.710938 -3.425781 C 0.570312 -3.65625 0.5 -3.910156 0.5 -4.1875 C 0.5 -4.445312 0.558594 -4.679688 0.675781 -4.894531 C 0.789062 -5.113281 0.949219 -5.292969 1.148438 -5.4375 C 1.300781 -5.546875 1.503906 -5.640625 1.765625 -5.71875 C 2.023438 -5.792969 2.300781 -5.832031 2.601562 -5.832031 C 3.046875 -5.832031 3.441406 -5.769531 3.777344 -5.640625 C 4.117188 -5.511719 4.367188 -5.335938 4.527344 -5.117188 C 4.6875 -4.894531 4.800781 -4.601562 4.859375 -4.234375 L 3.914062 -4.101562 C 3.871094 -4.398438 3.75 -4.625 3.542969 -4.789062 C 3.335938 -4.957031 3.046875 -5.039062 2.667969 -5.039062 C 2.226562 -5.039062 1.910156 -4.964844 1.71875 -4.816406 C 1.527344 -4.671875 1.433594 -4.5 1.433594 -4.300781 C 1.433594 -4.175781 1.472656 -4.0625 1.550781 -3.964844 C 1.632812 -3.859375 1.753906 -3.773438 1.921875 -3.707031 C 2.019531 -3.671875 2.304688 -3.585938 2.777344 -3.460938 C 3.460938 -3.277344 3.9375 -3.125 4.207031 -3.011719 C 4.480469 -2.894531 4.691406 -2.726562 4.84375 -2.503906 C 5 -2.28125 5.074219 -2.003906 5.074219 -1.675781 C 5.074219 -1.351562 4.980469 -1.050781 4.792969 -0.765625 C 4.605469 -0.480469 4.335938 -0.261719 3.980469 -0.105469 C 3.625 0.0507812 3.222656 0.128906 2.777344 0.128906 C 2.035156 0.128906 1.472656 -0.0234375 1.082031 -0.332031 C 0.695312 -0.640625 0.445312 -1.097656 0.339844 -1.703125 Z M 0.339844 -1.703125 "/>
</g>
<g id="glyph-1-8">
<path d="M 2.835938 -0.863281 L 2.976562 -0.0117188 C 2.703125 0.046875 2.460938 0.0742188 2.246094 0.0742188 C 1.894531 0.0742188 1.621094 0.0195312 1.429688 -0.0898438 C 1.234375 -0.203125 1.097656 -0.347656 1.019531 -0.527344 C 0.941406 -0.710938 0.902344 -1.089844 0.902344 -1.671875 L 0.902344 -4.953125 L 0.195312 -4.953125 L 0.195312 -5.703125 L 0.902344 -5.703125 L 0.902344 -7.117188 L 1.863281 -7.695312 L 1.863281 -5.703125 L 2.835938 -5.703125 L 2.835938 -4.953125 L 1.863281 -4.953125 L 1.863281 -1.617188 C 1.863281 -1.339844 1.878906 -1.164062 1.914062 -1.085938 C 1.949219 -1.007812 2.003906 -0.945312 2.082031 -0.898438 C 2.160156 -0.851562 2.269531 -0.828125 2.410156 -0.828125 C 2.519531 -0.828125 2.660156 -0.839844 2.835938 -0.863281 Z M 2.835938 -0.863281 "/>
</g>
<g id="glyph-1-9">
<path d="M 4.445312 -2.089844 L 5.398438 -1.964844 C 5.292969 -1.3125 5.027344 -0.796875 4.601562 -0.425781 C 4.171875 -0.0546875 3.648438 0.128906 3.023438 0.128906 C 2.242188 0.128906 1.617188 -0.125 1.140625 -0.636719 C 0.667969 -1.148438 0.429688 -1.878906 0.429688 -2.832031 C 0.429688 -3.445312 0.53125 -3.984375 0.734375 -4.445312 C 0.941406 -4.910156 1.25 -5.253906 1.667969 -5.488281 C 2.085938 -5.71875 2.539062 -5.832031 3.03125 -5.832031 C 3.648438 -5.832031 4.15625 -5.675781 4.550781 -5.363281 C 4.941406 -5.050781 5.195312 -4.605469 5.304688 -4.027344 L 4.367188 -3.882812 C 4.277344 -4.265625 4.117188 -4.554688 3.890625 -4.75 C 3.664062 -4.941406 3.390625 -5.039062 3.066406 -5.039062 C 2.578125 -5.039062 2.183594 -4.863281 1.878906 -4.515625 C 1.574219 -4.164062 1.421875 -3.613281 1.421875 -2.859375 C 1.421875 -2.089844 1.570312 -1.535156 1.863281 -1.1875 C 2.15625 -0.839844 2.539062 -0.664062 3.011719 -0.664062 C 3.394531 -0.664062 3.710938 -0.78125 3.964844 -1.015625 C 4.21875 -1.246094 4.378906 -1.605469 4.445312 -2.089844 Z M 4.445312 -2.089844 "/>
</g>
<g id="glyph-1-10">
<path d="M 0.703125 0 L 0.703125 -7.875 L 1.671875 -7.875 L 1.671875 0 Z M 0.703125 0 "/>
</g>
<g id="glyph-1-11">
<path d="M 0.726562 2.1875 L 0.726562 -5.703125 L 1.605469 -5.703125 L 1.605469 -4.960938 C 1.8125 -5.253906 2.046875 -5.46875 2.308594 -5.617188 C 2.570312 -5.761719 2.886719 -5.832031 3.261719 -5.832031 C 3.746094 -5.832031 4.175781 -5.707031 4.550781 -5.457031 C 4.921875 -5.207031 5.203125 -4.851562 5.390625 -4.394531 C 5.582031 -3.941406 5.675781 -3.4375 5.675781 -2.894531 C 5.675781 -2.3125 5.574219 -1.785156 5.363281 -1.320312 C 5.152344 -0.851562 4.847656 -0.492188 4.449219 -0.246094 C 4.050781 0.00390625 3.632812 0.128906 3.191406 0.128906 C 2.867188 0.128906 2.578125 0.0625 2.324219 -0.0742188 C 2.066406 -0.210938 1.855469 -0.382812 1.691406 -0.589844 L 1.691406 2.1875 L 0.726562 2.1875 M 1.601562 -2.820312 C 1.601562 -2.085938 1.75 -1.542969 2.046875 -1.191406 C 2.34375 -0.839844 2.703125 -0.664062 3.125 -0.664062 C 3.554688 -0.664062 3.921875 -0.847656 4.230469 -1.210938 C 4.535156 -1.574219 4.6875 -2.136719 4.6875 -2.898438 C 4.6875 -3.628906 4.539062 -4.171875 4.242188 -4.53125 C 3.941406 -4.894531 3.585938 -5.074219 3.167969 -5.074219 C 2.757812 -5.074219 2.394531 -4.882812 2.074219 -4.5 C 1.757812 -4.113281 1.601562 -3.554688 1.601562 -2.820312 Z M 1.601562 -2.820312 "/>
</g>
<g id="glyph-1-12">
<path d="M 0.367188 -2.851562 C 0.367188 -3.910156 0.660156 -4.691406 1.246094 -5.199219 C 1.738281 -5.621094 2.335938 -5.832031 3.039062 -5.832031 C 3.824219 -5.832031 4.464844 -5.574219 4.960938 -5.0625 C 5.460938 -4.546875 5.710938 -3.839844 5.710938 -2.933594 C 5.710938 -2.199219 5.597656 -1.621094 5.378906 -1.199219 C 5.160156 -0.78125 4.839844 -0.453125 4.417969 -0.21875 C 3.996094 0.0117188 3.539062 0.128906 3.039062 0.128906 C 2.242188 0.128906 1.597656 -0.128906 1.105469 -0.640625 C 0.613281 -1.152344 0.367188 -1.890625 0.367188 -2.851562 M 1.359375 -2.851562 C 1.359375 -2.121094 1.519531 -1.574219 1.835938 -1.210938 C 2.15625 -0.847656 2.554688 -0.664062 3.039062 -0.664062 C 3.519531 -0.664062 3.917969 -0.847656 4.238281 -1.214844 C 4.554688 -1.578125 4.714844 -2.136719 4.714844 -2.882812 C 4.714844 -3.589844 4.554688 -4.125 4.234375 -4.488281 C 3.914062 -4.851562 3.515625 -5.03125 3.039062 -5.03125 C 2.554688 -5.03125 2.15625 -4.851562 1.835938 -4.492188 C 1.519531 -4.128906 1.359375 -3.582031 1.359375 -2.851562 Z M 1.359375 -2.851562 "/>
</g>
<g id="glyph-1-13">
<path d="M 1.777344 0 L 0.03125 -5.703125 L 1.03125 -5.703125 L 1.9375 -2.410156 L 2.277344 -1.1875 C 2.292969 -1.246094 2.390625 -1.640625 2.574219 -2.363281 L 3.480469 -5.703125 L 4.472656 -5.703125 L 5.328125 -2.394531 L 5.613281 -1.304688 L 5.941406 -2.40625 L 6.917969 -5.703125 L 7.859375 -5.703125 L 6.074219 0 L 5.070312 0 L 4.164062 -3.414062 L 3.941406 -4.386719 L 2.789062 0 Z M 1.777344 0 "/>
</g>
<g id="glyph-1-14">
<path d="M 0.714844 0 L 0.714844 -5.703125 L 1.585938 -5.703125 L 1.585938 -4.839844 C 1.804688 -5.242188 2.011719 -5.511719 2.199219 -5.640625 C 2.386719 -5.769531 2.59375 -5.832031 2.820312 -5.832031 C 3.144531 -5.832031 3.476562 -5.730469 3.8125 -5.523438 L 3.480469 -4.625 C 3.242188 -4.765625 3.007812 -4.832031 2.773438 -4.835938 C 2.558594 -4.832031 2.371094 -4.769531 2.203125 -4.644531 C 2.035156 -4.515625 1.914062 -4.339844 1.84375 -4.113281 C 1.734375 -3.769531 1.679688 -3.394531 1.679688 -2.984375 L 1.679688 0 Z M 0.714844 0 "/>
</g>
<g id="glyph-1-15">
<path d="M 0.957031 0 L 0.957031 -4.953125 L 0.101562 -4.953125 L 0.101562 -5.703125 L 0.957031 -5.703125 L 0.957031 -6.3125 C 0.957031 -6.695312 0.988281 -6.980469 1.058594 -7.164062 C 1.152344 -7.414062 1.316406 -7.617188 1.550781 -7.773438 C 1.785156 -7.929688 2.113281 -8.007812 2.535156 -8.007812 C 2.808594 -8.007812 3.109375 -7.976562 3.4375 -7.910156 L 3.292969 -7.070312 C 3.09375 -7.105469 2.902344 -7.121094 2.722656 -7.121094 C 2.429688 -7.121094 2.222656 -7.058594 2.101562 -6.933594 C 1.976562 -6.808594 1.917969 -6.574219 1.917969 -6.230469 L 1.917969 -5.703125 L 3.03125 -5.703125 L 3.03125 -4.953125 L 1.917969 -4.953125 L 1.917969 0 Z M 0.957031 0 "/>
</g>
<g id="glyph-1-16">
<path d="M 0.726562 0 L 0.726562 -5.703125 L 1.589844 -5.703125 L 1.589844 -4.902344 C 1.769531 -5.183594 2.007812 -5.40625 2.304688 -5.578125 C 2.601562 -5.746094 2.941406 -5.832031 3.320312 -5.832031 C 3.742188 -5.832031 4.089844 -5.746094 4.359375 -5.570312 C 4.628906 -5.394531 4.820312 -5.148438 4.929688 -4.835938 C 5.382812 -5.5 5.96875 -5.832031 6.691406 -5.832031 C 7.257812 -5.832031 7.691406 -5.675781 7.996094 -5.363281 C 8.300781 -5.050781 8.453125 -4.566406 8.453125 -3.914062 L 8.453125 0 L 7.492188 0 L 7.492188 -3.59375 C 7.492188 -3.980469 7.460938 -4.257812 7.398438 -4.429688 C 7.335938 -4.597656 7.222656 -4.734375 7.058594 -4.839844 C 6.894531 -4.941406 6.699219 -4.996094 6.476562 -4.996094 C 6.078125 -4.996094 5.742188 -4.863281 5.476562 -4.59375 C 5.214844 -4.328125 5.082031 -3.902344 5.082031 -3.3125 L 5.082031 0 L 4.113281 0 L 4.113281 -3.707031 C 4.113281 -4.136719 4.035156 -4.457031 3.878906 -4.671875 C 3.71875 -4.886719 3.460938 -4.996094 3.105469 -4.996094 C 2.832031 -4.996094 2.582031 -4.921875 2.351562 -4.78125 C 2.117188 -4.636719 1.953125 -4.425781 1.847656 -4.152344 C 1.742188 -3.875 1.691406 -3.480469 1.691406 -2.960938 L 1.691406 0 Z M 0.726562 0 "/>
</g>
<g id="glyph-1-17">
<path d="M 0.683594 2.195312 L 0.574219 1.289062 C 0.785156 1.347656 0.96875 1.375 1.128906 1.375 C 1.34375 1.375 1.515625 1.339844 1.644531 1.265625 C 1.773438 1.195312 1.878906 1.09375 1.960938 0.96875 C 2.019531 0.871094 2.121094 0.628906 2.257812 0.246094 C 2.273438 0.195312 2.300781 0.113281 2.34375 0.0117188 L 0.175781 -5.703125 L 1.21875 -5.703125 L 2.40625 -2.402344 C 2.558594 -1.980469 2.699219 -1.542969 2.820312 -1.078125 C 2.929688 -1.523438 3.0625 -1.957031 3.21875 -2.378906 L 4.4375 -5.703125 L 5.402344 -5.703125 L 3.234375 0.0976562 C 3 0.722656 2.820312 1.15625 2.691406 1.390625 C 2.519531 1.710938 2.320312 1.945312 2.101562 2.09375 C 1.878906 2.242188 1.613281 2.316406 1.304688 2.316406 C 1.117188 2.316406 0.910156 2.277344 0.683594 2.195312 Z M 0.683594 2.195312 "/>
</g>
<g id="glyph-1-18">
<path d="M 0.347656 -2.363281 L 0.347656 -3.335938 L 3.320312 -3.335938 L 3.320312 -2.363281 Z M 0.347656 -2.363281 "/>
</g>
<g id="glyph-1-19">
<path d="M 0.492188 -2.53125 L 1.476562 -2.617188 C 1.523438 -2.222656 1.632812 -1.898438 1.800781 -1.644531 C 1.972656 -1.394531 2.234375 -1.191406 2.59375 -1.035156 C 2.953125 -0.878906 3.355469 -0.800781 3.804688 -0.800781 C 4.199219 -0.800781 4.550781 -0.859375 4.855469 -0.976562 C 5.160156 -1.09375 5.386719 -1.257812 5.535156 -1.464844 C 5.683594 -1.667969 5.757812 -1.894531 5.757812 -2.136719 C 5.757812 -2.382812 5.6875 -2.601562 5.542969 -2.785156 C 5.398438 -2.96875 5.164062 -3.125 4.835938 -3.25 C 4.621094 -3.332031 4.15625 -3.460938 3.433594 -3.632812 C 2.707031 -3.808594 2.203125 -3.972656 1.914062 -4.125 C 1.535156 -4.320312 1.257812 -4.566406 1.070312 -4.859375 C 0.886719 -5.148438 0.796875 -5.476562 0.796875 -5.839844 C 0.796875 -6.234375 0.90625 -6.605469 1.132812 -6.953125 C 1.359375 -7.296875 1.6875 -7.5625 2.121094 -7.738281 C 2.554688 -7.917969 3.035156 -8.007812 3.566406 -8.007812 C 4.148438 -8.007812 4.664062 -7.914062 5.109375 -7.726562 C 5.554688 -7.539062 5.898438 -7.261719 6.140625 -6.898438 C 6.378906 -6.53125 6.507812 -6.117188 6.527344 -5.65625 L 5.527344 -5.582031 C 5.472656 -6.078125 5.292969 -6.453125 4.980469 -6.707031 C 4.671875 -6.960938 4.214844 -7.089844 3.609375 -7.089844 C 2.980469 -7.089844 2.519531 -6.972656 2.230469 -6.742188 C 1.945312 -6.511719 1.800781 -6.234375 1.800781 -5.90625 C 1.800781 -5.625 1.902344 -5.390625 2.105469 -5.210938 C 2.304688 -5.027344 2.828125 -4.839844 3.675781 -4.648438 C 4.523438 -4.457031 5.105469 -4.289062 5.417969 -4.148438 C 5.878906 -3.933594 6.214844 -3.667969 6.433594 -3.34375 C 6.652344 -3.019531 6.761719 -2.644531 6.761719 -2.222656 C 6.761719 -1.804688 6.640625 -1.410156 6.402344 -1.039062 C 6.164062 -0.667969 5.816406 -0.378906 5.367188 -0.175781 C 4.917969 0.03125 4.414062 0.132812 3.851562 0.132812 C 3.136719 0.132812 2.542969 0.03125 2.058594 -0.175781 C 1.578125 -0.386719 1.199219 -0.699219 0.925781 -1.113281 C 0.652344 -1.53125 0.507812 -2.003906 0.492188 -2.53125 Z M 0.492188 -2.53125 "/>
</g>
<g id="glyph-1-20">
<path d="M 0.726562 0 L 0.726562 -7.875 L 1.691406 -7.875 L 1.691406 -5.046875 C 2.144531 -5.570312 2.710938 -5.832031 3.398438 -5.832031 C 3.824219 -5.832031 4.1875 -5.75 4.5 -5.582031 C 4.8125 -5.417969 5.035156 -5.1875 5.167969 -4.894531 C 5.304688 -4.597656 5.371094 -4.171875 5.371094 -3.613281 L 5.371094 0 L 4.40625 0 L 4.40625 -3.613281 C 4.40625 -4.097656 4.300781 -4.449219 4.089844 -4.671875 C 3.878906 -4.890625 3.585938 -5 3.203125 -5 C 2.914062 -5 2.644531 -4.925781 2.394531 -4.777344 C 2.140625 -4.628906 1.960938 -4.425781 1.851562 -4.171875 C 1.746094 -3.917969 1.691406 -3.566406 1.691406 -3.121094 L 1.691406 0 Z M 0.726562 0 "/>
</g>
<g id="glyph-1-21">
<path d="M 4.359375 2.1875 L 4.359375 -0.605469 C 4.210938 -0.394531 4 -0.21875 3.730469 -0.0820312 C 3.460938 0.0585938 3.171875 0.128906 2.867188 0.128906 C 2.191406 0.128906 1.609375 -0.140625 1.121094 -0.683594 C 0.632812 -1.222656 0.386719 -1.964844 0.386719 -2.90625 C 0.386719 -3.480469 0.484375 -3.992188 0.683594 -4.445312 C 0.882812 -4.902344 1.171875 -5.246094 1.550781 -5.480469 C 1.925781 -5.714844 2.34375 -5.832031 2.792969 -5.832031 C 3.5 -5.832031 4.054688 -5.535156 4.457031 -4.941406 L 4.457031 -5.703125 L 5.328125 -5.703125 L 5.328125 2.1875 L 4.359375 2.1875 M 1.378906 -2.867188 C 1.378906 -2.132812 1.535156 -1.582031 1.84375 -1.214844 C 2.148438 -0.847656 2.519531 -0.664062 2.949219 -0.664062 C 3.359375 -0.664062 3.714844 -0.839844 4.011719 -1.191406 C 4.308594 -1.539062 4.457031 -2.070312 4.457031 -2.78125 C 4.457031 -3.542969 4.300781 -4.113281 3.988281 -4.496094 C 3.675781 -4.878906 3.308594 -5.070312 2.882812 -5.070312 C 2.464844 -5.070312 2.109375 -4.890625 1.816406 -4.535156 C 1.527344 -4.179688 1.378906 -3.625 1.378906 -2.867188 Z M 1.378906 -2.867188 "/>
</g>
<g id="glyph-1-22">
<path d="M 4.464844 0 L 4.464844 -0.835938 C 4.019531 -0.195312 3.414062 0.128906 2.652344 0.128906 C 2.316406 0.128906 2.003906 0.0625 1.710938 -0.0625 C 1.417969 -0.195312 1.203125 -0.355469 1.0625 -0.550781 C 0.917969 -0.746094 0.820312 -0.984375 0.761719 -1.265625 C 0.722656 -1.457031 0.703125 -1.757812 0.703125 -2.171875 L 0.703125 -5.703125 L 1.671875 -5.703125 L 1.671875 -2.539062 C 1.671875 -2.035156 1.691406 -1.695312 1.730469 -1.519531 C 1.789062 -1.265625 1.917969 -1.066406 2.117188 -0.921875 C 2.3125 -0.777344 2.554688 -0.703125 2.847656 -0.703125 C 3.136719 -0.703125 3.410156 -0.777344 3.664062 -0.925781 C 3.917969 -1.074219 4.097656 -1.277344 4.203125 -1.535156 C 4.308594 -1.789062 4.359375 -2.160156 4.359375 -2.648438 L 4.359375 -5.703125 L 5.328125 -5.703125 L 5.328125 0 Z M 4.464844 0 "/>
</g>
<g id="glyph-2-0">
<path d="M 0 -0.847656 L -7.875 -0.847656 L -7.875 -3.820312 C -7.875 -4.339844 -7.847656 -4.742188 -7.796875 -5.015625 C -7.734375 -5.402344 -7.613281 -5.726562 -7.429688 -5.988281 C -7.25 -6.25 -6.996094 -6.460938 -6.671875 -6.621094 C -6.34375 -6.777344 -5.988281 -6.859375 -5.597656 -6.859375 C -4.925781 -6.859375 -4.359375 -6.644531 -3.898438 -6.21875 C -3.433594 -5.792969 -3.199219 -5.023438 -3.199219 -3.910156 L -3.203125 -1.890625 L 0 -1.890625 L 0 -0.847656 M -4.128906 -1.890625 L -4.128906 -3.925781 C -4.128906 -4.597656 -4.253906 -5.078125 -4.507812 -5.359375 C -4.757812 -5.644531 -5.109375 -5.785156 -5.5625 -5.785156 C -5.894531 -5.785156 -6.175781 -5.703125 -6.410156 -5.535156 C -6.644531 -5.367188 -6.800781 -5.148438 -6.875 -4.875 C -6.921875 -4.703125 -6.945312 -4.378906 -6.945312 -3.90625 L -6.945312 -1.890625 Z M -4.128906 -1.890625 "/>
</g>
<g id="glyph-2-1">
<path d="M -1.835938 -4.628906 L -1.714844 -5.628906 C -1.128906 -5.472656 -0.675781 -5.179688 -0.355469 -4.753906 C -0.03125 -4.328125 0.128906 -3.78125 0.128906 -3.121094 C 0.128906 -2.285156 -0.128906 -1.625 -0.640625 -1.136719 C -1.15625 -0.648438 -1.875 -0.402344 -2.804688 -0.402344 C -3.761719 -0.402344 -4.507812 -0.648438 -5.039062 -1.144531 C -5.566406 -1.636719 -5.832031 -2.277344 -5.832031 -3.066406 C -5.832031 -3.828125 -5.574219 -4.453125 -5.054688 -4.9375 C -4.535156 -5.417969 -3.804688 -5.660156 -2.863281 -5.660156 C -2.804688 -5.660156 -2.71875 -5.660156 -2.605469 -5.65625 L -2.605469 -1.402344 C -1.976562 -1.4375 -1.5 -1.613281 -1.164062 -1.933594 C -0.832031 -2.253906 -0.664062 -2.648438 -0.664062 -3.125 C -0.664062 -3.480469 -0.757812 -3.78125 -0.945312 -4.035156 C -1.132812 -4.285156 -1.429688 -4.484375 -1.835938 -4.628906 M -3.398438 -1.457031 L -3.398438 -4.640625 C -3.878906 -4.597656 -4.238281 -4.476562 -4.480469 -4.273438 C -4.851562 -3.96875 -5.039062 -3.566406 -5.039062 -3.078125 C -5.039062 -2.632812 -4.890625 -2.261719 -4.59375 -1.957031 C -4.296875 -1.65625 -3.898438 -1.488281 -3.398438 -1.457031 Z M -3.398438 -1.457031 "/>
</g>
<g id="glyph-2-2">
<path d="M 0 -0.714844 L -5.703125 -0.714844 L -5.703125 -1.585938 L -4.839844 -1.585938 C -5.242188 -1.804688 -5.511719 -2.011719 -5.640625 -2.199219 C -5.769531 -2.386719 -5.832031 -2.59375 -5.832031 -2.820312 C -5.832031 -3.144531 -5.730469 -3.476562 -5.523438 -3.8125 L -4.625 -3.480469 C -4.765625 -3.246094 -4.832031 -3.007812 -4.835938 -2.773438 C -4.832031 -2.558594 -4.769531 -2.371094 -4.644531 -2.203125 C -4.515625 -2.035156 -4.339844 -1.914062 -4.113281 -1.84375 C -3.769531 -1.734375 -3.394531 -1.679688 -2.984375 -1.679688 L 0 -1.679688 Z M 0 -0.714844 "/>
</g>
<g id="glyph-2-3">
<path d="M -2.089844 -4.445312 L -1.964844 -5.398438 C -1.308594 -5.292969 -0.796875 -5.027344 -0.425781 -4.601562 C -0.0546875 -4.171875 0.128906 -3.648438 0.128906 -3.023438 C 0.128906 -2.242188 -0.125 -1.617188 -0.636719 -1.140625 C -1.148438 -0.667969 -1.878906 -0.429688 -2.832031 -0.429688 C -3.445312 -0.429688 -3.984375 -0.53125 -4.445312 -0.734375 C -4.910156 -0.941406 -5.253906 -1.25 -5.488281 -1.667969 C -5.71875 -2.085938 -5.832031 -2.539062 -5.832031 -3.03125 C -5.832031 -3.648438 -5.675781 -4.15625 -5.363281 -4.550781 C -5.050781 -4.941406 -4.605469 -5.195312 -4.027344 -5.304688 L -3.882812 -4.367188 C -4.265625 -4.277344 -4.554688 -4.117188 -4.75 -3.890625 C -4.941406 -3.664062 -5.039062 -3.390625 -5.039062 -3.066406 C -5.039062 -2.578125 -4.863281 -2.183594 -4.515625 -1.878906 C -4.164062 -1.574219 -3.613281 -1.421875 -2.859375 -1.421875 C -2.089844 -1.421875 -1.535156 -1.570312 -1.1875 -1.863281 C -0.839844 -2.15625 -0.664062 -2.539062 -0.664062 -3.011719 C -0.664062 -3.394531 -0.78125 -3.710938 -1.015625 -3.964844 C -1.246094 -4.21875 -1.605469 -4.378906 -2.089844 -4.445312 Z M -2.089844 -4.445312 "/>
</g>
<g id="glyph-2-4">
<path d="M 0 -0.726562 L -5.703125 -0.726562 L -5.703125 -1.59375 L -4.894531 -1.59375 C -5.519531 -2.015625 -5.832031 -2.621094 -5.832031 -3.410156 C -5.832031 -3.753906 -5.769531 -4.070312 -5.648438 -4.359375 C -5.523438 -4.648438 -5.363281 -4.863281 -5.160156 -5.007812 C -4.960938 -5.148438 -4.722656 -5.25 -4.445312 -5.304688 C -4.269531 -5.34375 -3.953125 -5.359375 -3.507812 -5.359375 L 0 -5.359375 L 0 -4.394531 L -3.46875 -4.394531 C -3.863281 -4.394531 -4.15625 -4.355469 -4.351562 -4.28125 C -4.546875 -4.207031 -4.703125 -4.070312 -4.820312 -3.878906 C -4.9375 -3.6875 -4.996094 -3.464844 -4.996094 -3.207031 C -4.996094 -2.792969 -4.863281 -2.4375 -4.601562 -2.140625 C -4.339844 -1.839844 -3.84375 -1.691406 -3.117188 -1.691406 L 0 -1.691406 Z M 0 -0.726562 "/>
</g>
<g id="glyph-2-5">
<path d="M -0.863281 -2.835938 L -0.0117188 -2.976562 C 0.046875 -2.703125 0.0742188 -2.460938 0.0742188 -2.246094 C 0.0742188 -1.894531 0.0195312 -1.621094 -0.0898438 -1.429688 C -0.203125 -1.234375 -0.347656 -1.097656 -0.527344 -1.019531 C -0.710938 -0.941406 -1.089844 -0.902344 -1.671875 -0.902344 L -4.953125 -0.902344 L -4.953125 -0.195312 L -5.703125 -0.195312 L -5.703125 -0.902344 L -7.117188 -0.902344 L -7.695312 -1.863281 L -5.703125 -1.863281 L -5.703125 -2.835938 L -4.953125 -2.835938 L -4.953125 -1.863281 L -1.617188 -1.863281 C -1.339844 -1.863281 -1.164062 -1.878906 -1.085938 -1.914062 C -1.007812 -1.949219 -0.945312 -2.003906 -0.898438 -2.082031 C -0.851562 -2.160156 -0.828125 -2.269531 -0.828125 -2.410156 C -0.828125 -2.519531 -0.839844 -2.660156 -0.863281 -2.835938 Z M -0.863281 -2.835938 "/>
</g>
<g id="glyph-2-6">
<path d="M -0.703125 -4.445312 C -0.398438 -4.089844 -0.183594 -3.746094 -0.0585938 -3.414062 C 0.0664062 -3.082031 0.128906 -2.726562 0.128906 -2.347656 C 0.128906 -1.71875 -0.0234375 -1.238281 -0.332031 -0.902344 C -0.636719 -0.566406 -1.027344 -0.398438 -1.503906 -0.398438 C -1.78125 -0.398438 -2.039062 -0.460938 -2.269531 -0.589844 C -2.5 -0.714844 -2.6875 -0.882812 -2.824219 -1.085938 C -2.964844 -1.292969 -3.070312 -1.527344 -3.140625 -1.785156 C -3.191406 -1.972656 -3.242188 -2.257812 -3.289062 -2.640625 C -3.378906 -3.421875 -3.492188 -3.996094 -3.621094 -4.367188 C -3.753906 -4.371094 -3.835938 -4.371094 -3.871094 -4.371094 C -4.265625 -4.371094 -4.542969 -4.28125 -4.703125 -4.097656 C -4.921875 -3.851562 -5.03125 -3.484375 -5.03125 -2.996094 C -5.03125 -2.542969 -4.953125 -2.207031 -4.792969 -1.988281 C -4.632812 -1.773438 -4.351562 -1.613281 -3.949219 -1.507812 L -4.078125 -0.5625 C -4.480469 -0.648438 -4.808594 -0.792969 -5.058594 -0.988281 C -5.304688 -1.183594 -5.496094 -1.46875 -5.632812 -1.84375 C -5.765625 -2.214844 -5.832031 -2.644531 -5.832031 -3.136719 C -5.832031 -3.625 -5.777344 -4.019531 -5.660156 -4.324219 C -5.546875 -4.628906 -5.402344 -4.851562 -5.230469 -4.996094 C -5.054688 -5.136719 -4.835938 -5.238281 -4.570312 -5.296875 C -4.40625 -5.328125 -4.109375 -5.34375 -3.679688 -5.34375 L -2.390625 -5.34375 C -1.492188 -5.34375 -0.921875 -5.363281 -0.683594 -5.40625 C -0.445312 -5.445312 -0.21875 -5.527344 0 -5.648438 L 0 -4.640625 C -0.199219 -4.539062 -0.433594 -4.476562 -0.703125 -4.445312 M -2.863281 -4.367188 C -2.71875 -4.015625 -2.597656 -3.488281 -2.496094 -2.789062 C -2.441406 -2.390625 -2.375 -2.109375 -2.304688 -1.945312 C -2.234375 -1.78125 -2.128906 -1.652344 -1.988281 -1.5625 C -1.851562 -1.472656 -1.699219 -1.429688 -1.53125 -1.429688 C -1.273438 -1.429688 -1.058594 -1.527344 -0.886719 -1.722656 C -0.714844 -1.917969 -0.628906 -2.203125 -0.628906 -2.578125 C -0.628906 -2.949219 -0.710938 -3.28125 -0.871094 -3.570312 C -1.035156 -3.863281 -1.257812 -4.074219 -1.542969 -4.210938 C -1.761719 -4.316406 -2.082031 -4.367188 -2.507812 -4.367188 Z M -2.863281 -4.367188 "/>
</g>
<g id="glyph-2-7">
<path d="M 0.472656 -0.546875 L 0.613281 -1.488281 C 0.902344 -1.527344 1.113281 -1.636719 1.246094 -1.816406 C 1.425781 -2.054688 1.515625 -2.382812 1.515625 -2.796875 C 1.515625 -3.246094 1.425781 -3.589844 1.246094 -3.835938 C 1.066406 -4.078125 0.816406 -4.242188 0.496094 -4.328125 C 0.296875 -4.378906 -0.117188 -4.402344 -0.746094 -4.398438 C -0.25 -3.976562 0 -3.449219 0 -2.820312 C 0 -2.035156 -0.28125 -1.429688 -0.847656 -1 C -1.414062 -0.570312 -2.09375 -0.355469 -2.882812 -0.355469 C -3.429688 -0.355469 -3.929688 -0.453125 -4.390625 -0.648438 C -4.851562 -0.847656 -5.207031 -1.132812 -5.457031 -1.507812 C -5.707031 -1.878906 -5.832031 -2.320312 -5.832031 -2.824219 C -5.832031 -3.5 -5.5625 -4.054688 -5.015625 -4.492188 L -5.703125 -4.492188 L -5.703125 -5.382812 L -0.773438 -5.382812 C 0.113281 -5.382812 0.742188 -5.292969 1.113281 -5.109375 C 1.484375 -4.929688 1.777344 -4.644531 1.992188 -4.25 C 2.207031 -3.859375 2.316406 -3.375 2.316406 -2.804688 C 2.316406 -2.125 2.160156 -1.574219 1.855469 -1.15625 C 1.550781 -0.734375 1.089844 -0.535156 0.472656 -0.546875 M -2.953125 -1.347656 C -2.207031 -1.347656 -1.660156 -1.496094 -1.316406 -1.792969 C -0.972656 -2.089844 -0.800781 -2.464844 -0.800781 -2.910156 C -0.800781 -3.355469 -0.972656 -3.726562 -1.3125 -4.027344 C -1.65625 -4.328125 -2.191406 -4.480469 -2.921875 -4.480469 C -3.621094 -4.480469 -4.148438 -4.324219 -4.5 -4.015625 C -4.855469 -3.707031 -5.03125 -3.332031 -5.03125 -2.894531 C -5.03125 -2.464844 -4.859375 -2.101562 -4.507812 -1.800781 C -4.160156 -1.5 -3.640625 -1.347656 -2.953125 -1.347656 Z M -2.953125 -1.347656 "/>
</g>
<g id="glyph-3-0">
<path d="M 3.085938 2.777344 C 2.445312 1.96875 1.90625 1.023438 1.464844 -0.0585938 C 1.019531 -1.140625 0.800781 -2.261719 0.800781 -3.421875 C 0.800781 -4.445312 0.964844 -5.425781 1.296875 -6.363281 C 1.683594 -7.449219 2.28125 -8.53125 3.085938 -9.609375 L 3.917969 -9.609375 C 3.398438 -8.714844 3.054688 -8.078125 2.886719 -7.695312 C 2.625 -7.101562 2.417969 -6.484375 2.269531 -5.839844 C 2.082031 -5.035156 1.992188 -4.226562 1.992188 -3.414062 C 1.992188 -1.347656 2.632812 0.714844 3.917969 2.777344 Z M 3.085938 2.777344 "/>
</g>
<g id="glyph-3-1">
<path d="M 5.335938 -0.84375 C 4.90625 -0.480469 4.492188 -0.222656 4.097656 -0.0703125 C 3.699219 0.078125 3.273438 0.15625 2.816406 0.15625 C 2.066406 0.15625 1.488281 -0.0273438 1.082031 -0.394531 C 0.679688 -0.765625 0.476562 -1.234375 0.476562 -1.804688 C 0.476562 -2.140625 0.554688 -2.445312 0.707031 -2.722656 C 0.859375 -3 1.058594 -3.222656 1.304688 -3.390625 C 1.550781 -3.558594 1.832031 -3.683594 2.140625 -3.769531 C 2.367188 -3.832031 2.710938 -3.886719 3.171875 -3.945312 C 4.109375 -4.054688 4.796875 -4.1875 5.238281 -4.34375 C 5.246094 -4.503906 5.246094 -4.605469 5.246094 -4.648438 C 5.246094 -5.121094 5.136719 -5.453125 4.917969 -5.644531 C 4.621094 -5.90625 4.179688 -6.039062 3.597656 -6.039062 C 3.050781 -6.039062 2.648438 -5.945312 2.386719 -5.753906 C 2.128906 -5.5625 1.9375 -5.222656 1.8125 -4.738281 L 0.675781 -4.890625 C 0.78125 -5.378906 0.949219 -5.769531 1.1875 -6.066406 C 1.421875 -6.367188 1.765625 -6.597656 2.210938 -6.757812 C 2.65625 -6.917969 3.175781 -7 3.765625 -7 C 4.347656 -7 4.824219 -6.929688 5.1875 -6.792969 C 5.554688 -6.65625 5.820312 -6.484375 5.992188 -6.273438 C 6.164062 -6.066406 6.285156 -5.804688 6.355469 -5.484375 C 6.394531 -5.289062 6.414062 -4.929688 6.414062 -4.414062 L 6.414062 -2.867188 C 6.414062 -1.789062 6.4375 -1.109375 6.488281 -0.820312 C 6.535156 -0.535156 6.632812 -0.261719 6.78125 0 L 5.570312 0 C 5.449219 -0.242188 5.371094 -0.523438 5.335938 -0.84375 M 5.238281 -3.433594 C 4.820312 -3.261719 4.1875 -3.117188 3.34375 -2.996094 C 2.867188 -2.929688 2.53125 -2.851562 2.332031 -2.765625 C 2.136719 -2.679688 1.984375 -2.554688 1.875 -2.386719 C 1.769531 -2.222656 1.714844 -2.039062 1.714844 -1.835938 C 1.714844 -1.527344 1.832031 -1.269531 2.066406 -1.0625 C 2.300781 -0.855469 2.640625 -0.753906 3.09375 -0.753906 C 3.539062 -0.753906 3.9375 -0.851562 4.285156 -1.046875 C 4.632812 -1.242188 4.890625 -1.511719 5.054688 -1.851562 C 5.175781 -2.113281 5.238281 -2.5 5.238281 -3.011719 Z M 5.238281 -3.433594 "/>
</g>
<g id="glyph-3-2">
<path d="M 1.628906 2.777344 L 0.800781 2.777344 C 2.082031 0.714844 2.726562 -1.347656 2.726562 -3.414062 C 2.726562 -4.222656 2.632812 -5.023438 2.449219 -5.820312 C 2.304688 -6.464844 2.097656 -7.082031 1.835938 -7.675781 C 1.667969 -8.0625 1.324219 -8.707031 0.800781 -9.609375 L 1.628906 -9.609375 C 2.4375 -8.53125 3.035156 -7.449219 3.421875 -6.363281 C 3.753906 -5.425781 3.917969 -4.445312 3.917969 -3.421875 C 3.917969 -2.261719 3.695312 -1.140625 3.25 -0.0585938 C 2.808594 1.023438 2.265625 1.96875 1.628906 2.777344 Z M 1.628906 2.777344 "/>
</g>
<g id="glyph-3-3">
<path d="M 1.941406 0 L 0.863281 0 L 0.863281 -9.449219 L 2.023438 -9.449219 L 2.023438 -6.078125 C 2.515625 -6.691406 3.140625 -7 3.898438 -7 C 4.320312 -7 4.71875 -6.914062 5.09375 -6.746094 C 5.472656 -6.574219 5.78125 -6.335938 6.023438 -6.03125 C 6.265625 -5.722656 6.457031 -5.351562 6.59375 -4.917969 C 6.730469 -4.484375 6.800781 -4.019531 6.800781 -3.527344 C 6.800781 -2.351562 6.507812 -1.445312 5.929688 -0.804688 C 5.351562 -0.164062 4.652344 0.15625 3.839844 0.15625 C 3.035156 0.15625 2.398438 -0.183594 1.941406 -0.855469 L 1.941406 0 M 1.925781 -3.472656 C 1.925781 -2.652344 2.039062 -2.058594 2.261719 -1.695312 C 2.628906 -1.097656 3.121094 -0.800781 3.746094 -0.800781 C 4.25 -0.800781 4.691406 -1.019531 5.058594 -1.460938 C 5.429688 -1.898438 5.613281 -2.554688 5.613281 -3.429688 C 5.613281 -4.324219 5.4375 -4.980469 5.082031 -5.40625 C 4.726562 -5.832031 4.300781 -6.046875 3.796875 -6.046875 C 3.289062 -6.046875 2.851562 -5.824219 2.480469 -5.386719 C 2.113281 -4.945312 1.925781 -4.308594 1.925781 -3.472656 Z M 1.925781 -3.472656 "/>
</g>
</g>
<clipPath id="clip-0">
<path clip-rule="nonzero" d="M 0 0 L 360 0 L 360 288 L 0 288 Z M 0 0 "/>
</clipPath>
<clipPath id="clip-1">
<path clip-rule="nonzero" d="M 42.453125 24.269531 L 354.519531 24.269531 L 354.519531 255.113281 L 42.453125 255.113281 Z M 42.453125 24.269531 "/>
</clipPath>
<clipPath id="clip-2">
<path clip-rule="nonzero" d="M 42.453125 224 L 354.519531 224 L 354.519531 225 L 42.453125 225 Z M 42.453125 224 "/>
</clipPath>
<clipPath id="clip-3">
<path clip-rule="nonzero" d="M 42.453125 173 L 354.519531 173 L 354.519531 174 L 42.453125 174 Z M 42.453125 173 "/>
</clipPath>
<clipPath id="clip-4">
<path clip-rule="nonzero" d="M 42.453125 122 L 354.519531 122 L 354.519531 123 L 42.453125 123 Z M 42.453125 122 "/>
</clipPath>
<clipPath id="clip-5">
<path clip-rule="nonzero" d="M 42.453125 71 L 354.519531 71 L 354.519531 72 L 42.453125 72 Z M 42.453125 71 "/>
</clipPath>
<clipPath id="clip-6">
<path clip-rule="nonzero" d="M 64 24.269531 L 66 24.269531 L 66 255.113281 L 64 255.113281 Z M 64 24.269531 "/>
</clipPath>
<clipPath id="clip-7">
<path clip-rule="nonzero" d="M 127 24.269531 L 129 24.269531 L 129 255.113281 L 127 255.113281 Z M 127 24.269531 "/>
</clipPath>
<clipPath id="clip-8">
<path clip-rule="nonzero" d="M 190 24.269531 L 191 24.269531 L 191 255.113281 L 190 255.113281 Z M 190 24.269531 "/>
</clipPath>
<clipPath id="clip-9">
<path clip-rule="nonzero" d="M 253 24.269531 L 254 24.269531 L 254 255.113281 L 253 255.113281 Z M 253 24.269531 "/>
</clipPath>
<clipPath id="clip-10">
<path clip-rule="nonzero" d="M 316 24.269531 L 317 24.269531 L 317 255.113281 L 316 255.113281 Z M 316 24.269531 "/>
</clipPath>
<clipPath id="clip-11">
<path clip-rule="nonzero" d="M 42.453125 249 L 354.519531 249 L 354.519531 251 L 42.453125 251 Z M 42.453125 249 "/>
</clipPath>
<clipPath id="clip-12">
<path clip-rule="nonzero" d="M 42.453125 198 L 354.519531 198 L 354.519531 200 L 42.453125 200 Z M 42.453125 198 "/>
</clipPath>
<clipPath id="clip-13">
<path clip-rule="nonzero" d="M 42.453125 147 L 354.519531 147 L 354.519531 149 L 42.453125 149 Z M 42.453125 147 "/>
</clipPath>
<clipPath id="clip-14">
<path clip-rule="nonzero" d="M 42.453125 96 L 354.519531 96 L 354.519531 98 L 42.453125 98 Z M 42.453125 96 "/>
</clipPath>
<clipPath id="clip-15">
<path clip-rule="nonzero" d="M 42.453125 45 L 354.519531 45 L 354.519531 47 L 42.453125 47 Z M 42.453125 45 "/>
</clipPath>
<clipPath id="clip-16">
<path clip-rule="nonzero" d="M 95 24.269531 L 97 24.269531 L 97 255.113281 L 95 255.113281 Z M 95 24.269531 "/>
</clipPath>
<clipPath id="clip-17">
<path clip-rule="nonzero" d="M 158 24.269531 L 160 24.269531 L 160 255.113281 L 158 255.113281 Z M 158 24.269531 "/>
</clipPath>
<clipPath id="clip-18">
<path clip-rule="nonzero" d="M 221 24.269531 L 223 24.269531 L 223 255.113281 L 221 255.113281 Z M 221 24.269531 "/>
</clipPath>
<clipPath id="clip-19">
<path clip-rule="nonzero" d="M 284 24.269531 L 286 24.269531 L 286 255.113281 L 284 255.113281 Z M 284 24.269531 "/>
</clipPath>
<clipPath id="clip-20">
<path clip-rule="nonzero" d="M 347 24.269531 L 349 24.269531 L 349 255.113281 L 347 255.113281 Z M 347 24.269531 "/>
</clipPath>
<clipPath id="clip-21">
<path clip-rule="nonzero" d="M 360 0 L 720 0 L 720 288 L 360 288 Z M 360 0 "/>
</clipPath>
<clipPath id="clip-22">
<path clip-rule="nonzero" d="M 402.453125 24.269531 L 714.519531 24.269531 L 714.519531 255.113281 L 402.453125 255.113281 Z M 402.453125 24.269531 "/>
</clipPath>
<clipPath id="clip-23">
<path clip-rule="nonzero" d="M 402.453125 226 L 714.519531 226 L 714.519531 227 L 402.453125 227 Z M 402.453125 226 "/>
</clipPath>
<clipPath id="clip-24">
<path clip-rule="nonzero" d="M 402.453125 174 L 714.519531 174 L 714.519531 175 L 402.453125 175 Z M 402.453125 174 "/>
</clipPath>
<clipPath id="clip-25">
<path clip-rule="nonzero" d="M 402.453125 121 L 714.519531 121 L 714.519531 123 L 402.453125 123 Z M 402.453125 121 "/>
</clipPath>
<clipPath id="clip-26">
<path clip-rule="nonzero" d="M 402.453125 69 L 714.519531 69 L 714.519531 71 L 402.453125 71 Z M 402.453125 69 "/>
</clipPath>
<clipPath id="clip-27">
<path clip-rule="nonzero" d="M 438 24.269531 L 440 24.269531 L 440 255.113281 L 438 255.113281 Z M 438 24.269531 "/>
</clipPath>
<clipPath id="clip-28">
<path clip-rule="nonzero" d="M 498 24.269531 L 499 24.269531 L 499 255.113281 L 498 255.113281 Z M 498 24.269531 "/>
</clipPath>
<clipPath id="clip-29">
<path clip-rule="nonzero" d="M 558 24.269531 L 559 24.269531 L 559 255.113281 L 558 255.113281 Z M 558 24.269531 "/>
</clipPath>
<clipPath id="clip-30">
<path clip-rule="nonzero" d="M 617 24.269531 L 619 24.269531 L 619 255.113281 L 617 255.113281 Z M 617 24.269531 "/>
</clipPath>
<clipPath id="clip-31">
<path clip-rule="nonzero" d="M 677 24.269531 L 679 24.269531 L 679 255.113281 L 677 255.113281 Z M 677 24.269531 "/>
</clipPath>
<clipPath id="clip-32">
<path clip-rule="nonzero" d="M 402.453125 251 L 714.519531 251 L 714.519531 254 L 402.453125 254 Z M 402.453125 251 "/>
</clipPath>
<clipPath id="clip-33">
<path clip-rule="nonzero" d="M 402.453125 199 L 714.519531 199 L 714.519531 201 L 402.453125 201 Z M 402.453125 199 "/>
</clipPath>
<clipPath id="clip-34">
<path clip-rule="nonzero" d="M 402.453125 147 L 714.519531 147 L 714.519531 149 L 402.453125 149 Z M 402.453125 147 "/>
</clipPath>
<clipPath id="clip-35">
<path clip-rule="nonzero" d="M 402.453125 95 L 714.519531 95 L 714.519531 97 L 402.453125 97 Z M 402.453125 95 "/>
</clipPath>
<clipPath id="clip-36">
<path clip-rule="nonzero" d="M 402.453125 43 L 714.519531 43 L 714.519531 45 L 402.453125 45 Z M 402.453125 43 "/>
</clipPath>
<clipPath id="clip-37">
<path clip-rule="nonzero" d="M 408 24.269531 L 410 24.269531 L 410 255.113281 L 408 255.113281 Z M 408 24.269531 "/>
</clipPath>
<clipPath id="clip-38">
<path clip-rule="nonzero" d="M 468 24.269531 L 470 24.269531 L 470 255.113281 L 468 255.113281 Z M 468 24.269531 "/>
</clipPath>
<clipPath id="clip-39">
<path clip-rule="nonzero" d="M 528 24.269531 L 530 24.269531 L 530 255.113281 L 528 255.113281 Z M 528 24.269531 "/>
</clipPath>
<clipPath id="clip-40">
<path clip-rule="nonzero" d="M 587 24.269531 L 589 24.269531 L 589 255.113281 L 587 255.113281 Z M 587 24.269531 "/>
</clipPath>
<clipPath id="clip-41">
<path clip-rule="nonzero" d="M 647 24.269531 L 649 24.269531 L 649 255.113281 L 647 255.113281 Z M 647 24.269531 "/>
</clipPath>
<clipPath id="clip-42">
<path clip-rule="nonzero" d="M 707 24.269531 L 709 24.269531 L 709 255.113281 L 707 255.113281 Z M 707 24.269531 "/>
</clipPath>
</defs>
<rect x="-72" y="-28.8" width="864" height="345.6" fill="rgb(100%, 100%, 100%)" fill-opacity="1"/>
<path fill-rule="nonzero" fill="rgb(100%, 100%, 100%)" fill-opacity="1" d="M 0 288 L 360 288 L 360 0 L 0 0 Z M 0 288 "/>
<g clip-path="url(#clip-0)">
<path fill="none" stroke-width="1.066978" stroke-linecap="round" stroke-linejoin="round" stroke="rgb(100%, 100%, 100%)" stroke-opacity="1" stroke-miterlimit="10" d="M 0 288 L 360 288 L 360 0 L 0 0 Z M 0 288 "/>
</g>
<g clip-path="url(#clip-1)">
<path fill-rule="nonzero" fill="rgb(100%, 100%, 100%)" fill-opacity="1" d="M 42.453125 255.113281 L 354.519531 255.113281 L 354.519531 24.269531 L 42.453125 24.269531 Z M 42.453125 255.113281 "/>
</g>
<g clip-path="url(#clip-2)">
<path fill="none" stroke-width="0.533489" stroke-linecap="butt" stroke-linejoin="round" stroke="rgb(100%, 100%, 100%)" stroke-opacity="1" stroke-miterlimit="10" d="M 42.453125 224.523438 L 354.519531 224.523438 "/>
</g>
<g clip-path="url(#clip-3)">
<path fill="none" stroke-width="0.533489" stroke-linecap="butt" stroke-linejoin="round" stroke="rgb(100%, 100%, 100%)" stroke-opacity="1" stroke-miterlimit="10" d="M 42.453125 173.546875 L 354.519531 173.546875 "/>
</g>
<g clip-path="url(#clip-4)">
<path fill="none" stroke-width="0.533489" stroke-linecap="butt" stroke-linejoin="round" stroke="rgb(100%, 100%, 100%)" stroke-opacity="1" stroke-miterlimit="10" d="M 42.453125 122.566406 L 354.519531 122.566406 "/>
</g>
<g clip-path="url(#clip-5)">
<path fill="none" stroke-width="0.533489" stroke-linecap="butt" stroke-linejoin="round" stroke="rgb(100%, 100%, 100%)" stroke-opacity="1" stroke-miterlimit="10" d="M 42.453125 71.585938 L 354.519531 71.585938 "/>
</g>
<g clip-path="url(#clip-6)">
<path fill="none" stroke-width="0.533489" stroke-linecap="butt" stroke-linejoin="round" stroke="rgb(100%, 100%, 100%)" stroke-opacity="1" stroke-miterlimit="10" d="M 64.890625 255.113281 L 64.890625 24.269531 "/>
</g>
<g clip-path="url(#clip-7)">
<path fill="none" stroke-width="0.533489" stroke-linecap="butt" stroke-linejoin="round" stroke="rgb(100%, 100%, 100%)" stroke-opacity="1" stroke-miterlimit="10" d="M 127.761719 255.113281 L 127.761719 24.269531 "/>
</g>
<g clip-path="url(#clip-8)">
<path fill="none" stroke-width="0.533489" stroke-linecap="butt" stroke-linejoin="round" stroke="rgb(100%, 100%, 100%)" stroke-opacity="1" stroke-miterlimit="10" d="M 190.628906 255.113281 L 190.628906 24.269531 "/>
</g>
<g clip-path="url(#clip-9)">
<path fill="none" stroke-width="0.533489" stroke-linecap="butt" stroke-linejoin="round" stroke="rgb(100%, 100%, 100%)" stroke-opacity="1" stroke-miterlimit="10" d="M 253.496094 255.113281 L 253.496094 24.269531 "/>
</g>
<g clip-path="url(#clip-10)">
<path fill="none" stroke-width="0.533489" stroke-linecap="butt" stroke-linejoin="round" stroke="rgb(100%, 100%, 100%)" stroke-opacity="1" stroke-miterlimit="10" d="M 316.367188 255.113281 L 316.367188 24.269531 "/>
</g>
<g clip-path="url(#clip-11)">
<path fill="none" stroke-width="1.066978" stroke-linecap="butt" stroke-linejoin="round" stroke="rgb(100%, 100%, 100%)" stroke-opacity="1" stroke-miterlimit="10" d="M 42.453125 250.015625 L 354.519531 250.015625 "/>
</g>
<g clip-path="url(#clip-12)">
<path fill="none" stroke-width="1.066978" stroke-linecap="butt" stroke-linejoin="round" stroke="rgb(100%, 100%, 100%)" stroke-opacity="1" stroke-miterlimit="10" d="M 42.453125 199.035156 L 354.519531 199.035156 "/>
</g>
<g clip-path="url(#clip-13)">
<path fill="none" stroke-width="1.066978" stroke-linecap="butt" stroke-linejoin="round" stroke="rgb(100%, 100%, 100%)" stroke-opacity="1" stroke-miterlimit="10" d="M 42.453125 148.054688 L 354.519531 148.054688 "/>
</g>
<g clip-path="url(#clip-14)">
<path fill="none" stroke-width="1.066978" stroke-linecap="butt" stroke-linejoin="round" stroke="rgb(100%, 100%, 100%)" stroke-opacity="1" stroke-miterlimit="10" d="M 42.453125 97.074219 L 354.519531 97.074219 "/>
</g>
<g clip-path="url(#clip-15)">
<path fill="none" stroke-width="1.066978" stroke-linecap="butt" stroke-linejoin="round" stroke="rgb(100%, 100%, 100%)" stroke-opacity="1" stroke-miterlimit="10" d="M 42.453125 46.09375 L 354.519531 46.09375 "/>
</g>
<g clip-path="url(#clip-16)">
<path fill="none" stroke-width="1.066978" stroke-linecap="butt" stroke-linejoin="round" stroke="rgb(100%, 100%, 100%)" stroke-opacity="1" stroke-miterlimit="10" d="M 96.324219 255.113281 L 96.324219 24.269531 "/>
</g>
<g clip-path="url(#clip-17)">
<path fill="none" stroke-width="1.066978" stroke-linecap="butt" stroke-linejoin="round" stroke="rgb(100%, 100%, 100%)" stroke-opacity="1" stroke-miterlimit="10" d="M 159.195312 255.113281 L 159.195312 24.269531 "/>
</g>
<g clip-path="url(#clip-18)">
<path fill="none" stroke-width="1.066978" stroke-linecap="butt" stroke-linejoin="round" stroke="rgb(100%, 100%, 100%)" stroke-opacity="1" stroke-miterlimit="10" d="M 222.0625 255.113281 L 222.0625 24.269531 "/>
</g>
<g clip-path="url(#clip-19)">
<path fill="none" stroke-width="1.066978" stroke-linecap="butt" stroke-linejoin="round" stroke="rgb(100%, 100%, 100%)" stroke-opacity="1" stroke-miterlimit="10" d="M 284.929688 255.113281 L 284.929688 24.269531 "/>
</g>
<g clip-path="url(#clip-20)">
<path fill="none" stroke-width="1.066978" stroke-linecap="butt" stroke-linejoin="round" stroke="rgb(100%, 100%, 100%)" stroke-opacity="1" stroke-miterlimit="10" d="M 347.800781 255.113281 L 347.800781 24.269531 "/>
</g>
<path fill-rule="nonzero" fill="rgb(93.333333%, 23.137255%, 23.137255%)" fill-opacity="0.6" d="M 44.027344 250.015625 L 54.324219 250.015625 L 54.324219 29.367188 L 44.027344 29.367188 Z M 44.027344 250.015625 "/>
<path fill-rule="nonzero" fill="rgb(93.333333%, 23.137255%, 23.137255%)" fill-opacity="0.6" d="M 54.324219 250.015625 L 64.621094 250.015625 L 64.621094 114.453125 L 54.324219 114.453125 Z M 54.324219 250.015625 "/>
<path fill-rule="nonzero" fill="rgb(93.333333%, 23.137255%, 23.137255%)" fill-opacity="0.6" d="M 64.621094 250.015625 L 74.917969 250.015625 L 74.917969 163.488281 L 64.621094 163.488281 Z M 64.621094 250.015625 "/>
<path fill-rule="nonzero" fill="rgb(93.333333%, 23.137255%, 23.137255%)" fill-opacity="0.6" d="M 74.917969 250.015625 L 85.214844 250.015625 L 85.214844 189.445312 L 74.917969 189.445312 Z M 74.917969 250.015625 "/>
<path fill-rule="nonzero" fill="rgb(93.333333%, 23.137255%, 23.137255%)" fill-opacity="0.6" d="M 85.214844 250.015625 L 95.511719 250.015625 L 95.511719 219.730469 L 85.214844 219.730469 Z M 85.214844 250.015625 "/>
<path fill-rule="nonzero" fill="rgb(93.333333%, 23.137255%, 23.137255%)" fill-opacity="0.6" d="M 95.511719 250.015625 L 105.808594 250.015625 L 105.808594 218.289062 L 95.511719 218.289062 Z M 95.511719 250.015625 "/>
<path fill-rule="nonzero" fill="rgb(93.333333%, 23.137255%, 23.137255%)" fill-opacity="0.6" d="M 105.808594 250.015625 L 116.105469 250.015625 L 116.105469 228.382812 L 105.808594 228.382812 Z M 105.808594 250.015625 "/>
<path fill-rule="nonzero" fill="rgb(93.333333%, 23.137255%, 23.137255%)" fill-opacity="0.6" d="M 116.109375 250.015625 L 126.40625 250.015625 L 126.40625 234.152344 L 116.109375 234.152344 Z M 116.109375 250.015625 "/>
<path fill-rule="nonzero" fill="rgb(93.333333%, 23.137255%, 23.137255%)" fill-opacity="0.6" d="M 126.40625 250.015625 L 136.703125 250.015625 L 136.703125 235.59375 L 126.40625 235.59375 Z M 126.40625 250.015625 "/>
<path fill-rule="nonzero" fill="rgb(93.333333%, 23.137255%, 23.137255%)" fill-opacity="0.6" d="M 136.703125 250.015625 L 147 250.015625 L 147 231.269531 L 136.703125 231.269531 Z M 136.703125 250.015625 "/>
<path fill-rule="nonzero" fill="rgb(93.333333%, 23.137255%, 23.137255%)" fill-opacity="0.6" d="M 147 250.015625 L 157.296875 250.015625 L 157.296875 228.382812 L 147 228.382812 Z M 147 250.015625 "/>
<path fill-rule="nonzero" fill="rgb(93.333333%, 23.137255%, 23.137255%)" fill-opacity="0.6" d="M 157.296875 250.015625 L 167.59375 250.015625 L 167.59375 232.710938 L 157.296875 232.710938 Z M 157.296875 250.015625 "/>
<path fill-rule="nonzero" fill="rgb(93.333333%, 23.137255%, 23.137255%)" fill-opacity="0.6" d="M 167.59375 250.015625 L 177.890625 250.015625 L 177.890625 241.363281 L 167.59375 241.363281 Z M 167.59375 250.015625 "/>
<path fill-rule="nonzero" fill="rgb(93.333333%, 23.137255%, 23.137255%)" fill-opacity="0.6" d="M 177.890625 250.015625 L 188.1875 250.015625 L 188.1875 234.152344 L 177.890625 234.152344 Z M 177.890625 250.015625 "/>
<path fill-rule="nonzero" fill="rgb(93.333333%, 23.137255%, 23.137255%)" fill-opacity="0.6" d="M 188.191406 250.015625 L 198.488281 250.015625 L 198.488281 241.363281 L 188.191406 241.363281 Z M 188.191406 250.015625 "/>
<path fill-rule="nonzero" fill="rgb(93.333333%, 23.137255%, 23.137255%)" fill-opacity="0.6" d="M 198.488281 250.015625 L 208.785156 250.015625 L 208.785156 232.710938 L 198.488281 232.710938 Z M 198.488281 250.015625 "/>
<path fill-rule="nonzero" fill="rgb(93.333333%, 23.137255%, 23.137255%)" fill-opacity="0.6" d="M 208.785156 250.015625 L 219.082031 250.015625 L 219.082031 239.921875 L 208.785156 239.921875 Z M 208.785156 250.015625 "/>
<path fill-rule="nonzero" fill="rgb(93.333333%, 23.137255%, 23.137255%)" fill-opacity="0.6" d="M 219.082031 250.015625 L 229.378906 250.015625 L 229.378906 229.824219 L 219.082031 229.824219 Z M 219.082031 250.015625 "/>
<path fill-rule="nonzero" fill="rgb(93.333333%, 23.137255%, 23.137255%)" fill-opacity="0.6" d="M 229.378906 250.015625 L 239.675781 250.015625 L 239.675781 237.035156 L 229.378906 237.035156 Z M 229.378906 250.015625 "/>
<path fill-rule="nonzero" fill="rgb(93.333333%, 23.137255%, 23.137255%)" fill-opacity="0.6" d="M 239.675781 250.015625 L 249.972656 250.015625 L 249.972656 245.6875 L 239.675781 245.6875 Z M 239.675781 250.015625 "/>
<path fill-rule="nonzero" fill="rgb(93.333333%, 23.137255%, 23.137255%)" fill-opacity="0.6" d="M 249.972656 250.015625 L 260.269531 250.015625 L 260.269531 241.363281 L 249.972656 241.363281 Z M 249.972656 250.015625 "/>
<path fill-rule="nonzero" fill="rgb(93.333333%, 23.137255%, 23.137255%)" fill-opacity="0.6" d="M 260.273438 250.015625 L 270.570312 250.015625 L 270.570312 234.152344 L 260.273438 234.152344 Z M 260.273438 250.015625 "/>
<path fill-rule="nonzero" fill="rgb(93.333333%, 23.137255%, 23.137255%)" fill-opacity="0.6" d="M 270.570312 250.015625 L 280.867188 250.015625 L 280.867188 237.035156 L 270.570312 237.035156 Z M 270.570312 250.015625 "/>
<path fill-rule="nonzero" fill="rgb(93.333333%, 23.137255%, 23.137255%)" fill-opacity="0.6" d="M 280.867188 247.132812 L 291.164062 247.132812 L 291.164062 244.25 L 280.867188 244.25 Z M 280.867188 247.132812 "/>
<path fill-rule="nonzero" fill="rgb(49.411765%, 75.294118%, 93.333333%)" fill-opacity="0.6" d="M 280.867188 250.015625 L 291.164062 250.015625 L 291.164062 247.132812 L 280.867188 247.132812 Z M 280.867188 250.015625 "/>
<path fill-rule="nonzero" fill="rgb(49.411765%, 75.294118%, 93.333333%)" fill-opacity="0.6" d="M 291.164062 250.015625 L 301.460938 250.015625 L 301.460938 239.921875 L 291.164062 239.921875 Z M 291.164062 250.015625 "/>
<path fill-rule="nonzero" fill="rgb(49.411765%, 75.294118%, 93.333333%)" fill-opacity="0.6" d="M 301.460938 250.015625 L 311.757812 250.015625 L 311.757812 234.152344 L 301.460938 234.152344 Z M 301.460938 250.015625 "/>
<path fill-rule="nonzero" fill="rgb(49.411765%, 75.294118%, 93.333333%)" fill-opacity="0.6" d="M 311.757812 250.015625 L 322.054688 250.015625 L 322.054688 242.804688 L 311.757812 242.804688 Z M 311.757812 250.015625 "/>
<path fill-rule="nonzero" fill="rgb(49.411765%, 75.294118%, 93.333333%)" fill-opacity="0.6" d="M 322.054688 250.015625 L 332.351562 250.015625 L 332.351562 239.921875 L 322.054688 239.921875 Z M 322.054688 250.015625 "/>
<path fill-rule="nonzero" fill="rgb(49.411765%, 75.294118%, 93.333333%)" fill-opacity="0.6" d="M 332.355469 250.015625 L 342.652344 250.015625 L 342.652344 239.921875 L 332.355469 239.921875 Z M 332.355469 250.015625 "/>
<path fill-rule="nonzero" fill="rgb(49.411765%, 75.294118%, 93.333333%)" fill-opacity="0.6" d="M 342.652344 250.015625 L 352.949219 250.015625 L 352.949219 100.03125 L 342.652344 100.03125 Z M 342.652344 250.015625 "/>
<path fill="none" stroke-width="1.066978" stroke-linecap="butt" stroke-linejoin="round" stroke="rgb(74.509804%, 74.509804%, 74.509804%)" stroke-opacity="1" stroke-miterlimit="10" d="M 42.453125 255.113281 L 42.453125 24.269531 "/>
<g fill="rgb(30.196078%, 30.196078%, 30.196078%)" fill-opacity="1">
<use xlink:href="#glyph-0-0" x="24.804688" y="253.664062"/>
<use xlink:href="#glyph-0-1" x="29.698828" y="253.664062"/>
</g>
<g fill="rgb(30.196078%, 30.196078%, 30.196078%)" fill-opacity="1">
<use xlink:href="#glyph-0-2" x="24.804688" y="202.683594"/>
<use xlink:href="#glyph-0-1" x="29.698828" y="202.683594"/>
</g>
<g fill="rgb(30.196078%, 30.196078%, 30.196078%)" fill-opacity="1">
<use xlink:href="#glyph-0-3" x="19.910156" y="151.703125"/>
<use xlink:href="#glyph-0-0" x="24.804297" y="151.703125"/>
<use xlink:href="#glyph-0-1" x="29.698437" y="151.703125"/>
</g>
<g fill="rgb(30.196078%, 30.196078%, 30.196078%)" fill-opacity="1">
<use xlink:href="#glyph-0-3" x="19.910156" y="100.722656"/>
<use xlink:href="#glyph-0-2" x="24.804297" y="100.722656"/>
<use xlink:href="#glyph-0-1" x="29.698437" y="100.722656"/>
</g>
<g fill="rgb(30.196078%, 30.196078%, 30.196078%)" fill-opacity="1">
<use xlink:href="#glyph-0-4" x="19.910156" y="49.746094"/>
<use xlink:href="#glyph-0-0" x="24.804297" y="49.746094"/>
<use xlink:href="#glyph-0-1" x="29.698437" y="49.746094"/>
</g>
<path fill="none" stroke-width="1.066978" stroke-linecap="butt" stroke-linejoin="round" stroke="rgb(20%, 20%, 20%)" stroke-opacity="1" stroke-miterlimit="10" d="M 39.714844 250.015625 L 42.453125 250.015625 "/>
<path fill="none" stroke-width="1.066978" stroke-linecap="butt" stroke-linejoin="round" stroke="rgb(20%, 20%, 20%)" stroke-opacity="1" stroke-miterlimit="10" d="M 39.714844 199.035156 L 42.453125 199.035156 "/>
<path fill="none" stroke-width="1.066978" stroke-linecap="butt" stroke-linejoin="round" stroke="rgb(20%, 20%, 20%)" stroke-opacity="1" stroke-miterlimit="10" d="M 39.714844 148.054688 L 42.453125 148.054688 "/>
<path fill="none" stroke-width="1.066978" stroke-linecap="butt" stroke-linejoin="round" stroke="rgb(20%, 20%, 20%)" stroke-opacity="1" stroke-miterlimit="10" d="M 39.714844 97.074219 L 42.453125 97.074219 "/>
<path fill="none" stroke-width="1.066978" stroke-linecap="butt" stroke-linejoin="round" stroke="rgb(20%, 20%, 20%)" stroke-opacity="1" stroke-miterlimit="10" d="M 39.714844 46.09375 L 42.453125 46.09375 "/>
<path fill="none" stroke-width="1.066978" stroke-linecap="butt" stroke-linejoin="round" stroke="rgb(74.509804%, 74.509804%, 74.509804%)" stroke-opacity="1" stroke-miterlimit="10" d="M 42.453125 255.113281 L 354.519531 255.113281 "/>
<path fill="none" stroke-width="1.066978" stroke-linecap="butt" stroke-linejoin="round" stroke="rgb(20%, 20%, 20%)" stroke-opacity="1" stroke-miterlimit="10" d="M 96.324219 257.851562 L 96.324219 255.113281 "/>
<path fill="none" stroke-width="1.066978" stroke-linecap="butt" stroke-linejoin="round" stroke="rgb(20%, 20%, 20%)" stroke-opacity="1" stroke-miterlimit="10" d="M 159.195312 257.851562 L 159.195312 255.113281 "/>
<path fill="none" stroke-width="1.066978" stroke-linecap="butt" stroke-linejoin="round" stroke="rgb(20%, 20%, 20%)" stroke-opacity="1" stroke-miterlimit="10" d="M 222.0625 257.851562 L 222.0625 255.113281 "/>
<path fill="none" stroke-width="1.066978" stroke-linecap="butt" stroke-linejoin="round" stroke="rgb(20%, 20%, 20%)" stroke-opacity="1" stroke-miterlimit="10" d="M 284.929688 257.851562 L 284.929688 255.113281 "/>
<path fill="none" stroke-width="1.066978" stroke-linecap="butt" stroke-linejoin="round" stroke="rgb(20%, 20%, 20%)" stroke-opacity="1" stroke-miterlimit="10" d="M 347.800781 257.851562 L 347.800781 255.113281 "/>
<g fill="rgb(30.196078%, 30.196078%, 30.196078%)" fill-opacity="1">
<use xlink:href="#glyph-0-4" x="87.519531" y="267.34375"/>
<use xlink:href="#glyph-0-0" x="92.413672" y="267.34375"/>
<use xlink:href="#glyph-0-1" x="97.307813" y="267.34375"/>
</g>
<g fill="rgb(30.196078%, 30.196078%, 30.196078%)" fill-opacity="1">
<use xlink:href="#glyph-0-5" x="150.390625" y="267.34375"/>
<use xlink:href="#glyph-0-0" x="155.284766" y="267.34375"/>
<use xlink:href="#glyph-0-1" x="160.178906" y="267.34375"/>
</g>
<g fill="rgb(30.196078%, 30.196078%, 30.196078%)" fill-opacity="1">
<use xlink:href="#glyph-0-6" x="213.257812" y="267.34375"/>
<use xlink:href="#glyph-0-0" x="218.151953" y="267.34375"/>
<use xlink:href="#glyph-0-1" x="223.046094" y="267.34375"/>
</g>
<g fill="rgb(30.196078%, 30.196078%, 30.196078%)" fill-opacity="1">
<use xlink:href="#glyph-0-7" x="276.125" y="267.34375"/>
<use xlink:href="#glyph-0-0" x="281.019141" y="267.34375"/>
<use xlink:href="#glyph-0-1" x="285.913281" y="267.34375"/>
</g>
<g fill="rgb(30.196078%, 30.196078%, 30.196078%)" fill-opacity="1">
<use xlink:href="#glyph-0-3" x="336.546875" y="267.34375"/>
<use xlink:href="#glyph-0-0" x="341.441016" y="267.34375"/>
<use xlink:href="#glyph-0-0" x="346.335156" y="267.34375"/>
<use xlink:href="#glyph-0-1" x="351.229297" y="267.34375"/>
</g>
<g fill="rgb(0%, 0%, 0%)" fill-opacity="1">
<use xlink:href="#glyph-1-0" x="43.820312" y="280.101562"/>
<use xlink:href="#glyph-1-1" x="52.983398" y="280.101562"/>
<use xlink:href="#glyph-1-2" x="59.101074" y="280.101562"/>
<use xlink:href="#glyph-1-3" x="65.21875" y="280.101562"/>
<use xlink:href="#glyph-1-4" x="67.662598" y="280.101562"/>
<use xlink:href="#glyph-1-5" x="73.780273" y="280.101562"/>
<use xlink:href="#glyph-1-6" x="79.897949" y="280.101562"/>
<use xlink:href="#glyph-1-7" x="82.954102" y="280.101562"/>
<use xlink:href="#glyph-1-8" x="88.454102" y="280.101562"/>
<use xlink:href="#glyph-1-4" x="91.510254" y="280.101562"/>
<use xlink:href="#glyph-1-8" x="97.62793" y="280.101562"/>
<use xlink:href="#glyph-1-3" x="100.684082" y="280.101562"/>
<use xlink:href="#glyph-1-7" x="103.12793" y="280.101562"/>
<use xlink:href="#glyph-1-8" x="108.62793" y="280.101562"/>
<use xlink:href="#glyph-1-3" x="111.684082" y="280.101562"/>
<use xlink:href="#glyph-1-9" x="114.12793" y="280.101562"/>
<use xlink:href="#glyph-1-4" x="119.62793" y="280.101562"/>
<use xlink:href="#glyph-1-10" x="125.745605" y="280.101562"/>
<use xlink:href="#glyph-1-6" x="128.189453" y="280.101562"/>
<use xlink:href="#glyph-1-11" x="131.245605" y="280.101562"/>
<use xlink:href="#glyph-1-12" x="137.363281" y="280.101562"/>
<use xlink:href="#glyph-1-13" x="143.480957" y="280.101562"/>
<use xlink:href="#glyph-1-1" x="151.424805" y="280.101562"/>
<use xlink:href="#glyph-1-14" x="157.54248" y="280.101562"/>
<use xlink:href="#glyph-1-6" x="161.205566" y="280.101562"/>
<use xlink:href="#glyph-1-12" x="164.261719" y="280.101562"/>
<use xlink:href="#glyph-1-15" x="170.379395" y="280.101562"/>
<use xlink:href="#glyph-1-6" x="173.435547" y="280.101562"/>
<use xlink:href="#glyph-1-11" x="176.491699" y="280.101562"/>
<use xlink:href="#glyph-1-14" x="182.609375" y="280.101562"/>
<use xlink:href="#glyph-1-3" x="186.272461" y="280.101562"/>
<use xlink:href="#glyph-1-16" x="188.716309" y="280.101562"/>
<use xlink:href="#glyph-1-4" x="197.879395" y="280.101562"/>
<use xlink:href="#glyph-1-14" x="203.99707" y="280.101562"/>
<use xlink:href="#glyph-1-17" x="207.660156" y="280.101562"/>
<use xlink:href="#glyph-1-6" x="213.160156" y="280.101562"/>
<use xlink:href="#glyph-1-1" x="216.216309" y="280.101562"/>
<use xlink:href="#glyph-1-7" x="222.333984" y="280.101562"/>
<use xlink:href="#glyph-1-8" x="227.833984" y="280.101562"/>
<use xlink:href="#glyph-1-3" x="230.890137" y="280.101562"/>
<use xlink:href="#glyph-1-16" x="233.333984" y="280.101562"/>
<use xlink:href="#glyph-1-4" x="242.49707" y="280.101562"/>
<use xlink:href="#glyph-1-8" x="248.614746" y="280.101562"/>
<use xlink:href="#glyph-1-1" x="251.670898" y="280.101562"/>
<use xlink:href="#glyph-1-7" x="257.788574" y="280.101562"/>
<use xlink:href="#glyph-1-6" x="263.288574" y="280.101562"/>
<use xlink:href="#glyph-1-11" x="266.344727" y="280.101562"/>
<use xlink:href="#glyph-1-1" x="272.462402" y="280.101562"/>
<use xlink:href="#glyph-1-14" x="278.580078" y="280.101562"/>
<use xlink:href="#glyph-1-6" x="282.243164" y="280.101562"/>
<use xlink:href="#glyph-1-16" x="285.299316" y="280.101562"/>
<use xlink:href="#glyph-1-1" x="294.462402" y="280.101562"/>
<use xlink:href="#glyph-1-8" x="300.580078" y="280.101562"/>
<use xlink:href="#glyph-1-4" x="303.63623" y="280.101562"/>
<use xlink:href="#glyph-1-18" x="309.753906" y="280.101562"/>
<use xlink:href="#glyph-1-4" x="313.416992" y="280.101562"/>
<use xlink:href="#glyph-1-5" x="319.534668" y="280.101562"/>
<use xlink:href="#glyph-1-4" x="325.652344" y="280.101562"/>
<use xlink:href="#glyph-1-10" x="331.77002" y="280.101562"/>
<use xlink:href="#glyph-1-17" x="334.213867" y="280.101562"/>
<use xlink:href="#glyph-1-7" x="339.713867" y="280.101562"/>
<use xlink:href="#glyph-1-3" x="345.213867" y="280.101562"/>
<use xlink:href="#glyph-1-7" x="347.657715" y="280.101562"/>
</g>
<g fill="rgb(0%, 0%, 0%)" fill-opacity="1">
<use xlink:href="#glyph-2-0" x="14.351562" y="167.824219"/>
<use xlink:href="#glyph-2-1" x="14.351562" y="160.487305"/>
<use xlink:href="#glyph-2-2" x="14.351563" y="154.369629"/>
<use xlink:href="#glyph-2-3" x="14.351563" y="150.706543"/>
<use xlink:href="#glyph-2-1" x="14.351563" y="145.206543"/>
<use xlink:href="#glyph-2-4" x="14.351563" y="139.088867"/>
<use xlink:href="#glyph-2-5" x="14.351563" y="132.971191"/>
<use xlink:href="#glyph-2-6" x="14.351563" y="129.915039"/>
<use xlink:href="#glyph-2-7" x="14.351563" y="123.797363"/>
<use xlink:href="#glyph-2-1" x="14.351563" y="117.679688"/>
</g>
<g fill="rgb(0%, 0%, 0%)" fill-opacity="1">
<use xlink:href="#glyph-3-0" x="42.453125" y="15.929688"/>
<use xlink:href="#glyph-3-1" x="46.848828" y="15.929688"/>
<use xlink:href="#glyph-3-2" x="54.190039" y="15.929688"/>
</g>
<path fill-rule="nonzero" fill="rgb(100%, 100%, 100%)" fill-opacity="1" d="M 360 288 L 720 288 L 720 0 L 360 0 Z M 360 288 "/>
<g clip-path="url(#clip-21)">
<path fill="none" stroke-width="1.066978" stroke-linecap="round" stroke-linejoin="round" stroke="rgb(100%, 100%, 100%)" stroke-opacity="1" stroke-miterlimit="10" d="M 360 288 L 720 288 L 720 0 L 360 0 Z M 360 288 "/>
</g>
<g clip-path="url(#clip-22)">
<path fill-rule="nonzero" fill="rgb(100%, 100%, 100%)" fill-opacity="1" d="M 402.453125 255.113281 L 714.519531 255.113281 L 714.519531 24.269531 L 402.453125 24.269531 Z M 402.453125 255.113281 "/>
</g>
<g clip-path="url(#clip-23)">
<path fill="none" stroke-width="0.533489" stroke-linecap="butt" stroke-linejoin="round" stroke="rgb(100%, 100%, 100%)" stroke-opacity="1" stroke-miterlimit="10" d="M 402.453125 226.441406 L 714.519531 226.441406 "/>
</g>
<g clip-path="url(#clip-24)">
<path fill="none" stroke-width="0.533489" stroke-linecap="butt" stroke-linejoin="round" stroke="rgb(100%, 100%, 100%)" stroke-opacity="1" stroke-miterlimit="10" d="M 402.453125 174.308594 L 714.519531 174.308594 "/>
</g>
<g clip-path="url(#clip-25)">
<path fill="none" stroke-width="0.533489" stroke-linecap="butt" stroke-linejoin="round" stroke="rgb(100%, 100%, 100%)" stroke-opacity="1" stroke-miterlimit="10" d="M 402.453125 122.179688 L 714.519531 122.179688 "/>
</g>
<g clip-path="url(#clip-26)">
<path fill="none" stroke-width="0.533489" stroke-linecap="butt" stroke-linejoin="round" stroke="rgb(100%, 100%, 100%)" stroke-opacity="1" stroke-miterlimit="10" d="M 402.453125 70.046875 L 714.519531 70.046875 "/>
</g>
<g clip-path="url(#clip-27)">
<path fill="none" stroke-width="0.533489" stroke-linecap="butt" stroke-linejoin="round" stroke="rgb(100%, 100%, 100%)" stroke-opacity="1" stroke-miterlimit="10" d="M 438.976562 255.113281 L 438.976562 24.269531 "/>
</g>
<g clip-path="url(#clip-28)">
<path fill="none" stroke-width="0.533489" stroke-linecap="butt" stroke-linejoin="round" stroke="rgb(100%, 100%, 100%)" stroke-opacity="1" stroke-miterlimit="10" d="M 498.730469 255.113281 L 498.730469 24.269531 "/>
</g>
<g clip-path="url(#clip-29)">
<path fill="none" stroke-width="0.533489" stroke-linecap="butt" stroke-linejoin="round" stroke="rgb(100%, 100%, 100%)" stroke-opacity="1" stroke-miterlimit="10" d="M 558.488281 255.113281 L 558.488281 24.269531 "/>
</g>
<g clip-path="url(#clip-30)">
<path fill="none" stroke-width="0.533489" stroke-linecap="butt" stroke-linejoin="round" stroke="rgb(100%, 100%, 100%)" stroke-opacity="1" stroke-miterlimit="10" d="M 618.242188 255.113281 L 618.242188 24.269531 "/>
</g>
<g clip-path="url(#clip-31)">
<path fill="none" stroke-width="0.533489" stroke-linecap="butt" stroke-linejoin="round" stroke="rgb(100%, 100%, 100%)" stroke-opacity="1" stroke-miterlimit="10" d="M 677.996094 255.113281 L 677.996094 24.269531 "/>
</g>
<g clip-path="url(#clip-32)">
<path fill="none" stroke-width="1.066978" stroke-linecap="butt" stroke-linejoin="round" stroke="rgb(100%, 100%, 100%)" stroke-opacity="1" stroke-miterlimit="10" d="M 402.453125 252.507812 L 714.519531 252.507812 "/>
</g>
<g clip-path="url(#clip-33)">
<path fill="none" stroke-width="1.066978" stroke-linecap="butt" stroke-linejoin="round" stroke="rgb(100%, 100%, 100%)" stroke-opacity="1" stroke-miterlimit="10" d="M 402.453125 200.375 L 714.519531 200.375 "/>
</g>
<g clip-path="url(#clip-34)">
<path fill="none" stroke-width="1.066978" stroke-linecap="butt" stroke-linejoin="round" stroke="rgb(100%, 100%, 100%)" stroke-opacity="1" stroke-miterlimit="10" d="M 402.453125 148.242188 L 714.519531 148.242188 "/>
</g>
<g clip-path="url(#clip-35)">
<path fill="none" stroke-width="1.066978" stroke-linecap="butt" stroke-linejoin="round" stroke="rgb(100%, 100%, 100%)" stroke-opacity="1" stroke-miterlimit="10" d="M 402.453125 96.113281 L 714.519531 96.113281 "/>
</g>
<g clip-path="url(#clip-36)">
<path fill="none" stroke-width="1.066978" stroke-linecap="butt" stroke-linejoin="round" stroke="rgb(100%, 100%, 100%)" stroke-opacity="1" stroke-miterlimit="10" d="M 402.453125 43.980469 L 714.519531 43.980469 "/>
</g>
<g clip-path="url(#clip-37)">
<path fill="none" stroke-width="1.066978" stroke-linecap="butt" stroke-linejoin="round" stroke="rgb(100%, 100%, 100%)" stroke-opacity="1" stroke-miterlimit="10" d="M 409.097656 255.113281 L 409.097656 24.269531 "/>
</g>
<g clip-path="url(#clip-38)">
<path fill="none" stroke-width="1.066978" stroke-linecap="butt" stroke-linejoin="round" stroke="rgb(100%, 100%, 100%)" stroke-opacity="1" stroke-miterlimit="10" d="M 468.855469 255.113281 L 468.855469 24.269531 "/>
</g>
<g clip-path="url(#clip-39)">
<path fill="none" stroke-width="1.066978" stroke-linecap="butt" stroke-linejoin="round" stroke="rgb(100%, 100%, 100%)" stroke-opacity="1" stroke-miterlimit="10" d="M 528.609375 255.113281 L 528.609375 24.269531 "/>
</g>
<g clip-path="url(#clip-40)">
<path fill="none" stroke-width="1.066978" stroke-linecap="butt" stroke-linejoin="round" stroke="rgb(100%, 100%, 100%)" stroke-opacity="1" stroke-miterlimit="10" d="M 588.363281 255.113281 L 588.363281 24.269531 "/>
</g>
<g clip-path="url(#clip-41)">
<path fill="none" stroke-width="1.066978" stroke-linecap="butt" stroke-linejoin="round" stroke="rgb(100%, 100%, 100%)" stroke-opacity="1" stroke-miterlimit="10" d="M 648.121094 255.113281 L 648.121094 24.269531 "/>
</g>
<g clip-path="url(#clip-42)">
<path fill="none" stroke-width="1.066978" stroke-linecap="butt" stroke-linejoin="round" stroke="rgb(100%, 100%, 100%)" stroke-opacity="1" stroke-miterlimit="10" d="M 707.875 255.113281 L 707.875 24.269531 "/>
</g>
<path fill-rule="nonzero" fill="rgb(49.411765%, 75.294118%, 93.333333%)" fill-opacity="0.6" d="M 403.949219 252.507812 L 414.25 252.507812 L 414.25 26.875 L 403.949219 26.875 Z M 403.949219 252.507812 "/>
<path fill-rule="nonzero" fill="rgb(49.411765%, 75.294118%, 93.333333%)" fill-opacity="0.6" d="M 414.25 252.507812 L 424.550781 252.507812 L 424.550781 226.699219 L 414.25 226.699219 Z M 414.25 252.507812 "/>
<path fill-rule="nonzero" fill="rgb(49.411765%, 75.294118%, 93.333333%)" fill-opacity="0.6" d="M 424.554688 252.507812 L 434.855469 252.507812 L 434.855469 233.335938 L 424.554688 233.335938 Z M 424.554688 252.507812 "/>
<path fill-rule="nonzero" fill="rgb(49.411765%, 75.294118%, 93.333333%)" fill-opacity="0.6" d="M 434.855469 252.507812 L 445.15625 252.507812 L 445.15625 237.023438 L 434.855469 237.023438 Z M 434.855469 252.507812 "/>
<path fill-rule="nonzero" fill="rgb(49.411765%, 75.294118%, 93.333333%)" fill-opacity="0.6" d="M 445.15625 252.507812 L 455.457031 252.507812 L 455.457031 228.175781 L 445.15625 228.175781 Z M 445.15625 252.507812 "/>
<path fill-rule="nonzero" fill="rgb(49.411765%, 75.294118%, 93.333333%)" fill-opacity="0.6" d="M 455.460938 252.507812 L 465.761719 252.507812 L 465.761719 236.285156 L 455.460938 236.285156 Z M 455.460938 252.507812 "/>
<path fill-rule="nonzero" fill="rgb(49.411765%, 75.294118%, 93.333333%)" fill-opacity="0.6" d="M 465.761719 252.507812 L 476.0625 252.507812 L 476.0625 239.234375 L 465.761719 239.234375 Z M 465.761719 252.507812 "/>
<path fill-rule="nonzero" fill="rgb(49.411765%, 75.294118%, 93.333333%)" fill-opacity="0.6" d="M 476.066406 252.507812 L 486.367188 252.507812 L 486.367188 241.449219 L 476.066406 241.449219 Z M 476.066406 252.507812 "/>
<path fill-rule="nonzero" fill="rgb(49.411765%, 75.294118%, 93.333333%)" fill-opacity="0.6" d="M 486.367188 252.507812 L 496.667969 252.507812 L 496.667969 243.660156 L 486.367188 243.660156 Z M 486.367188 252.507812 "/>
<path fill-rule="nonzero" fill="rgb(49.411765%, 75.294118%, 93.333333%)" fill-opacity="0.6" d="M 496.671875 252.507812 L 506.972656 252.507812 L 506.972656 244.398438 L 496.671875 244.398438 Z M 496.671875 252.507812 "/>
<path fill-rule="nonzero" fill="rgb(49.411765%, 75.294118%, 93.333333%)" fill-opacity="0.6" d="M 506.972656 252.507812 L 517.273438 252.507812 L 517.273438 242.183594 L 506.972656 242.183594 Z M 506.972656 252.507812 "/>
<path fill-rule="nonzero" fill="rgb(49.411765%, 75.294118%, 93.333333%)" fill-opacity="0.6" d="M 517.277344 252.507812 L 527.578125 252.507812 L 527.578125 244.398438 L 517.277344 244.398438 Z M 517.277344 252.507812 "/>
<path fill-rule="nonzero" fill="rgb(49.411765%, 75.294118%, 93.333333%)" fill-opacity="0.6" d="M 527.578125 252.507812 L 537.878906 252.507812 L 537.878906 239.234375 L 527.578125 239.234375 Z M 527.578125 252.507812 "/>
<path fill-rule="nonzero" fill="rgb(49.411765%, 75.294118%, 93.333333%)" fill-opacity="0.6" d="M 537.882812 252.507812 L 548.183594 252.507812 L 548.183594 245.871094 L 537.882812 245.871094 Z M 537.882812 252.507812 "/>
<path fill-rule="nonzero" fill="rgb(49.411765%, 75.294118%, 93.333333%)" fill-opacity="0.6" d="M 548.183594 252.507812 L 558.484375 252.507812 L 558.484375 239.972656 L 548.183594 239.972656 Z M 548.183594 252.507812 "/>
<path fill-rule="nonzero" fill="rgb(49.411765%, 75.294118%, 93.333333%)" fill-opacity="0.6" d="M 558.488281 252.507812 L 568.789062 252.507812 L 568.789062 251.03125 L 558.488281 251.03125 Z M 558.488281 252.507812 "/>
<path fill-rule="nonzero" fill="rgb(49.411765%, 75.294118%, 93.333333%)" fill-opacity="0.6" d="M 568.789062 252.507812 L 579.089844 252.507812 L 579.089844 249.558594 L 568.789062 249.558594 Z M 568.789062 252.507812 "/>
<path fill-rule="nonzero" fill="rgb(49.411765%, 75.294118%, 93.333333%)" fill-opacity="0.6" d="M 579.09375 252.507812 L 589.394531 252.507812 L 589.394531 247.347656 L 579.09375 247.347656 Z M 579.09375 252.507812 "/>
<path fill-rule="nonzero" fill="rgb(49.411765%, 75.294118%, 93.333333%)" fill-opacity="0.6" d="M 589.394531 252.507812 L 599.695312 252.507812 L 599.695312 251.03125 L 589.394531 251.03125 Z M 589.394531 252.507812 "/>
<path fill-rule="nonzero" fill="rgb(49.411765%, 75.294118%, 93.333333%)" fill-opacity="0.6" d="M 599.699219 252.507812 L 610 252.507812 L 610 242.183594 L 599.699219 242.183594 Z M 599.699219 252.507812 "/>
<path fill-rule="nonzero" fill="rgb(49.411765%, 75.294118%, 93.333333%)" fill-opacity="0.6" d="M 610 252.507812 L 620.300781 252.507812 L 620.300781 250.296875 L 610 250.296875 Z M 610 252.507812 "/>
<path fill-rule="nonzero" fill="rgb(49.411765%, 75.294118%, 93.333333%)" fill-opacity="0.6" d="M 620.304688 252.507812 L 630.605469 252.507812 L 630.605469 244.398438 L 620.304688 244.398438 Z M 620.304688 252.507812 "/>
<path fill-rule="nonzero" fill="rgb(49.411765%, 75.294118%, 93.333333%)" fill-opacity="0.6" d="M 630.605469 252.507812 L 640.90625 252.507812 L 640.90625 247.347656 L 630.605469 247.347656 Z M 630.605469 252.507812 "/>
<path fill-rule="nonzero" fill="rgb(49.411765%, 75.294118%, 93.333333%)" fill-opacity="0.6" d="M 640.910156 252.507812 L 651.210938 252.507812 L 651.210938 248.820312 L 640.910156 248.820312 Z M 640.910156 252.507812 "/>
<path fill-rule="nonzero" fill="rgb(49.411765%, 75.294118%, 93.333333%)" fill-opacity="0.6" d="M 651.210938 252.507812 L 661.511719 252.507812 L 661.511719 244.398438 L 651.210938 244.398438 Z M 651.210938 252.507812 "/>
<path fill-rule="nonzero" fill="rgb(49.411765%, 75.294118%, 93.333333%)" fill-opacity="0.6" d="M 661.511719 252.507812 L 671.8125 252.507812 L 671.8125 246.609375 L 661.511719 246.609375 Z M 661.511719 252.507812 "/>
<path fill-rule="nonzero" fill="rgb(49.411765%, 75.294118%, 93.333333%)" fill-opacity="0.6" d="M 671.816406 252.507812 L 682.117188 252.507812 L 682.117188 245.132812 L 671.816406 245.132812 Z M 671.816406 252.507812 "/>
<path fill-rule="nonzero" fill="rgb(49.411765%, 75.294118%, 93.333333%)" fill-opacity="0.6" d="M 682.117188 252.507812 L 692.417969 252.507812 L 692.417969 242.183594 L 682.117188 242.183594 Z M 682.117188 252.507812 "/>
<path fill-rule="nonzero" fill="rgb(49.411765%, 75.294118%, 93.333333%)" fill-opacity="0.6" d="M 692.421875 252.507812 L 702.722656 252.507812 L 702.722656 247.347656 L 692.421875 247.347656 Z M 692.421875 252.507812 "/>
<path fill-rule="nonzero" fill="rgb(49.411765%, 75.294118%, 93.333333%)" fill-opacity="0.6" d="M 702.722656 252.507812 L 713.023438 252.507812 L 713.023438 227.4375 L 702.722656 227.4375 Z M 702.722656 252.507812 "/>
<path fill="none" stroke-width="1.066978" stroke-linecap="butt" stroke-linejoin="round" stroke="rgb(74.509804%, 74.509804%, 74.509804%)" stroke-opacity="1" stroke-miterlimit="10" d="M 402.453125 255.113281 L 402.453125 24.269531 "/>
<g fill="rgb(30.196078%, 30.196078%, 30.196078%)" fill-opacity="1">
<use xlink:href="#glyph-0-0" x="384.804688" y="256.15625"/>
<use xlink:href="#glyph-0-1" x="389.698828" y="256.15625"/>
</g>
<g fill="rgb(30.196078%, 30.196078%, 30.196078%)" fill-opacity="1">
<use xlink:href="#glyph-0-3" x="379.910156" y="204.023438"/>
<use xlink:href="#glyph-0-0" x="384.804297" y="204.023438"/>
<use xlink:href="#glyph-0-1" x="389.698437" y="204.023438"/>
</g>
<g fill="rgb(30.196078%, 30.196078%, 30.196078%)" fill-opacity="1">
<use xlink:href="#glyph-0-4" x="379.910156" y="151.894531"/>
<use xlink:href="#glyph-0-0" x="384.804297" y="151.894531"/>
<use xlink:href="#glyph-0-1" x="389.698437" y="151.894531"/>
</g>
<g fill="rgb(30.196078%, 30.196078%, 30.196078%)" fill-opacity="1">
<use xlink:href="#glyph-0-8" x="379.910156" y="99.761719"/>
<use xlink:href="#glyph-0-0" x="384.804297" y="99.761719"/>
<use xlink:href="#glyph-0-1" x="389.698437" y="99.761719"/>
</g>
<g fill="rgb(30.196078%, 30.196078%, 30.196078%)" fill-opacity="1">
<use xlink:href="#glyph-0-5" x="379.910156" y="47.628906"/>
<use xlink:href="#glyph-0-0" x="384.804297" y="47.628906"/>
<use xlink:href="#glyph-0-1" x="389.698437" y="47.628906"/>
</g>
<path fill="none" stroke-width="1.066978" stroke-linecap="butt" stroke-linejoin="round" stroke="rgb(20%, 20%, 20%)" stroke-opacity="1" stroke-miterlimit="10" d="M 399.714844 252.507812 L 402.453125 252.507812 "/>
<path fill="none" stroke-width="1.066978" stroke-linecap="butt" stroke-linejoin="round" stroke="rgb(20%, 20%, 20%)" stroke-opacity="1" stroke-miterlimit="10" d="M 399.714844 200.375 L 402.453125 200.375 "/>
<path fill="none" stroke-width="1.066978" stroke-linecap="butt" stroke-linejoin="round" stroke="rgb(20%, 20%, 20%)" stroke-opacity="1" stroke-miterlimit="10" d="M 399.714844 148.242188 L 402.453125 148.242188 "/>
<path fill="none" stroke-width="1.066978" stroke-linecap="butt" stroke-linejoin="round" stroke="rgb(20%, 20%, 20%)" stroke-opacity="1" stroke-miterlimit="10" d="M 399.714844 96.113281 L 402.453125 96.113281 "/>
<path fill="none" stroke-width="1.066978" stroke-linecap="butt" stroke-linejoin="round" stroke="rgb(20%, 20%, 20%)" stroke-opacity="1" stroke-miterlimit="10" d="M 399.714844 43.980469 L 402.453125 43.980469 "/>
<path fill="none" stroke-width="1.066978" stroke-linecap="butt" stroke-linejoin="round" stroke="rgb(74.509804%, 74.509804%, 74.509804%)" stroke-opacity="1" stroke-miterlimit="10" d="M 402.453125 255.113281 L 714.519531 255.113281 "/>
<path fill="none" stroke-width="1.066978" stroke-linecap="butt" stroke-linejoin="round" stroke="rgb(20%, 20%, 20%)" stroke-opacity="1" stroke-miterlimit="10" d="M 409.097656 257.851562 L 409.097656 255.113281 "/>
<path fill="none" stroke-width="1.066978" stroke-linecap="butt" stroke-linejoin="round" stroke="rgb(20%, 20%, 20%)" stroke-opacity="1" stroke-miterlimit="10" d="M 468.855469 257.851562 L 468.855469 255.113281 "/>
<path fill="none" stroke-width="1.066978" stroke-linecap="butt" stroke-linejoin="round" stroke="rgb(20%, 20%, 20%)" stroke-opacity="1" stroke-miterlimit="10" d="M 528.609375 257.851562 L 528.609375 255.113281 "/>
<path fill="none" stroke-width="1.066978" stroke-linecap="butt" stroke-linejoin="round" stroke="rgb(20%, 20%, 20%)" stroke-opacity="1" stroke-miterlimit="10" d="M 588.363281 257.851562 L 588.363281 255.113281 "/>
<path fill="none" stroke-width="1.066978" stroke-linecap="butt" stroke-linejoin="round" stroke="rgb(20%, 20%, 20%)" stroke-opacity="1" stroke-miterlimit="10" d="M 648.121094 257.851562 L 648.121094 255.113281 "/>
<path fill="none" stroke-width="1.066978" stroke-linecap="butt" stroke-linejoin="round" stroke="rgb(20%, 20%, 20%)" stroke-opacity="1" stroke-miterlimit="10" d="M 707.875 257.851562 L 707.875 255.113281 "/>
<g fill="rgb(30.196078%, 30.196078%, 30.196078%)" fill-opacity="1">
<use xlink:href="#glyph-0-0" x="402.738281" y="267.34375"/>
<use xlink:href="#glyph-0-1" x="407.632422" y="267.34375"/>
</g>
<g fill="rgb(30.196078%, 30.196078%, 30.196078%)" fill-opacity="1">
<use xlink:href="#glyph-0-4" x="460.050781" y="267.34375"/>
<use xlink:href="#glyph-0-0" x="464.944922" y="267.34375"/>
<use xlink:href="#glyph-0-1" x="469.839062" y="267.34375"/>
</g>
<g fill="rgb(30.196078%, 30.196078%, 30.196078%)" fill-opacity="1">
<use xlink:href="#glyph-0-5" x="519.804688" y="267.34375"/>
<use xlink:href="#glyph-0-0" x="524.698828" y="267.34375"/>
<use xlink:href="#glyph-0-1" x="529.592969" y="267.34375"/>
</g>
<g fill="rgb(30.196078%, 30.196078%, 30.196078%)" fill-opacity="1">
<use xlink:href="#glyph-0-6" x="579.558594" y="267.34375"/>
<use xlink:href="#glyph-0-0" x="584.452734" y="267.34375"/>
<use xlink:href="#glyph-0-1" x="589.346875" y="267.34375"/>
</g>
<g fill="rgb(30.196078%, 30.196078%, 30.196078%)" fill-opacity="1">
<use xlink:href="#glyph-0-7" x="639.316406" y="267.34375"/>
<use xlink:href="#glyph-0-0" x="644.210547" y="267.34375"/>
<use xlink:href="#glyph-0-1" x="649.104687" y="267.34375"/>
</g>
<g fill="rgb(30.196078%, 30.196078%, 30.196078%)" fill-opacity="1">
<use xlink:href="#glyph-0-3" x="696.621094" y="267.34375"/>
<use xlink:href="#glyph-0-0" x="701.515234" y="267.34375"/>
<use xlink:href="#glyph-0-0" x="706.409375" y="267.34375"/>
<use xlink:href="#glyph-0-1" x="711.303516" y="267.34375"/>
</g>
<g fill="rgb(0%, 0%, 0%)" fill-opacity="1">
<use xlink:href="#glyph-1-19" x="396.769531" y="280.101562"/>
<use xlink:href="#glyph-1-20" x="404.106445" y="280.101562"/>
<use xlink:href="#glyph-1-4" x="410.224121" y="280.101562"/>
<use xlink:href="#glyph-1-14" x="416.341797" y="280.101562"/>
<use xlink:href="#glyph-1-1" x="420.004883" y="280.101562"/>
<use xlink:href="#glyph-1-6" x="426.122559" y="280.101562"/>
<use xlink:href="#glyph-1-12" x="429.178711" y="280.101562"/>
<use xlink:href="#glyph-1-15" x="435.296387" y="280.101562"/>
<use xlink:href="#glyph-1-6" x="438.352539" y="280.101562"/>
<use xlink:href="#glyph-1-4" x="441.408691" y="280.101562"/>
<use xlink:href="#glyph-1-2" x="447.526367" y="280.101562"/>
<use xlink:href="#glyph-1-1" x="453.644043" y="280.101562"/>
<use xlink:href="#glyph-1-21" x="459.761719" y="280.101562"/>
<use xlink:href="#glyph-1-22" x="465.879395" y="280.101562"/>
<use xlink:href="#glyph-1-4" x="471.99707" y="280.101562"/>
<use xlink:href="#glyph-1-8" x="478.114746" y="280.101562"/>
<use xlink:href="#glyph-1-1" x="481.170898" y="280.101562"/>
<use xlink:href="#glyph-1-10" x="487.288574" y="280.101562"/>
<use xlink:href="#glyph-1-17" x="489.732422" y="280.101562"/>
<use xlink:href="#glyph-1-6" x="495.232422" y="280.101562"/>
<use xlink:href="#glyph-1-11" x="498.288574" y="280.101562"/>
<use xlink:href="#glyph-1-12" x="504.40625" y="280.101562"/>
<use xlink:href="#glyph-1-13" x="510.523926" y="280.101562"/>
<use xlink:href="#glyph-1-1" x="518.467773" y="280.101562"/>
<use xlink:href="#glyph-1-14" x="524.585449" y="280.101562"/>
<use xlink:href="#glyph-1-1" x="528.248535" y="280.101562"/>
<use xlink:href="#glyph-1-2" x="534.366211" y="280.101562"/>
<use xlink:href="#glyph-1-6" x="540.483887" y="280.101562"/>
<use xlink:href="#glyph-1-11" x="543.540039" y="280.101562"/>
<use xlink:href="#glyph-1-14" x="549.657715" y="280.101562"/>
<use xlink:href="#glyph-1-3" x="553.320801" y="280.101562"/>
<use xlink:href="#glyph-1-16" x="555.764648" y="280.101562"/>
<use xlink:href="#glyph-1-4" x="564.927734" y="280.101562"/>
<use xlink:href="#glyph-1-14" x="571.04541" y="280.101562"/>
<use xlink:href="#glyph-1-17" x="574.708496" y="280.101562"/>
<use xlink:href="#glyph-1-6" x="580.208496" y="280.101562"/>
<use xlink:href="#glyph-1-1" x="583.264648" y="280.101562"/>
<use xlink:href="#glyph-1-7" x="589.382324" y="280.101562"/>
<use xlink:href="#glyph-1-8" x="594.882324" y="280.101562"/>
<use xlink:href="#glyph-1-3" x="597.938477" y="280.101562"/>
<use xlink:href="#glyph-1-16" x="600.382324" y="280.101562"/>
<use xlink:href="#glyph-1-4" x="609.54541" y="280.101562"/>
<use xlink:href="#glyph-1-8" x="615.663086" y="280.101562"/>
<use xlink:href="#glyph-1-1" x="618.719238" y="280.101562"/>
<use xlink:href="#glyph-1-7" x="624.836914" y="280.101562"/>
<use xlink:href="#glyph-1-6" x="630.336914" y="280.101562"/>
<use xlink:href="#glyph-1-11" x="633.393066" y="280.101562"/>
<use xlink:href="#glyph-1-1" x="639.510742" y="280.101562"/>
<use xlink:href="#glyph-1-14" x="645.628418" y="280.101562"/>
<use xlink:href="#glyph-1-6" x="649.291504" y="280.101562"/>
<use xlink:href="#glyph-1-16" x="652.347656" y="280.101562"/>
<use xlink:href="#glyph-1-1" x="661.510742" y="280.101562"/>
<use xlink:href="#glyph-1-8" x="667.628418" y="280.101562"/>
<use xlink:href="#glyph-1-4" x="670.68457" y="280.101562"/>
<use xlink:href="#glyph-1-18" x="676.802246" y="280.101562"/>
<use xlink:href="#glyph-1-4" x="680.465332" y="280.101562"/>
<use xlink:href="#glyph-1-5" x="686.583008" y="280.101562"/>
<use xlink:href="#glyph-1-4" x="692.700684" y="280.101562"/>
<use xlink:href="#glyph-1-10" x="698.818359" y="280.101562"/>
<use xlink:href="#glyph-1-17" x="701.262207" y="280.101562"/>
<use xlink:href="#glyph-1-7" x="706.762207" y="280.101562"/>
<use xlink:href="#glyph-1-3" x="712.262207" y="280.101562"/>
<use xlink:href="#glyph-1-7" x="714.706055" y="280.101562"/>
</g>
<g fill="rgb(0%, 0%, 0%)" fill-opacity="1">
<use xlink:href="#glyph-2-0" x="374.351562" y="167.824219"/>
<use xlink:href="#glyph-2-1" x="374.351562" y="160.487305"/>
<use xlink:href="#glyph-2-2" x="374.351562" y="154.369629"/>
<use xlink:href="#glyph-2-3" x="374.351562" y="150.706543"/>
<use xlink:href="#glyph-2-1" x="374.351562" y="145.206543"/>
<use xlink:href="#glyph-2-4" x="374.351562" y="139.088867"/>
<use xlink:href="#glyph-2-5" x="374.351562" y="132.971191"/>
<use xlink:href="#glyph-2-6" x="374.351562" y="129.915039"/>
<use xlink:href="#glyph-2-7" x="374.351562" y="123.797363"/>
<use xlink:href="#glyph-2-1" x="374.351562" y="117.679688"/>
</g>
<g fill="rgb(0%, 0%, 0%)" fill-opacity="1">
<use xlink:href="#glyph-3-0" x="402.453125" y="15.929688"/>
<use xlink:href="#glyph-3-3" x="406.848828" y="15.929688"/>
<use xlink:href="#glyph-3-2" x="414.190039" y="15.929688"/>
</g>
</svg>
